<svg width="160" height="45" viewBox="0 0 160 45" fill="none" xmlns="http://www.w3.org/2000/svg">
<path d="M0 0H160V45H0V0Z" fill="black"/>
<g clipPath="url(#clip0_326_16)">
<path d="M84.1094 4.18285V40.8218H75.249V4.18285H84.1094ZM106.103 3.00309C116.686 3.00309 125.228 11.4573 125.228 22.4036C125.228 33.4147 116.623 42 105.976 42C95.3293 42 86.7254 33.481 86.7254 22.5316C86.7884 11.5868 95.5228 3 106.105 3L106.103 3.00309ZM106.04 33.0862C111.65 33.0862 115.793 28.105 115.793 22.4684C115.793 16.8317 111.65 11.9168 106.04 11.9168C100.431 11.9168 96.2878 16.8317 96.2878 22.4684C96.2878 28.105 100.431 33.0862 106.04 33.0862ZM126.248 29.6935L134.344 27.7272C134.917 32.1178 138.041 33.6908 141.292 33.6908C144.542 33.6908 145.69 31.7245 145.69 30.1515C145.69 28.907 144.989 27.6609 142.63 27.2029L137.659 26.2159C131.731 25.0361 127.523 21.2346 127.523 15.3358C127.523 8.32358 133.706 3.40713 140.783 3.40713C149.835 3.40713 153.533 9.17486 154.17 14.0898L146.33 16.4493C145.885 13.4343 144.1 11.2722 140.848 11.2722C138.043 11.2722 136.705 13.1722 136.705 14.665C136.705 15.9095 137.278 17.2867 139.382 17.6799L144.545 18.6623C151.302 20.0379 155 24.2326 155 29.7382C155 35.7018 149.964 41.4695 141.358 41.4695C132.242 41.5343 127.46 36.6857 126.25 29.6719L126.248 29.6935Z" fill="white"/>
<path d="M14.4979 40.7537H5L20.6823 4.18262H30.2447L14.4979 40.7537Z" fill="#0A99E0"/>
<path d="M36.4907 40.754H48.4111L55.869 29.1538L63.2639 40.754H73.0168L61.2239 22.0752L73.0993 4.11816H62.2619L55.887 14.9982L49.7041 4.11816H38.7542L50.6745 22.0768L42.9616 33.677L30.2763 4.18294H20.7139L36.4907 40.754Z" fill="white"/>
<path d="M84.1094 4.18285V40.8218H75.249V4.18285H84.1094ZM106.103 3.00309C116.686 3.00309 125.228 11.4573 125.228 22.4036C125.228 33.4147 116.623 42 105.976 42C95.3293 42 86.7254 33.481 86.7254 22.5316C86.7899 11.5868 95.5228 3 106.105 3L106.103 3.00309ZM106.039 33.0862C111.649 33.0862 115.792 28.105 115.792 22.4684C115.792 16.8317 111.649 11.9168 106.039 11.9168C100.429 11.9168 96.2863 16.8317 96.2863 22.4684C96.2863 28.105 100.429 33.0862 106.039 33.0862ZM126.248 29.6935L134.344 27.7272C134.917 32.1178 138.041 33.6908 141.292 33.6908C144.542 33.6908 145.69 31.7245 145.69 30.1515C145.69 28.907 144.989 27.6609 142.63 27.2029L137.659 26.2159C131.731 25.0361 127.523 21.2346 127.523 15.3358C127.523 8.32358 133.706 3.40713 140.783 3.40713C149.835 3.40713 153.533 9.17486 154.17 14.0898L146.33 16.4493C145.885 13.4343 144.1 11.2722 140.848 11.2722C138.043 11.2722 136.705 13.1722 136.705 14.665C136.705 15.9095 137.278 17.2867 139.382 17.6799L144.545 18.6623C151.302 20.0379 155 24.2326 155 29.7382C155 35.7018 149.964 41.4695 141.358 41.4695C132.242 41.5358 127.46 36.6857 126.25 29.6719L126.248 29.6935ZM20.6826 4.18285H30.245L42.9303 33.6769L50.6433 22.0767L38.7229 4.11808H49.6728L55.8557 14.9981L62.2306 4.11808H73.068L61.2106 22.0767L73.0035 40.7555H63.2506L55.8557 29.1552L48.3978 40.7555H36.4774L25.6175 15.16L20.6826 4.18285Z" fill="#EEEEEE"/>
<path d="M20.6826 4.18179L36.4924 40.7529L32.8204 18.7985L20.6826 4.17871" fill="#EEEEEE"/>
</g>
<defs>
<clipPath id="clip0_326_16">
<rect width="150" height="39" fill="white" transform="translate(5 3)"/>
</clipPath>
</defs>
</svg>
