<svg width="442" height="425" viewBox="0 0 442 425" fill="none" xmlns="http://www.w3.org/2000/svg">
<path d="M362.188 388.398C324.244 408.397 287.768 432.34 252.232 421.328C216.696 410.315 182.378 364.498 137.301 339.149C92.2239 313.8 36.6662 309.07 14.0275 285.616C-8.33248 262.313 2.50537 220.436 11.4975 185.279C20.3697 150.343 27.7949 122.057 41.9878 98.592C56.5794 75.0578 78.0587 56.1238 104.037 40.2062C130.135 24.0677 160.055 10.8634 197.137 4.41103C234.339 -2.2622 278.027 -2.26567 307.088 18.6718C335.87 39.4578 349.866 80.8124 358.016 114.986C366.166 149.16 368.469 176.153 387.858 211.571C407.126 247.209 443.081 291.341 441.432 321.622C439.903 351.681 400.252 368.178 362.188 388.398Z" fill="#037ADE" fill-opacity="0.1"/>
</svg>
