<svg width="275" height="328" viewBox="0 0 275 328" fill="none" xmlns="http://www.w3.org/2000/svg">
<path d="M267.21 183.848C269.841 213.472 280.355 246.294 270.021 266.63C259.688 286.965 228.6 294.547 200.221 305.989C172.021 317.346 146.622 332.297 125.425 326.017C104.049 319.822 86.967 292.128 62.7125 274.769C38.5446 257.594 7.29083 250.937 1.28893 233.649C-4.53376 216.276 14.8954 188.272 22.0992 162.262C29.303 136.252 24.0156 112.137 27.7456 86.2082C31.3831 60.5467 43.9514 32.8878 65.1654 17.9077C86.4661 3.11025 116.592 0.906638 148.201 0.907488C179.632 0.993314 212.819 2.93101 234.137 20.1154C255.721 37.3975 265.796 69.7563 267.988 98.9174C270.268 128.261 264.665 154.407 267.21 183.848Z" fill="#037ADE" fill-opacity="0.1"/>
</svg>
