<svg width="20" height="20" viewBox="0 0 20 20" fill="none" xmlns="http://www.w3.org/2000/svg">
<g clipPath="url(#clip0_316_84)">
<path d="M0 17.4212C0 18.8455 1.15461 20 2.57883 20H17.4211C18.8455 20 20 18.8454 20 17.4212V2.57891C20 1.15445 18.8454 0 17.4212 0H2.57891C1.15445 0 0 1.15461 0 2.57883V17.4212Z" fill="#563D7C"/>
<path d="M8.29359 8.84672V6.01445H10.7866C11.0241 6.01445 11.253 6.03422 11.4735 6.07383C11.694 6.11336 11.8891 6.18398 12.0587 6.28578C12.2282 6.38758 12.3639 6.52891 12.4657 6.70977C12.5674 6.8907 12.6184 7.1225 12.6184 7.40508C12.6184 7.91391 12.4657 8.28141 12.1604 8.5075C11.8552 8.73367 11.4651 8.84672 10.9902 8.84672H8.29359ZM5.63086 3.94531V16.0547H11.499C12.0417 16.0547 12.5703 15.9869 13.0848 15.8512C13.5992 15.7155 14.0571 15.5063 14.4585 15.2237C14.8598 14.941 15.1793 14.5763 15.4167 14.1298C15.6542 13.6831 15.7729 13.1545 15.7729 12.544C15.7729 11.7864 15.5891 11.1391 15.2217 10.6021C14.8542 10.065 14.2973 9.68906 13.5511 9.47422C14.0938 9.21422 14.5038 8.88062 14.7808 8.47359C15.0577 8.06656 15.1962 7.55781 15.1962 6.94719C15.1962 6.38188 15.103 5.90703 14.9164 5.52258C14.7298 5.1382 14.467 4.83008 14.1277 4.59828C13.7886 4.36648 13.3816 4.19969 12.9066 4.09797C12.4318 3.99617 11.906 3.94531 11.3294 3.94531H5.63086ZM8.29359 13.9855V10.6614H11.1937C11.7703 10.6614 12.2339 10.7942 12.5845 11.06C12.9349 11.3257 13.1102 11.7695 13.1102 12.3913C13.1102 12.708 13.0565 12.968 12.9491 13.1715C12.8416 13.375 12.6975 13.5362 12.5166 13.6548C12.3357 13.7736 12.1265 13.8584 11.8891 13.9093C11.6516 13.9601 11.4029 13.9855 11.1428 13.9855H8.29359Z" fill="white"/>
</g>
<defs>
<clipPath id="clip0_316_84">
<rect width="20" height="20" fill="white"/>
</clipPath>
</defs>
</svg>
