<svg width="20" height="20" viewBox="0 0 20 20" fill="none" xmlns="http://www.w3.org/2000/svg">
<g clip-path="url(#clip0_358_25)">
<path d="M10 20C15.5228 20 20 15.5228 20 10C20 4.47715 15.5228 0 10 0C4.47715 0 0 4.47715 0 10C0 15.5228 4.47715 20 10 20Z" fill="#7D2AE7"/>
<path d="M10 20C15.5228 20 20 15.5228 20 10C20 4.47715 15.5228 0 10 0C4.47715 0 0 4.47715 0 10C0 15.5228 4.47715 20 10 20Z" fill="url(#paint0_radial_358_25)"/>
<path d="M10 20C15.5228 20 20 15.5228 20 10C20 4.47715 15.5228 0 10 0C4.47715 0 0 4.47715 0 10C0 15.5228 4.47715 20 10 20Z" fill="url(#paint1_radial_358_25)"/>
<path d="M10 20C15.5228 20 20 15.5228 20 10C20 4.47715 15.5228 0 10 0C4.47715 0 0 4.47715 0 10C0 15.5228 4.47715 20 10 20Z" fill="url(#paint2_radial_358_25)"/>
<path d="M10 20C15.5228 20 20 15.5228 20 10C20 4.47715 15.5228 0 10 0C4.47715 0 0 4.47715 0 10C0 15.5228 4.47715 20 10 20Z" fill="url(#paint3_radial_358_25)"/>
<path d="M14.3172 12.0512C14.2346 12.0512 14.162 12.1209 14.0864 12.2731C13.2329 14.0037 11.7588 15.2282 10.053 15.2282C8.08059 15.2282 6.85912 13.4477 6.85912 10.9879C6.85912 6.82125 9.18068 4.41216 11.2198 4.41216C12.1726 4.41216 12.7545 5.01095 12.7545 5.96385C12.7545 7.09479 12.112 7.69358 12.112 8.09244C12.112 8.27148 12.2234 8.37989 12.4442 8.37989C13.3315 8.37989 14.3728 7.36036 14.3728 5.92008C14.3728 4.52356 13.1574 3.49707 11.1183 3.49707C7.74837 3.49707 4.75342 6.62132 4.75342 10.9441C4.75342 14.2902 6.66418 16.5014 9.61238 16.5014C12.7416 16.5014 14.5509 13.388 14.5509 12.3775C14.5509 12.1537 14.4365 12.0512 14.3172 12.0512Z" fill="white"/>
</g>
<defs>
<radialGradient id="paint0_radial_358_25" cx="0" cy="0" r="1" gradientUnits="userSpaceOnUse" gradientTransform="translate(3.86325 17.7264) rotate(-49.416) scale(15.4683)">
<stop stop-color="#6420FF"/>
<stop offset="1" stop-color="#6420FF" stop-opacity="0"/>
</radialGradient>
<radialGradient id="paint1_radial_358_25" cx="0" cy="0" r="1" gradientUnits="userSpaceOnUse" gradientTransform="translate(5.2947 2.27364) rotate(54.703) scale(17.4434)">
<stop stop-color="#00C4CC"/>
<stop offset="1" stop-color="#00C4CC" stop-opacity="0"/>
</radialGradient>
<radialGradient id="paint2_radial_358_25" cx="0" cy="0" r="1" gradientUnits="userSpaceOnUse" gradientTransform="translate(3.86316 17.7263) rotate(-45.1954) scale(15.2811 7.02796)">
<stop stop-color="#6420FF"/>
<stop offset="1" stop-color="#6420FF" stop-opacity="0"/>
</radialGradient>
<radialGradient id="paint3_radial_358_25" cx="0" cy="0" r="1" gradientUnits="userSpaceOnUse" gradientTransform="translate(8.17895 2.69474) rotate(66.5198) scale(15.7459 26.3779)">
<stop stop-color="#00C4CC" stop-opacity="0.725916"/>
<stop offset="0.0001" stop-color="#00C4CC"/>
<stop offset="1" stop-color="#00C4CC" stop-opacity="0"/>
</radialGradient>
<clipPath id="clip0_358_25">
<rect width="20" height="20" fill="white"/>
</clipPath>
</defs>
</svg>
