<svg width="20" height="20" viewBox="0 0 20 20" fill="none" xmlns="http://www.w3.org/2000/svg">
<g clipPath="url(#clip0_316_49)">
<path d="M10.0002 20.0004C15.4126 20.0004 19.8002 15.6128 19.8002 10.2004C19.8002 4.788 15.4126 0.400391 10.0002 0.400391C4.5878 0.400391 0.200195 4.788 0.200195 10.2004C0.200195 15.6128 4.5878 20.0004 10.0002 20.0004Z" fill="#20C4CB"/>
<path d="M12.5401 11.8395C12.1401 12.2795 11.5801 12.4995 11.3201 12.4995C11.0201 12.4995 10.8601 12.3195 10.8201 12.0395C10.8001 11.9395 10.8201 11.8195 10.8401 11.7195C10.9401 11.0995 11.1601 10.6995 11.1601 10.5995C11.1601 10.5595 11.1401 10.5395 11.1201 10.5395C10.9201 10.5395 10.2401 11.2395 10.1401 11.6995L10.0601 12.0795C10.0001 12.3395 9.76015 12.4995 9.58015 12.4995C9.50015 12.4995 9.44015 12.4595 9.42015 12.3595C9.42015 12.3195 9.42015 12.2795 9.42015 12.2395L9.46015 12.0395C9.10015 12.3195 8.70015 12.4995 8.52015 12.4995C8.26015 12.4995 8.12015 12.3595 8.08015 12.1595C7.92015 12.3795 7.70015 12.4995 7.46015 12.4995C7.16015 12.4995 6.88015 12.2995 6.74015 11.9995C6.54015 12.2195 6.30015 12.4395 6.02015 12.6195C5.60015 12.8795 5.14015 13.0995 4.60015 13.0995C4.10015 13.0995 3.66015 12.8395 3.44015 12.6195C3.08015 12.2995 2.90015 11.7995 2.84015 11.3595C2.66015 9.95953 3.52015 8.09953 4.86015 7.29953C5.16015 7.11953 5.50015 7.01953 5.82015 7.01953C6.46015 7.01953 6.94015 7.47953 7.00015 8.01953C7.06015 8.51953 6.86015 8.93953 6.32015 9.19953C6.04015 9.33953 5.90015 9.33953 5.86015 9.25953C5.84015 9.21953 5.84015 9.13953 5.90015 9.09953C6.42015 8.67953 6.42015 8.31953 6.36015 7.81953C6.32015 7.49953 6.12015 7.29953 5.88015 7.29953C4.84015 7.29953 3.40015 9.55953 3.60015 11.1995C3.68015 11.8395 4.08015 12.5795 4.88015 12.5795C5.14015 12.5795 5.44015 12.4995 5.68015 12.3795C6.12015 12.1595 6.38015 11.9795 6.62015 11.6795C6.56015 10.9195 7.22015 9.95953 8.18015 9.95953C8.60015 9.95953 8.94015 10.1195 8.98015 10.4595C9.04015 10.8795 8.68015 10.9595 8.54015 10.9595C8.42015 10.9595 8.24015 10.9195 8.22015 10.8195C8.20015 10.6995 8.48015 10.7595 8.44015 10.4995C8.42015 10.3395 8.24015 10.2795 8.08015 10.2795C7.48015 10.2795 7.14015 11.1195 7.20015 11.6395C7.22015 11.8795 7.36015 12.1195 7.56015 12.1195C7.74015 12.1195 8.00015 11.8595 8.08015 11.4995C8.14015 11.2395 8.38015 11.0795 8.56015 11.0795C8.66015 11.0795 8.72015 11.1195 8.72015 11.2195C8.72015 11.2595 8.72015 11.2995 8.72015 11.3395C8.70015 11.4395 8.62015 11.8195 8.62015 11.8795C8.62015 11.9395 8.66015 12.0395 8.78015 12.0395C8.88015 12.0395 9.20015 11.8595 9.52015 11.5795C9.62015 11.0795 9.74015 10.4595 9.74015 10.4195C9.78015 10.2195 9.86015 9.99953 10.2601 9.99953C10.3401 9.99953 10.4001 10.0395 10.4201 10.1395C10.4201 10.1795 10.4201 10.2195 10.4201 10.2595L10.3201 10.7995C10.6801 10.3195 11.2401 9.95953 11.5801 9.95953C11.7201 9.95953 11.8401 10.0395 11.8601 10.1795C11.8801 10.2595 11.8401 10.3995 11.8001 10.5595C11.6801 10.8795 11.5401 11.3795 11.4601 11.7995C11.4401 11.8995 11.4801 12.0195 11.6401 12.0195C11.7801 12.0195 12.2001 11.8595 12.5401 11.3995C12.5401 11.3395 12.5401 11.2795 12.5401 11.1995C12.5401 10.8395 12.5601 10.5595 12.6401 10.3395C12.7001 10.1195 12.9801 9.91953 13.1601 9.91953C13.2601 9.91953 13.3201 9.97953 13.3201 10.0795C13.3201 10.1195 13.3201 10.1595 13.3001 10.1995C13.1801 10.5795 13.1001 10.9195 13.1001 11.2595C13.1001 11.4595 13.1401 11.7595 13.1801 11.9195C13.1801 11.9595 13.2001 11.9795 13.2401 11.9795C13.3001 11.9795 13.7001 11.5995 13.9801 11.1195C13.7201 10.9595 13.5801 10.6595 13.5801 10.2995C13.5801 9.69953 13.9401 9.37953 14.3001 9.37953C14.5801 9.37953 14.8201 9.57953 14.8201 9.97953C14.8201 10.2395 14.7201 10.5195 14.5801 10.7995C14.5801 10.7995 14.6401 10.7995 14.6601 10.7995C14.8801 10.7995 15.0401 10.6995 15.1401 10.5795C15.1801 10.5395 15.2201 10.4995 15.2601 10.4795C15.5401 10.1395 15.9601 9.89953 16.4401 9.89953C16.8601 9.89953 17.2001 10.0595 17.2401 10.3995C17.3001 10.8195 16.9201 10.9195 16.8001 10.9195C16.6801 10.9195 16.4801 10.8795 16.4801 10.7795C16.4601 10.6795 16.7401 10.7195 16.7201 10.4595C16.7001 10.2995 16.5201 10.2195 16.3601 10.2195C15.8001 10.2195 15.4201 10.9595 15.4801 11.5795C15.5001 11.8195 15.6201 12.0595 15.8401 12.0595C16.0201 12.0595 16.2801 11.7995 16.3801 11.4395C16.4401 11.1995 16.6801 11.0195 16.8601 11.0195C16.9401 11.0195 17.0201 11.0595 17.0201 11.1595C17.0201 11.2195 17.0001 11.3195 16.9201 11.7195C16.8801 11.8795 16.8801 12.0395 16.8801 12.1395C16.9201 12.3795 17.0201 12.5395 17.1201 12.6395C17.1601 12.6795 17.1801 12.7195 17.1801 12.7395C17.1801 12.7995 17.1401 12.8595 17.0601 12.8595C17.0401 12.8595 17.0001 12.8595 16.9801 12.8395C16.5401 12.6595 16.3601 12.3595 16.3201 12.0995C16.1601 12.3195 15.9401 12.4195 15.7001 12.4195C15.3201 12.4195 14.9401 12.0795 14.8801 11.6395C14.8601 11.4595 14.8801 11.2595 14.9401 11.0795C14.7801 11.1795 14.6201 11.2395 14.4601 11.2395C14.4001 11.2395 14.3601 11.2395 14.3201 11.2395C13.9401 11.7795 13.5401 12.1595 13.2401 12.3395C13.1201 12.3995 13.0001 12.4395 12.9201 12.4395C12.8601 12.4395 12.7801 12.4195 12.7401 12.3595C12.6201 12.2795 12.5601 12.0795 12.5401 11.8395ZM13.9001 10.0395C13.9001 10.2795 14.0201 10.5195 14.1601 10.6795C14.2201 10.5195 14.2601 10.3595 14.2601 10.1995C14.2601 9.89953 14.1401 9.75953 14.0601 9.75953C13.9401 9.75953 13.9001 9.91953 13.9001 10.0395Z" fill="white"/>
</g>
<defs>
<clipPath id="clip0_316_49">
<rect width="20" height="20" fill="white"/>
</clipPath>
</defs>
</svg>
