<svg
                    xmlns="http://www.w3.org/2000/svg"
                    viewBox="0 0 138 160"
                    fill="none"
                    className='w-[20px] h-[20px]'
                >
                    <g clipPath="url(#clip0_38_2)">
                        <path
                            d="M134.271 80.556C111.903 80.995 116.562 95.155 100.798 98.736C84.784 102.374 82.256 59.625 66.246 59.625C50.234 59.625 46.687 101.151 26.638 129.659L26.066 130.466L69.051 155.279L134.271 117.628V80.556Z"
                            fill="#36A2EB"
                        />
                        <path
                            d="M134.271 79.2674C126.783 69.6574 121.704 58.6094 110.777 58.6094C91.44 58.6094 96.528 90.1544 75.157 90.1544C53.784 90.1544 51.537 56.2234 27.325 88.1194C19.61 98.2824 13.4 109.614 8.52197 120.337L69.051 155.28L134.271 117.629V79.2674Z"
                            fill="#FFCE56"
                        />
                        <path
                            opacity="0.8"
                            d="M3.82898 92.3337C11.167 72.0127 14.334 55.5547 28.343 55.5547C49.714 55.5547 54.801 115.594 73.122 109.486C91.44 103.381 89.404 70.8167 117.901 70.8167C123.325 70.8167 128.863 74.1397 134.272 79.5147V117.628L69.052 155.279L3.82998 117.628V92.3337H3.82898Z"
                            fill="#FE6184"
                        />
                        <path
                            d="M69 160L-0.291992 120.001V40L69 0L138.292 40V120L69 160ZM7.84901 115.301L69 150.602L130.151 115.301V44.7L69 9.399L7.84901 44.7V115.301Z"
                            fill="#E7E9ED"
                        />
                    </g>
                    <defs>
                        <clipPath id="clip0_38_2">
                            <rect width="138" height="160" fill="white" />
                        </clipPath>
                    </defs>
                </svg>