<svg width="20" height="20" viewBox="0 0 20 20" fill="none" xmlns="http://www.w3.org/2000/svg">
<path d="M2.93959 17.8314L1.36865 0.210938H18.6312L17.0587 17.8287L9.98943 19.7886L2.93959 17.8314Z" fill="#1572B6"/>
<path d="M10 18.2914L15.7123 16.7077L17.0563 1.65234H10V18.2914Z" fill="#33A9DC"/>
<path d="M10 8.03617H12.8597L13.0572 5.8232H10V3.66211H15.4191L15.3672 4.24195L14.8359 10.1973H10V8.03617Z" fill="white"/>
<path d="M10.0131 13.648L10.0036 13.6508L7.59689 13.0009L7.44299 11.2773H5.27393L5.57658 14.6706L10.0033 15.8992L10.0131 15.8964V13.648Z" fill="#EBEBEB"/>
<path d="M12.676 10.1055L12.4157 12.9995L10.0054 13.6502V15.8986L14.4357 14.6708L14.4682 14.3056L14.8441 10.1055H12.676Z" fill="white"/>
<path d="M10.0077 3.66211V5.8232H4.78768L4.74439 5.33758L4.64596 4.24195L4.59424 3.66211H10.0077ZM10.0003 8.03648V10.1976H7.62393L7.58064 9.71195L7.48205 8.61633L7.43049 8.03648H10.0003Z" fill="#EBEBEB"/>
</svg>
