<svg width="20" height="20" viewBox="0 0 20 20" fill="none" xmlns="http://www.w3.org/2000/svg">
<g clip-path="url(#clip0_623_14)">
<rect width="20" height="20" fill="white"/>
<path d="M9.90578 0C10.0058 0 10.0879 0.07125 10.0879 0.159375V10C10.0879 10.0209 10.0832 10.0417 10.0741 10.061C10.0649 10.0803 10.0515 10.0979 10.0346 10.1127C10.0177 10.1275 9.99758 10.1392 9.97548 10.1472C9.95338 10.1553 9.9297 10.1594 9.90578 10.1594C9.88186 10.1594 9.85817 10.1553 9.83607 10.1472C9.81397 10.1392 9.79389 10.1275 9.77698 10.1127C9.76007 10.0979 9.74665 10.0803 9.7375 10.061C9.72834 10.0417 9.72363 10.0209 9.72363 10V0.159375C9.72363 0.07125 9.80506 0 9.90578 0Z" fill="black"/>
<path d="M9.81413 9.86217C9.84182 9.84818 9.87323 9.84082 9.9052 9.84082C9.93718 9.84082 9.96858 9.84818 9.99627 9.86217L19.7948 14.7828C19.8224 14.7968 19.8453 14.8169 19.8612 14.8411C19.8771 14.8653 19.8855 14.8927 19.8855 14.9206C19.8855 14.9485 19.8771 14.9759 19.8612 15.0001C19.8453 15.0243 19.8224 15.0444 19.7948 15.0584L10.072 19.9784C10.0443 19.9924 10.0129 19.9998 9.98092 19.9998C9.94894 19.9998 9.91753 19.9924 9.88985 19.9784L0.091274 15.059C0.06353 15.0451 0.040485 15.0249 0.024461 15.0007C0.00843702 14.9764 0 14.9489 0 14.9209C0 14.8929 0.00843702 14.8654 0.024461 14.8411C0.040485 14.8169 0.06353 14.7968 0.091274 14.7828L9.81413 9.86217ZM9.90556 10.184L0.546274 14.9203L9.98056 19.6565L19.3398 14.9215L9.90556 10.184Z" fill="black"/>
<path d="M9.9058 14.9213C10.6443 14.9213 11.3756 14.7941 12.0578 14.5468C12.7401 14.2995 13.3601 13.937 13.8823 13.4801C14.4045 13.0232 14.8187 12.4807 15.1013 11.8837C15.3839 11.2867 15.5294 10.6469 15.5294 10.0007C15.5294 9.35452 15.3839 8.71466 15.1013 8.11766C14.8187 7.52066 14.4045 6.97822 13.8823 6.5213C13.3601 6.06437 12.7401 5.70192 12.0578 5.45464C11.3756 5.20735 10.6443 5.08008 9.9058 5.08008C8.41433 5.08008 6.98396 5.5985 5.92933 6.5213C4.87471 7.44409 4.28223 8.69567 4.28223 10.0007C4.28223 11.3057 4.87471 12.5573 5.92933 13.4801C6.98396 14.4029 8.41433 14.9213 9.9058 14.9213Z" fill="white"/>
<path d="M9.90532 5.2393C9.19074 5.2393 8.48316 5.36245 7.82298 5.60173C7.16279 5.841 6.56294 6.19171 6.05765 6.63383C5.55237 7.07596 5.15156 7.60083 4.8781 8.17849C4.60464 8.75616 4.4639 9.37529 4.4639 10.0005C4.4639 10.6258 4.60464 11.2449 4.8781 11.8226C5.15156 12.4003 5.55237 12.9251 6.05765 13.3673C6.56294 13.8094 7.16279 14.1601 7.82298 14.3994C8.48316 14.6386 9.19074 14.7618 9.90532 14.7618C11.3485 14.7618 12.7325 14.2602 13.753 13.3673C14.7735 12.4744 15.3468 11.2633 15.3468 10.0005C15.3468 8.73778 14.7735 7.52674 13.753 6.63383C12.7325 5.74093 11.3485 5.2393 9.90532 5.2393ZM4.09961 9.99992C4.09961 8.65262 4.71128 7.3605 5.80006 6.40782C6.88885 5.45513 8.36555 4.91992 9.90532 4.91992C11.4451 4.91992 12.9218 5.45513 14.0106 6.40782C15.0994 7.3605 15.711 8.65262 15.711 9.99992C15.711 11.3472 15.0994 12.6393 14.0106 13.592C12.9218 14.5447 11.4451 15.0799 9.90532 15.0799C8.36555 15.0799 6.88885 14.5447 5.80006 13.592C4.71128 12.6393 4.09961 11.3472 4.09961 9.99992Z" fill="black"/>
<path d="M0.0907227 4.94225C0.118412 4.92826 0.149821 4.9209 0.181794 4.9209C0.213767 4.9209 0.245176 4.92826 0.272866 4.94225L9.99644 9.86287C10.0536 9.89162 10.0879 9.94412 10.0879 10.0004V19.841C10.0878 19.869 10.0793 19.8964 10.0633 19.9206C10.0472 19.9448 10.0242 19.9649 9.99645 19.9789C9.96872 19.9928 9.93729 20.0001 9.90532 20C9.87334 20 9.84195 19.9925 9.81429 19.9785L0.0907227 15.0604C0.0628717 15.0462 0.0398032 15.0259 0.0238677 15.0014C0.00793224 14.9769 -0.00030051 14.9492 8.38286e-06 14.921V5.08038C8.38286e-06 5.0235 0.0350084 4.97038 0.0907227 4.94225ZM0.36358 5.356V14.8297L9.72358 19.5654V10.0929L0.36358 5.356Z" fill="black"/>
<path d="M19.795 4.9419C19.8521 4.97065 19.8864 5.02315 19.8864 5.0794V14.9213C19.8864 14.9775 19.8514 15.0306 19.7957 15.0588L10.0714 19.9788C10.0438 19.9928 10.0124 20.0002 9.9804 20.0003C9.94843 20.0004 9.917 19.9931 9.88927 19.9791C9.86154 19.9652 9.8385 19.9451 9.82245 19.9209C9.8064 19.8967 9.79792 19.8693 9.79785 19.8413V10C9.79785 9.94315 9.83285 9.89065 9.88928 9.86252L19.6129 4.94127C19.6405 4.92729 19.672 4.91992 19.7039 4.91992C19.7359 4.91992 19.7673 4.92791 19.795 4.9419ZM10.1629 10.0919V19.565L19.5221 14.8294V5.35565L10.1629 10.0925V10.0919Z" fill="black"/>
<path d="M9.81413 0.0213522C9.84182 0.00736412 9.87323 0 9.9052 0C9.93718 0 9.96858 0.00736412 9.99627 0.0213522L19.7948 4.94198C19.8224 4.95599 19.8453 4.9761 19.8612 5.00028C19.8771 5.02447 19.8855 5.05188 19.8855 5.07979C19.8855 5.10769 19.8771 5.13511 19.8612 5.1593C19.8453 5.18348 19.8224 5.20359 19.7948 5.2176L10.072 10.1382C10.0443 10.1522 10.0129 10.1596 9.98092 10.1596C9.94894 10.1596 9.91753 10.1522 9.88985 10.1382L0.091274 5.21885C0.06353 5.20488 0.040485 5.18475 0.024461 5.1605C0.00843702 5.13625 0 5.10874 0 5.08073C0 5.05272 0.00843702 5.0252 0.024461 5.00095C0.040485 4.9767 0.06353 4.95658 0.091274 4.9426L9.81413 0.0213522ZM9.90556 0.343227L0.546274 5.07948L9.98056 9.81698L19.3398 5.08073L9.90556 0.343227Z" fill="black"/>
<path d="M14.7426 7.49414C14.4171 9.17795 13.4209 10.7065 11.9304 11.809C10.4399 12.9115 8.55147 13.5167 6.59979 13.5173C6.3807 13.5166 6.16172 13.5085 5.94336 13.4929C6.91432 14.3352 8.20271 14.8391 9.56754 14.9104C10.9324 14.9816 12.2801 14.6154 13.3587 13.8802C14.4372 13.1449 15.1728 12.0911 15.4276 10.9157C15.6825 9.74031 15.4392 8.52395 14.7434 7.49414H14.7426Z" fill="black"/>
</g>
<defs>
<clipPath id="clip0_623_14">
<rect width="20" height="20" fill="white"/>
</clipPath>
</defs>
</svg>
