<svg width="23" height="25" viewBox="0 0 23 25" fill="none" xmlns="http://www.w3.org/2000/svg">
<g clipPath="url(#clip0_623_14)">
<rect width="23" height="25" fill="white"/>
<path d="M11.3911 0C11.5061 0 11.6006 0.0890625 11.6006 0.199219V12.5C11.6006 12.5262 11.5952 12.5521 11.5846 12.5762C11.5741 12.6004 11.5587 12.6224 11.5392 12.6409C11.5198 12.6594 11.4967 12.674 11.4713 12.6841C11.4459 12.6941 11.4186 12.6992 11.3911 12.6992C11.3636 12.6992 11.3364 12.6941 11.3109 12.6841C11.2855 12.674 11.2624 12.6594 11.243 12.6409C11.2235 12.6224 11.2081 12.6004 11.1976 12.5762C11.1871 12.5521 11.1816 12.5262 11.1816 12.5V0.199219C11.1816 0.0890625 11.2753 0 11.3911 0Z" fill="black"/>
<path d="M11.2863 12.3284C11.3181 12.311 11.3542 12.3018 11.391 12.3018C11.4278 12.3018 11.4639 12.311 11.4957 12.3284L22.7641 18.4792C22.7958 18.4967 22.8221 18.5219 22.8404 18.5521C22.8587 18.5823 22.8683 18.6166 22.8683 18.6515C22.8683 18.6864 22.8587 18.7206 22.8404 18.7509C22.8221 18.7811 22.7958 18.8062 22.7641 18.8238L11.5828 24.9738C11.5509 24.9912 11.5148 25.0005 11.4781 25.0005C11.4413 25.0005 11.4052 24.9912 11.3733 24.9738L0.104965 18.8245C0.0730594 18.8071 0.0465578 18.7819 0.0281302 18.7516C0.00970257 18.7213 0 18.6869 0 18.6519C0 18.6169 0.00970257 18.5825 0.0281302 18.5522C0.0465578 18.5219 0.0730594 18.4967 0.104965 18.4792L11.2863 12.3284ZM11.3914 12.7308L0.628215 18.6511L11.4776 24.5714L22.2408 18.6527L11.3914 12.7308Z" fill="black"/>
<path d="M11.3919 18.6512C12.2412 18.6512 13.0821 18.4921 13.8668 18.183C14.6514 17.8739 15.3643 17.4208 15.9648 16.8497C16.5654 16.2785 17.0417 15.6004 17.3667 14.8542C17.6917 14.1079 17.859 13.3081 17.859 12.5004C17.859 11.6927 17.6917 10.8928 17.3667 10.1466C17.0417 9.40034 16.5654 8.72228 15.9648 8.15113C15.3643 7.57998 14.6514 7.12692 13.8668 6.81781C13.0821 6.5087 12.2412 6.34961 11.3919 6.34961C9.67673 6.34961 8.03179 6.99764 6.81898 8.15113C5.60616 9.30463 4.9248 10.8691 4.9248 12.5004C4.9248 14.1317 5.60616 15.6962 6.81898 16.8497C8.03179 18.0031 9.67673 18.6512 11.3919 18.6512Z" fill="white"/>
<path d="M11.3914 6.54961C10.5696 6.54961 9.75593 6.70355 8.99672 7.00265C8.23751 7.30174 7.54767 7.74013 6.96659 8.29278C6.38552 8.84544 5.92458 9.50153 5.61011 10.2236C5.29563 10.9457 5.13377 11.7196 5.13377 12.5012C5.13377 13.2827 5.29563 14.0567 5.61011 14.7787C5.92458 15.5008 6.38552 16.1569 6.96659 16.7096C7.54767 17.2622 8.23751 17.7006 8.99672 17.9997C9.75593 18.2988 10.5696 18.4527 11.3914 18.4527C13.051 18.4527 14.6427 17.8257 15.8162 16.7096C16.9898 15.5934 17.6491 14.0796 17.6491 12.5012C17.6491 10.9227 16.9898 9.40892 15.8162 8.29278C14.6427 7.17665 13.051 6.54961 11.3914 6.54961ZM4.71484 12.5004C4.71484 10.8163 5.41827 9.20112 6.67037 8.01026C7.92247 6.81941 9.62068 6.15039 11.3914 6.15039C13.1622 6.15039 14.8604 6.81941 16.1125 8.01026C17.3646 9.20112 18.068 10.8163 18.068 12.5004C18.068 14.1845 17.3646 15.7997 16.1125 16.9905C14.8604 18.1814 13.1622 18.8504 11.3914 18.8504C9.62068 18.8504 7.92247 18.1814 6.67037 16.9905C5.41827 15.7997 4.71484 14.1845 4.71484 12.5004Z" fill="black"/>
<path d="M0.104331 6.17708C0.136174 6.1596 0.172295 6.15039 0.209063 6.15039C0.245832 6.15039 0.281953 6.1596 0.313795 6.17708L11.4959 12.3279C11.5616 12.3638 11.601 12.4294 11.601 12.4997V24.8005C11.601 24.8355 11.5912 24.8698 11.5728 24.9001C11.5543 24.9303 11.5278 24.9554 11.4959 24.9728C11.464 24.9903 11.4279 24.9994 11.3911 24.9993C11.3543 24.9992 11.3182 24.9899 11.2864 24.9724L0.104331 18.8247C0.0723025 18.8071 0.0457737 18.7816 0.0274479 18.751C0.00912207 18.7204 -0.000345586 18.6857 9.64028e-06 18.6505V6.34974C9.64028e-06 6.27864 0.0402596 6.21224 0.104331 6.17708ZM0.418117 6.69427V18.5365L11.1821 24.456V12.6154L0.418117 6.69427Z" fill="black"/>
<path d="M22.7643 6.17689C22.83 6.21282 22.8694 6.27845 22.8694 6.34876V18.6511C22.8694 18.7214 22.8292 18.7878 22.7651 18.823L11.5822 24.973C11.5504 24.9905 11.5143 24.9998 11.4775 24.9999C11.4407 25 11.4046 24.9908 11.3727 24.9734C11.3408 24.956 11.3143 24.9309 11.2959 24.9007C11.2774 24.8704 11.2677 24.8361 11.2676 24.8011V12.4995C11.2676 12.4284 11.3078 12.3628 11.3727 12.3277L22.5548 6.1761C22.5867 6.15862 22.6228 6.14941 22.6596 6.14941C22.6963 6.14941 22.7324 6.1594 22.7643 6.17689ZM11.6873 12.6144V24.4558L22.4505 18.5363V6.69407L11.6873 12.6152V12.6144Z" fill="black"/>
<path d="M11.2863 0.0266903C11.3181 0.00920516 11.3542 0 11.391 0C11.4278 0 11.4639 0.00920516 11.4957 0.0266903L22.7641 6.17747C22.7958 6.19499 22.8221 6.22012 22.8404 6.25035C22.8587 6.28059 22.8683 6.31486 22.8683 6.34974C22.8683 6.38462 22.8587 6.41889 22.8404 6.44912C22.8221 6.47935 22.7958 6.50448 22.7641 6.522L11.5828 12.6728C11.5509 12.6903 11.5148 12.6995 11.4781 12.6995C11.4413 12.6995 11.4052 12.6903 11.3733 12.6728L0.104965 6.52357C0.0730594 6.5061 0.0465578 6.48094 0.0281302 6.45063C0.00970257 6.42032 0 6.38592 0 6.35091C0 6.31589 0.00970257 6.2815 0.0281302 6.25119C0.0465578 6.22088 0.0730594 6.19572 0.104965 6.17825L11.2863 0.0266903ZM11.3914 0.429034L0.628215 6.34935L11.4776 12.2712L22.2408 6.35091L11.3914 0.429034Z" fill="black"/>
<path d="M16.9541 9.36719C16.5798 11.4719 15.4341 13.3827 13.72 14.7608C12.006 16.1389 9.83429 16.8954 7.58985 16.8961C7.3379 16.8953 7.08608 16.8851 6.83496 16.8656C7.95157 17.9185 9.43322 18.5484 11.0028 18.6375C12.5723 18.7266 14.1222 18.2688 15.3626 17.3497C16.6029 16.4307 17.4488 15.1133 17.7419 13.6441C18.0349 12.1749 17.7552 10.6544 16.955 9.36719H16.9541Z" fill="black"/>
</g>
<defs>
<clipPath id="clip0_623_14">
<rect width="23" height="25" fill="white"/>
</clipPath>
</defs>
</svg>
