<svg width="20" height="20" viewBox="0 0 20 20" fill="none" xmlns="http://www.w3.org/2000/svg">
<path d="M9.05277 0.977592C9.59656 0.704701 10.3048 0.703468 10.8482 0.977592C13.5816 2.33171 16.3158 3.6837 19.0487 5.03864C19.5627 5.29249 19.9066 5.79404 19.9013 6.31332V14.4602C19.9052 15.001 19.5274 15.5145 18.9851 15.7626C16.2607 17.1093 13.5377 18.4576 10.8137 19.8042C10.2587 20.0824 9.53618 20.061 8.99849 19.76C8.18171 19.3448 7.36353 18.9318 6.54668 18.5171C6.37977 18.4298 6.1916 18.3604 6.07374 18.2185C6.17793 18.0954 6.36422 18.08 6.5156 18.0263C6.85654 17.9312 7.16967 17.7786 7.48288 17.6306C7.56208 17.5831 7.65878 17.6013 7.7347 17.6438C8.43314 17.9949 9.12541 18.3562 9.8262 18.7039C9.9757 18.7796 10.1271 18.6792 10.2549 18.6167C12.9283 17.292 15.6051 15.9722 18.2781 14.6471C18.3771 14.6053 18.4319 14.5131 18.4239 14.418C18.4257 11.7305 18.4243 9.04257 18.4248 6.35509C18.4361 6.24717 18.3649 6.14794 18.2536 6.10377C15.5386 4.76328 12.8251 3.42074 10.1106 2.07991C10.0636 2.05156 10.0078 2.03635 9.95078 2.03628C9.8937 2.0362 9.83794 2.05127 9.79082 2.0795C7.07633 3.42074 4.36325 4.76451 1.64877 6.10493C1.53786 6.14917 1.46342 6.24675 1.47662 6.35509C1.47709 9.04257 1.47662 11.7305 1.47662 14.4184C1.47191 14.4648 1.48354 14.5114 1.50993 14.5518C1.53633 14.5923 1.57622 14.6247 1.62424 14.6446C2.34862 15.0047 3.07393 15.3623 3.79877 15.7212C4.20712 15.914 4.70849 16.0284 5.15839 15.8808C5.55541 15.756 5.83371 15.4008 5.82614 15.0312C5.82989 12.3594 5.82426 9.68717 5.82895 7.01578C5.81903 6.89717 5.94736 6.79918 6.07889 6.81034C6.42694 6.80829 6.77546 6.80623 7.12351 6.81116C7.26879 6.80829 7.36877 6.936 7.3508 7.0555C7.3494 9.74421 7.35455 12.433 7.34846 15.1217C7.3494 15.8383 7.01361 16.618 6.2576 16.9686C5.32625 17.3916 4.17509 17.3019 3.25498 16.8963C2.45844 16.5477 1.69829 16.1364 0.915883 15.763C0.372173 15.5162 -0.00376006 15.0006 6.72275e-05 14.4603V6.31332C-0.00563465 5.78328 0.351865 5.27263 0.881906 5.02248C3.60584 3.67473 6.32931 2.32596 9.05277 0.977592Z" fill="#8CC84B"/>
<path d="M11.4294 6.62128C12.6174 6.55424 13.8892 6.58156 14.9583 7.09468C15.786 7.48789 16.2449 8.31314 16.2595 9.11935C16.2364 9.22809 16.1067 9.28808 15.9883 9.28062C15.6436 9.28021 15.2989 9.28473 14.9542 9.27856C14.8079 9.28349 14.723 9.1653 14.7046 9.05196C14.6056 8.66622 14.3656 8.28417 13.9515 8.09811C13.3158 7.81906 12.5787 7.8331 11.8855 7.83892C11.3794 7.86247 10.8352 7.90089 10.4065 8.1618C10.0773 8.35943 9.97736 8.75839 10.0948 9.0797C10.2056 9.31041 10.5094 9.38484 10.7579 9.45346C12.1896 9.78175 13.7068 9.74909 15.1112 10.1811C15.6926 10.3573 16.2614 10.6997 16.4604 11.2334C16.7207 11.9487 16.6066 12.8038 16.0261 13.378C15.5554 13.8506 14.8697 14.1078 14.1859 14.2475C13.2762 14.4254 12.3321 14.4299 11.4082 14.3509C10.5395 14.2641 9.63548 14.064 8.96485 13.545C8.39138 13.1085 8.11129 12.4283 8.13909 11.7718C8.14573 11.6609 8.27164 11.5836 8.39279 11.5927C8.7399 11.5902 9.08701 11.5894 9.43412 11.5931C9.57276 11.5844 9.67555 11.6895 9.68266 11.804C9.74671 12.1716 9.90425 12.5573 10.2698 12.7752C10.9753 13.1742 11.8605 13.1469 12.6683 13.1581C13.3375 13.132 14.0887 13.1242 14.6349 12.7364C14.923 12.5152 15.0084 12.1451 14.9305 11.8268C14.8461 11.558 14.5254 11.4327 14.25 11.3508C12.8367 10.9588 11.3025 11.1011 9.90285 10.6578C9.33461 10.4817 8.78512 10.1489 8.56681 9.63705C8.26219 8.91268 8.40177 8.01669 9.04311 7.4618C9.66844 6.90985 10.5711 6.69736 11.4294 6.62128Z" fill="#8CC84B"/>
</svg>
