<svg width="20" height="20" viewBox="0 0 20 20" fill="none" xmlns="http://www.w3.org/2000/svg">
<path d="M6.66683 19.9997C8.50683 19.9997 10.0002 18.5063 10.0002 16.6663V13.333H6.66683C4.82683 13.333 3.3335 14.8263 3.3335 16.6663C3.3335 18.5063 4.82683 19.9997 6.66683 19.9997Z" fill="#0ACF83"/>
<path d="M3.3335 10.0003C3.3335 8.16033 4.82683 6.66699 6.66683 6.66699H10.0002V13.3337H6.66683C4.82683 13.3337 3.3335 11.8403 3.3335 10.0003Z" fill="#A259FF"/>
<path d="M3.3335 3.33333C3.3335 1.49333 4.82683 0 6.66683 0H10.0002V6.66667H6.66683C4.82683 6.66667 3.3335 5.17333 3.3335 3.33333Z" fill="#F24E1E"/>
<path d="M10 0H13.3333C15.1733 0 16.6667 1.49333 16.6667 3.33333C16.6667 5.17333 15.1733 6.66667 13.3333 6.66667H10V0Z" fill="#FF7262"/>
<path d="M16.6667 10.0003C16.6667 11.8403 15.1733 13.3337 13.3333 13.3337C11.4933 13.3337 10 11.8403 10 10.0003C10 8.16033 11.4933 6.66699 13.3333 6.66699C15.1733 6.66699 16.6667 8.16033 16.6667 10.0003Z" fill="#1ABCFE"/>
</svg>
