<svg width="20" height="21" viewBox="0 0 20 21" fill="none" xmlns="http://www.w3.org/2000/svg">
<path d="M0 3.00293C0 1.34607 1.34315 0.00292969 3 0.00292969H16.9998C18.6567 0.00292969 19.9998 1.34608 19.9998 3.00293V17.0027C19.9998 18.6596 18.6567 20.0027 16.9998 20.0027H3C1.34314 20.0027 0 18.6596 0 17.0027V3.00293Z" fill="#0051CD"/>
<path d="M12.045 0.319336L14.28 1.60461L5.4782 6.66628L3.24316 5.38099L12.045 0.319336Z" fill="white"/>
<path d="M14.3703 1.87402L5.62383 6.90158L5.62354 9.44509L14.37 4.41754L14.3703 1.87402Z" fill="white"/>
<path d="M10.8527 6.83887L5.64188 9.83405L5.6416 12.3778L10.8524 9.38262L10.8527 6.83887Z" fill="white"/>
<path d="M8.85569 10.8594L5.63018 12.7135L5.62988 15.2573L8.85562 13.4031L8.85569 10.8594Z" fill="white"/>
<path d="M3.08436 5.62598L5.33253 6.91819L5.33167 9.4624L3.0835 8.17021L3.08436 5.62598Z" fill="white"/>
<path d="M3.10585 8.54004L5.32675 9.81657L5.32588 12.3608L3.10498 11.0843L3.10585 8.54004Z" fill="white"/>
<path d="M3.10493 11.4375L5.32656 12.7145L5.32564 15.4265L3.104 14.1496L3.10493 11.4375Z" fill="white"/>
<path d="M8.05534 19.6858L5.82031 18.4005L14.5223 13.3965L16.7573 14.6818L8.05534 19.6858Z" fill="white"/>
<path d="M5.64307 18.1806L14.3764 13.1607L14.3767 10.6172L5.64334 15.6371L5.64307 18.1806Z" fill="white"/>
<path d="M9.14697 13.2245L14.3578 10.2293L14.3581 7.68555L9.14727 10.6807L9.14697 13.2245Z" fill="white"/>
<path d="M11.1445 9.20359L14.37 7.34941L14.3703 4.80566L11.1448 6.65984L11.1445 9.20359Z" fill="white"/>
<path d="M16.9161 14.4536L14.668 13.1614L14.6688 10.6172L16.917 11.9094L16.9161 14.4536Z" fill="white"/>
<path d="M16.8947 11.5229L14.6738 10.2464L14.6747 7.70215L16.8956 8.97866L16.8947 11.5229Z" fill="white"/>
<path d="M16.896 8.6269L14.6743 7.34993L14.6752 4.68652L16.8969 5.96347L16.896 8.6269Z" fill="white"/>
</svg>
