<svg width="22" height="22" viewBox="0 0 22 22" fill="none" xmlns="http://www.w3.org/2000/svg">
<circle cx="11" cy="11" r="11" fill="white"/>
<path d="M11 1C5.47731 1 1 5.47731 1 11C1 15.7219 4.27385 19.6769 8.675 20.7254C8.44731 20.6712 8.22154 20.6104 8 20.5412V18.25C8 18.25 7.625 18.375 7.125 18.375C5.72615 18.375 5.145 17.1269 5 16.5C4.91192 16.1181 4.68192 15.7562 4.435 15.535C4.14 15.2719 4.00192 15.2712 4 15.1812C3.99615 14.9923 4.25308 15 4.375 15C5 15 5.47385 15.665 5.69385 16.0088C6.23885 16.8577 6.82385 17 7.125 17C7.5 17 7.82385 16.9438 8.04692 16.8362C8.15 16.11 8.47308 15.4631 9 15C6.655 14.5312 5 13.1862 5 11C5 9.87385 5.45192 8.83885 6.205 8.00308C6.12808 7.785 6 7.34385 6 6.625C6 6.15 6.03308 5.56692 6.25 5C6.25 5 7.67615 5.01 9.02115 6.28385C9.64192 6.10308 10.3062 6 11 6C11.6938 6 12.3581 6.10308 12.9788 6.28385C14.3238 5.01 15.75 5 15.75 5C15.9681 5.56692 16 6.15 16 6.625C16 7.4 15.8969 7.85192 15.8338 8.04692C16.5638 8.875 17 9.89385 17 11C17 13.1862 15.345 14.5312 13 15C13.6262 15.55 14 16.3512 14 17.25V20.5412C13.7785 20.6108 13.5531 20.6712 13.325 20.7254C17.7262 19.6769 21 15.7219 21 11C21 5.47731 16.5227 1 11 1ZM11.6973 20.9731C11.4669 20.9892 11.2346 21 11 21C11.2346 21 11.4665 20.9888 11.6973 20.9731ZM11 21C10.7654 21 10.5331 20.9892 10.3027 20.9731C10.5335 20.9888 10.7654 21 11 21ZM10.1492 20.9615C9.68115 20.9219 9.22192 20.8504 8.77462 20.7485C9.22231 20.85 9.68115 20.9219 10.1492 20.9615Z" fill="black"/>
</svg>
