<svg width="20" height="20" viewBox="0 0 20 20" fill="none" xmlns="http://www.w3.org/2000/svg">
<circle cx="10" cy="10" r="10" fill="white"/>
<path d="M10.0001 0.90918C4.97946 0.90918 0.90918 4.97946 0.90918 10.0001C0.90918 14.2927 3.8854 17.8882 7.88645 18.8413C7.67946 18.792 7.47421 18.7368 7.27282 18.6739V16.591C7.27282 16.591 6.93191 16.7046 6.47736 16.7046C5.20568 16.7046 4.67736 15.57 4.54554 15.0001C4.46547 14.6529 4.25638 14.3239 4.03191 14.1228C3.76373 13.8837 3.6382 13.883 3.63645 13.8011C3.63296 13.6295 3.86652 13.6365 3.97736 13.6365C4.54554 13.6365 4.97631 14.241 5.17631 14.5536C5.67177 15.3253 6.20359 15.4546 6.47736 15.4546C6.81827 15.4546 7.11268 15.4036 7.31547 15.3057C7.40918 14.6455 7.70289 14.0574 8.18191 13.6365C6.05009 13.2102 4.54554 11.9875 4.54554 10.0001C4.54554 8.97631 4.95638 8.0354 5.641 7.27561C5.57107 7.07736 5.45463 6.67631 5.45463 6.02282C5.45463 5.591 5.4847 5.06093 5.68191 4.54554C5.68191 4.54554 6.97841 4.55463 8.20114 5.71268C8.76547 5.54834 9.36932 5.45463 10.0001 5.45463C10.6309 5.45463 11.2347 5.54834 11.799 5.71268C13.0218 4.55463 14.3183 4.54554 14.3183 4.54554C14.5165 5.06093 14.5455 5.591 14.5455 6.02282C14.5455 6.72736 14.4518 7.1382 14.3945 7.31547C15.0581 8.06827 15.4546 8.99449 15.4546 10.0001C15.4546 11.9875 13.9501 13.2102 11.8183 13.6365C12.3875 14.1365 12.7274 14.8648 12.7274 15.6819V18.6739C12.526 18.7372 12.3211 18.792 12.1137 18.8413C16.1148 17.8882 19.091 14.2927 19.091 10.0001C19.091 4.97946 15.0207 0.90918 10.0001 0.90918ZM10.634 19.0665C10.4246 19.0812 10.2134 19.091 10.0001 19.091C10.2134 19.091 10.4242 19.0809 10.634 19.0665ZM10.0001 19.091C9.7868 19.091 9.57561 19.0812 9.36617 19.0665C9.57596 19.0809 9.7868 19.091 10.0001 19.091ZM9.22666 19.056C8.80114 19.02 8.38366 18.955 7.97701 18.8623C8.38401 18.9546 8.80114 19.02 9.22666 19.056Z" fill="black"/>
</svg>
