<svg width="20" height="20" viewBox="0 0 20 20" fill="none" xmlns="http://www.w3.org/2000/svg">
<path d="M2.77344 17.9688L1.17188 0H18.7891L17.1875 17.9688L9.96094 20" fill="#E34F26"/>
<path d="M10 18.4375L15.8203 16.8359L17.1875 1.44531H10" fill="#EF652A"/>
<path d="M10 8.125H7.07031L6.875 5.85938H10V3.67188H4.45312L5.03906 10.3516H10V8.125ZM9.96094 13.8672L7.5 13.2031L7.34375 11.4453H5.15625L5.42969 14.9219L9.96094 16.1719V13.8672Z" fill="#EBEBEB"/>
<path d="M9.96094 8.125V10.3516H12.6953L12.4219 13.2031L9.96094 13.8672V16.1719L14.4922 14.9219L15.1172 8.125H9.96094ZM9.96094 3.67188V5.85938H15.3125L15.5078 3.67188H9.96094Z" fill="white"/>
</svg>
