<svg width="20" height="20" viewBox="0 0 20 20" fill="none" xmlns="http://www.w3.org/2000/svg">
<g clipPath="url(#clip0_316_46)">
<path d="M19.9941 0H0.00585938C0.00262333 0 0 0.00262333 0 0.00585938V19.9941C0 19.9974 0.00262333 20 0.00585938 20H19.9941C19.9974 20 20 19.9974 20 19.9941V0.00585938C20 0.00262333 19.9974 0 19.9941 0Z" fill="#F7DF1E"/>
<path d="M12.6562 14.4531C13.0469 15.1172 13.5938 15.5859 14.4922 15.5859C15.2734 15.5859 15.7812 15.1953 15.7812 14.6484C15.7812 14.0234 15.2734 13.7891 14.4141 13.3984L13.9453 13.2031C12.5781 12.6172 11.6797 11.9141 11.6797 10.3906C11.6797 8.98438 12.7344 7.89062 14.4141 7.89062C15.625 7.89062 16.4844 8.32031 17.0703 9.41406L15.625 10.3516C15.3125 9.76562 14.9609 9.53125 14.4141 9.53125C13.8672 9.53125 13.5156 9.88281 13.5156 10.3516C13.5156 10.8984 13.8672 11.1328 14.6875 11.4844L15.1562 11.6797C16.7578 12.3828 17.6562 13.0469 17.6562 14.6484C17.6562 16.3281 16.3281 17.2656 14.5312 17.2656C12.7734 17.2656 11.6406 16.4453 11.0938 15.3516L12.6562 14.4531ZM6.01562 14.6094C6.32812 15.1172 6.5625 15.5859 7.22656 15.5859C7.85156 15.5859 8.24219 15.3516 8.24219 14.4141V7.92969H10.1172V14.3359C10.1172 16.2891 8.98438 17.1484 7.30469 17.1484C5.78125 17.1484 4.92188 16.3672 4.49219 15.4297L6.01562 14.6094Z" fill="black"/>
</g>
<defs>
<clipPath id="clip0_316_46">
<rect width="20" height="20" fill="white"/>
</clipPath>
</defs>
</svg>
