<svg width="20" height="20" viewBox="0 0 20 20" fill="none" xmlns="http://www.w3.org/2000/svg">
<g clip-path="url(#clip0_553_20)">
<path d="M9.05078 14.0477L10.427 12.6289L11.8026 14.0477V19.8956H9.05078V14.0477Z" fill="#546E7A"/>
<path d="M6.84456 12.6348L8.80488 12.2832L9.07102 14.227L5.57895 18.9582L3.35303 17.3655L6.84456 12.6348Z" fill="#F50057"/>
<path d="M5.90564 10.2139L7.70087 11.0639L6.7559 12.7904L1.10564 14.5972L0.255371 12.0212L5.90564 10.2139Z" fill="#D500F9"/>
<path d="M6.59037 7.71159L7.53535 9.43815L5.74011 10.2882L0.0898438 8.48086L0.940108 5.9043L6.59037 7.71159Z" fill="#29B6F6"/>
<path d="M8.63844 6.08379L8.3723 8.02754L6.41198 7.67598L2.91992 2.94473L5.14638 1.35254L8.63844 6.08379Z" fill="#00E5FF"/>
<path d="M11.267 5.95143L9.8908 7.37018L8.51514 5.95143V0.103516H11.267V5.95143Z" fill="#546E7A"/>
<path d="M13.472 7.36641L11.5122 7.71797L11.2461 5.77422L14.7376 1.04297L16.9641 2.63516L13.472 7.36641Z" fill="#F50057"/>
<path d="M14.4125 9.78568L12.6167 8.93568L13.5617 7.20911L19.2119 5.40234L20.0622 7.97839L14.4125 9.78568Z" fill="#D500F9"/>
<path d="M13.7272 12.288L12.7822 10.5614L14.5775 9.71191L20.2277 11.5187L19.3775 14.0952L13.7272 12.288Z" fill="#29B6F6"/>
<path d="M11.6792 13.9154L11.9459 11.9717L13.9057 12.3232L17.3977 17.0545L15.1713 18.6467L11.6792 13.9154Z" fill="#00E5FF"/>
</g>
<defs>
<clipPath id="clip0_553_20">
<rect width="20" height="20" fill="white"/>
</clipPath>
</defs>
</svg>
