<svg width="20" height="20" viewBox="0 0 20 20" fill="none" xmlns="http://www.w3.org/2000/svg">
<g clip-path="url(#clip0_557_21)">
<mask id="mask0_557_21" style="mask-type:luminance" maskUnits="userSpaceOnUse" x="0" y="0" width="20" height="20">
<path d="M20 0H0V20H20V0Z" fill="white"/>
</mask>
<g mask="url(#mask0_557_21)">
<path d="M16.2907 7.12506C16.2944 7.03112 16.2964 6.93638 16.2964 6.84164C16.2964 3.20822 13.5327 0.262695 10.1235 0.262695C6.71439 0.262695 3.95068 3.20822 3.95068 6.84164C3.95068 6.93691 3.95266 7.03164 3.95636 7.12585C6.02673 6.16191 8.38352 6.50375 10.1243 7.89322C11.865 6.50427 14.2206 6.16243 16.2907 7.12506Z" fill="#6DA5E5"/>
<path d="M7.65967 12.8762C8.43698 13.2365 9.27572 13.4219 10.1234 13.4209C10.9999 13.4209 11.8337 13.2262 12.5891 12.8751C12.5468 11.8171 12.2647 10.7858 11.7668 9.86934C11.3503 9.09916 10.7916 8.427 10.1244 7.89355C9.45705 8.42674 8.89841 9.09895 8.48238 9.86934C7.98409 10.7859 7.70177 11.8178 7.65967 12.8762Z" fill="#294BA5"/>
<path d="M12.5892 12.8745C14.6944 11.8955 16.1882 9.70214 16.2904 7.12451C14.2208 6.16188 11.8648 6.50398 10.1245 7.89293C10.7918 8.42611 11.3505 9.09832 11.7665 9.86872C12.2648 10.785 12.5471 11.8164 12.5892 12.8745Z" fill="#2B9BDA"/>
<path d="M7.65976 12.8756C5.55359 11.8974 4.05926 9.70347 3.95605 7.12557C6.02667 6.16162 8.38371 6.50347 10.1245 7.89294C9.45714 8.42612 8.8985 9.09833 8.48247 9.86873C7.98418 10.7853 7.70186 11.817 7.65976 12.8753V12.8756Z" fill="#6750AE"/>
<path d="M12.5892 12.875C12.6731 14.9961 11.7892 17.0961 10.1245 18.4224C8.46027 17.0961 7.57582 14.9968 7.65977 12.8758C8.43705 13.2363 9.2758 13.4218 10.1235 13.4208C11 13.4208 11.8338 13.2261 12.5892 12.875Z" fill="#6074B8"/>
<path d="M10.1245 18.4224C10.3196 18.5777 10.5255 18.7229 10.7418 18.8561C13.6941 20.6726 17.4694 19.5945 19.1739 16.4482C20.8786 13.3013 19.867 9.27763 16.9146 7.46132C16.7129 7.33663 16.5045 7.22434 16.2907 7.125C16.1882 9.70237 14.6944 11.8961 12.5894 12.875C12.6734 14.9961 11.789 17.0961 10.1245 18.4224Z" fill="#66F1F3"/>
<path d="M10.1246 18.4223C9.92951 18.5776 9.72358 18.7228 9.50729 18.856C6.55494 20.6726 2.77961 19.5944 1.07518 16.4481C-0.629515 13.3012 0.38209 9.27756 3.33442 7.46124C3.53568 7.33692 3.74341 7.22498 3.95665 7.12598C4.05936 9.70387 5.55418 11.8978 7.65986 12.876C7.5759 14.997 8.46062 17.096 10.1246 18.4223Z" fill="#F27CC2"/>
</g>
</g>
<defs>
<clipPath id="clip0_557_21">
<rect width="20" height="20" fill="white"/>
</clipPath>
</defs>
</svg>
