<svg width="559" height="600" viewBox="0 0 559 600" fill="none" xmlns="http://www.w3.org/2000/svg">
<g filter="url(#filter0_d_103_4)">
<path d="M4.38339 286.204L37.3742 365.198C37.3742 365.198 108.004 338.638 56.3387 214.931C4.67386 91.2232 59.6801 14.9021 161.372 2.98114C267.982 -9.51639 273.408 -119.91 273.408 -119.91L-105.688 22.6462L4.38339 286.204Z" fill="url(#paint0_linear_103_4)"/>
</g>
<g filter="url(#filter1_d_103_4)">
<path d="M424.997 592.225L543.147 570.732C543.147 570.732 527.827 470.975 342.799 504.634C157.771 538.293 69.5633 445.321 83.5884 308.92C98.2917 165.922 -51.4341 128.499 -51.4341 128.499L-3.50007 673L424.997 592.225Z" fill="url(#paint1_linear_103_4)"/>
</g>
<defs>
<filter id="filter0_d_103_4" x="-120.688" y="-134.91" width="409.096" height="515.108" filterUnits="userSpaceOnUse" color-interpolation-filters="sRGB">
<feFlood flood-opacity="0" result="BackgroundImageFix"/>
<feColorMatrix in="SourceAlpha" type="matrix" values="0 0 0 0 0 0 0 0 0 0 0 0 0 0 0 0 0 0 127 0" result="hardAlpha"/>
<feOffset/>
<feGaussianBlur stdDeviation="7.5"/>
<feComposite in2="hardAlpha" operator="out"/>
<feColorMatrix type="matrix" values="0 0 0 0 0.35 0 0 0 0 0.348542 0 0 0 0 0.348542 0 0 0 0.25 0"/>
<feBlend mode="normal" in2="BackgroundImageFix" result="effect1_dropShadow_103_4"/>
<feBlend mode="normal" in="SourceGraphic" in2="effect1_dropShadow_103_4" result="shape"/>
</filter>
<filter id="filter1_d_103_4" x="-66.4341" y="113.499" width="624.581" height="574.501" filterUnits="userSpaceOnUse" color-interpolation-filters="sRGB">
<feFlood flood-opacity="0" result="BackgroundImageFix"/>
<feColorMatrix in="SourceAlpha" type="matrix" values="0 0 0 0 0 0 0 0 0 0 0 0 0 0 0 0 0 0 127 0" result="hardAlpha"/>
<feOffset/>
<feGaussianBlur stdDeviation="7.5"/>
<feComposite in2="hardAlpha" operator="out"/>
<feColorMatrix type="matrix" values="0 0 0 0 0.35 0 0 0 0 0.348542 0 0 0 0 0.348542 0 0 0 0.25 0"/>
<feBlend mode="normal" in2="BackgroundImageFix" result="effect1_dropShadow_103_4"/>
<feBlend mode="normal" in="SourceGraphic" in2="effect1_dropShadow_103_4" result="shape"/>
</filter>
<linearGradient id="paint0_linear_103_4" x1="247.5" y1="62" x2="-40.1738" y2="255.902" gradientUnits="userSpaceOnUse">
<stop stop-color="#03E5B7"/>
<stop offset="1" stop-color="#037ADE"/>
</linearGradient>
<linearGradient id="paint1_linear_103_4" x1="502" y1="313" x2="155.084" y2="817.783" gradientUnits="userSpaceOnUse">
<stop stop-color="#03E5B7"/>
<stop offset="1" stop-color="#037ADE"/>
</linearGradient>
</defs>
</svg>
