<svg width="639" height="541" viewBox="0 0 639 541" fill="none" xmlns="http://www.w3.org/2000/svg">
<path d="M357 475V73H372V475H357ZM291 475V73H306V475H291ZM324 475V73H339V475H324ZM390 307V292H507.5C526.5 292 543.667 287.833 559 279.5C574.667 271.167 587 259.333 596 244C605.333 228.667 610 210.667 610 190C610 169.333 605.333 151.333 596 136C587 120.667 574.667 108.833 559 100.5C543.667 92.1666 526.5 88 507.5 88H390V73H507.5C529.167 73 548.833 78 566.5 88C584.5 97.6666 598.667 111.333 609 129C619.667 146.333 625 166.667 625 190C625 213.333 619.667 233.833 609 251.5C598.667 268.833 584.5 282.5 566.5 292.5C548.833 302.167 529.167 307 507.5 307H390ZM390 274V259H507.5C526.833 259 543.167 253 556.5 241C570.167 228.667 577 211.667 577 190C577 168.333 570.167 151.5 556.5 139.5C543.167 127.167 526.833 121 507.5 121H390V106H507.5C523.167 106 537.333 109.5 550 116.5C562.667 123.167 572.833 132.833 580.5 145.5C588.167 157.833 592 172.667 592 190C592 207.333 588.167 222.333 580.5 235C572.833 247.333 562.667 257 550 264C537.333 270.667 523.167 274 507.5 274H390ZM390 241V226H507.5C517.5 226 526 223.167 533 217.5C540.333 211.5 544 202.333 544 190C544 177.333 540.333 168.167 533 162.5C526 156.833 517.5 154 507.5 154H390V139H507.5C521.833 139 534 143.333 544 152C554 160.667 559 173.333 559 190C559 206.667 554 219.333 544 228C534 236.667 521.833 241 507.5 241H390ZM604.5 475L534 320.5C536.333 320.167 538.667 319.833 541 319.5C543.667 318.833 546.167 318 548.5 317L621 475H604.5ZM568 475L498.5 324C501.167 324 503.833 324 506.5 324C509.5 323.667 512.333 323.333 515 323L584.5 475H568ZM531.5 475L462.5 324.5H479L548 475H531.5Z" fill="url(#paint0_linear_1040_6)"/>
<path d="M358 475V73H373V475H358ZM292 475V73H307V475H292ZM325 475V73H340V475H325ZM91 475V73H106V475H91ZM25 475V73H40V475H25ZM58 475V73H73V475H58ZM274 336.5L124 121V94.5L274 310V336.5ZM274 394.5L124 179V152.5L274 368V394.5ZM274 452.5L124 237V210.5L274 426V452.5Z" fill="url(#paint1_linear_1040_6)"/>
<defs>
<linearGradient id="paint0_linear_1040_6" x1="452.5" y1="0" x2="452.5" y2="541" gradientUnits="userSpaceOnUse">
<stop stop-color="#0394D5"/>
<stop offset="0.520833" stop-color="#03B1CA"/>
<stop offset="1" stop-color="#03CCC1"/>
</linearGradient>
<linearGradient id="paint1_linear_1040_6" x1="199" y1="0" x2="199" y2="541" gradientUnits="userSpaceOnUse">
<stop stop-color="#0394D5"/>
<stop offset="0.520833" stop-color="#03B1CA"/>
<stop offset="1" stop-color="#03CCC1"/>
</linearGradient>
</defs>
</svg>
