<svg width="20" height="20" viewBox="0 0 20 20" fill="none" xmlns="http://www.w3.org/2000/svg">
<path fillRule="evenodd" clipRule="evenodd" d="M13.756 6.68945C14.0068 7.41492 14.1874 8.15555 14.2468 8.9232C14.3205 9.87555 14.2868 10.8212 14.086 11.7579C14.0805 11.7837 14.069 11.8079 14.0604 11.8329C13.9974 11.833 13.9332 11.8252 13.8716 11.8348C13.3515 11.9165 12.8318 12.0012 12.3121 12.0854C11.7749 12.1724 11.2369 12.256 10.7007 12.349C10.5107 12.3818 10.2755 12.3426 10.1988 12.6054C10.1966 12.6126 10.1747 12.6138 10.1621 12.6179L10.188 11.0474C10.1791 9.7843 10.1704 8.52117 10.1616 7.25805L10.4119 7.21508C10.8213 7.14805 11.2307 7.08008 11.6404 7.01492C12.1293 6.93727 12.6187 6.8618 13.1079 6.78602C13.3237 6.75242 13.5397 6.72164 13.756 6.68945Z" fill="#439934"/>
<path fillRule="evenodd" clipRule="evenodd" d="M9.64494 17.1964C9.38087 16.9693 9.10759 16.7523 8.85447 16.5136C7.49244 15.2289 6.49619 13.7168 6.00556 11.8939C5.87041 11.3921 5.78025 10.8823 5.75134 10.3639C5.73103 10.0011 5.70166 9.63496 5.72728 9.27402C5.79556 8.31402 5.93431 7.36324 6.21587 6.43855L6.23134 6.41699C6.25869 6.4534 6.29806 6.48559 6.31197 6.52668C6.58681 7.33605 6.85962 8.14605 7.13103 8.95652C7.98384 11.5034 8.83556 14.0509 9.68978 16.5971C9.7065 16.6468 9.74978 16.6876 9.78087 16.7325L9.64494 17.1964Z" fill="#45A538"/>
<path fillRule="evenodd" clipRule="evenodd" d="M13.7558 6.68934C13.5395 6.72152 13.3233 6.7523 13.1075 6.78559C12.6183 6.86137 12.1289 6.93684 11.64 7.01449C11.2303 7.07965 10.8209 7.14762 10.4116 7.21465L10.1613 7.25762L10.1594 7.09434C10.1511 6.96012 10.1369 6.82605 10.1353 6.69184C10.1245 5.8359 10.1178 4.97996 10.1072 4.12402C10.1006 3.58824 10.0908 3.05262 10.0798 2.51699C10.0731 2.18418 10.0659 1.85121 10.0509 1.51887C10.0428 1.34027 10.0141 1.16262 10.0023 0.984023C9.99579 0.881367 10.0048 0.77793 10.0069 0.674805C10.1345 0.922148 10.2594 1.17137 10.3906 1.41684C10.598 1.80496 10.9283 2.0909 11.2256 2.40293C12.4011 3.63605 13.2356 5.0698 13.7558 6.68934Z" fill="#46A037"/>
<path fillRule="evenodd" clipRule="evenodd" d="M10.162 12.618C10.1746 12.614 10.1967 12.6127 10.1987 12.6055C10.2754 12.3427 10.5106 12.3819 10.7006 12.3491C11.2368 12.2563 11.7748 12.1725 12.312 12.0855C12.8317 12.0013 13.3513 11.9166 13.8715 11.8349C13.9331 11.8252 13.9973 11.8332 14.0603 11.833C13.9631 12.1799 13.8865 12.5343 13.7632 12.8716C13.6232 13.2543 13.4538 13.6277 13.274 13.9938C13.0053 14.5411 12.6704 15.0516 12.2813 15.5193C11.9815 15.8799 11.6473 16.2132 11.3123 16.5424C11.1271 16.7244 10.9088 16.8727 10.7057 17.0363L10.6531 17.0004L10.4634 16.8382L10.2671 16.408C10.132 15.9044 10.061 15.3918 10.0493 14.8708L10.0529 14.7832L10.0796 14.4041C10.0885 14.2747 10.1004 14.1455 10.1059 14.0158C10.126 13.5499 10.1435 13.084 10.162 12.618Z" fill="#409433"/>
<path fillRule="evenodd" clipRule="evenodd" d="M10.1617 12.6178C10.1433 13.0837 10.1258 13.5497 10.106 14.0158C10.1005 14.1455 10.0886 14.2747 10.0797 14.4041L9.96018 14.4492C9.69471 13.6677 9.42908 12.8944 9.16924 12.1191C8.73955 10.8364 8.31502 9.55172 7.88596 8.26875C7.53955 7.23312 7.19033 6.19859 6.83908 5.16453C6.82268 5.11609 6.77549 5.07828 6.74268 5.03547L7.50768 3.62891C7.53393 3.67453 7.56861 3.71719 7.58518 3.76625C7.93908 4.81359 8.29236 5.86109 8.64268 6.90969C9.0983 8.27375 9.55111 9.63891 10.0064 11.0031C10.0246 11.0577 10.0546 11.108 10.0831 11.1691L10.1878 11.0472C10.1791 11.5708 10.1703 12.0942 10.1617 12.6178Z" fill="#4FAA41"/>
<path fillRule="evenodd" clipRule="evenodd" d="M6.74318 5.03516C6.776 5.07797 6.82303 5.11578 6.83959 5.16422C7.19084 6.19828 7.54006 7.23281 7.88646 8.26844C8.31553 9.55141 8.74006 10.8361 9.16975 12.1187C9.42943 12.8939 9.69506 13.6673 9.96068 14.4489L10.0802 14.4037L10.0535 14.7828L10.0293 14.8702C9.98771 15.2852 9.95272 15.7011 9.90209 16.1152C9.87662 16.3227 9.82256 16.5264 9.78146 16.7319C9.75053 16.687 9.70709 16.6462 9.69037 16.5966C8.83615 14.0502 7.98443 11.5028 7.13162 8.95594C6.86021 8.14547 6.5874 7.33547 6.31256 6.52609C6.29865 6.485 6.25943 6.45281 6.23193 6.41641C6.40225 5.95594 6.57271 5.49547 6.74318 5.03516Z" fill="#4AA73C"/>
<path fillRule="evenodd" clipRule="evenodd" d="M10.188 11.0476L10.0833 11.1695C10.0547 11.1084 10.0247 11.0579 10.0066 11.0035C9.55141 9.6393 9.09844 8.27414 8.64281 6.91008C8.2925 5.86148 7.93922 4.81398 7.58531 3.76664C7.56891 3.71758 7.53422 3.67477 7.50781 3.6293L8.45391 2.38477C8.48375 2.42461 8.52625 2.46008 8.54172 2.50492C8.80438 3.27383 9.06469 4.04367 9.32344 4.81398C9.56516 5.53336 9.80328 6.25383 10.0478 6.97227C10.0642 7.02039 10.1212 7.05445 10.1594 7.09508L10.1612 7.25836C10.1703 8.52117 10.1792 9.78445 10.188 11.0476Z" fill="#57AE47"/>
<path fillRule="evenodd" clipRule="evenodd" d="M10.1596 7.09445C10.1214 7.05383 10.0644 7.01977 10.048 6.97164C9.80348 6.2532 9.56535 5.53273 9.32363 4.81336C9.06488 4.04305 8.80457 3.27336 8.54191 2.5043C8.52645 2.45945 8.48395 2.42398 8.4541 2.38414C8.76176 2.08289 9.05988 1.77086 9.37988 1.48352C9.66441 1.2282 9.89316 0.954453 9.90363 0.551016C9.9041 0.534297 9.91285 0.517578 9.92629 0.470703L10.0074 0.674766C10.0054 0.778047 9.99613 0.881328 10.0029 0.983984C10.0146 1.16258 10.0433 1.34023 10.0514 1.51883C10.0664 1.85117 10.0736 2.18414 10.0804 2.51695C10.0911 3.05258 10.101 3.5882 10.1077 4.12398C10.1182 4.97992 10.125 5.83586 10.1358 6.6918C10.1371 6.82633 10.1511 6.96023 10.1596 7.09445Z" fill="#60B24F"/>
<path fillRule="evenodd" clipRule="evenodd" d="M9.78096 16.7324C9.82205 16.527 9.87611 16.323 9.90158 16.1157C9.95236 15.7018 9.98721 15.2857 10.0288 14.8707L10.0391 14.8691L10.0494 14.8709C10.0611 15.3918 10.1321 15.9045 10.2672 16.408C10.2397 16.4443 10.2008 16.4766 10.1863 16.5176C10.0727 16.8379 9.96564 17.1607 9.85143 17.481C9.8358 17.5248 9.79236 17.5588 9.76174 17.5973L9.64502 17.1963L9.78096 16.7324Z" fill="#A9AA88"/>
<path fillRule="evenodd" clipRule="evenodd" d="M9.76172 17.5974C9.79234 17.559 9.83594 17.5249 9.85141 17.4812C9.96562 17.1609 10.0728 16.8382 10.1862 16.5177C10.2008 16.4768 10.2395 16.4445 10.2672 16.4082L10.4633 16.8385C10.4245 16.8935 10.3711 16.943 10.3495 17.0043L9.97391 18.1073C9.95844 18.1515 9.90562 18.1827 9.87031 18.2201L9.76172 17.5974Z" fill="#B6B598"/>
<path fillRule="evenodd" clipRule="evenodd" d="M9.87061 18.2195C9.90607 18.1823 9.95873 18.1509 9.9742 18.1066L10.3498 17.0037C10.3712 16.9426 10.4248 16.8929 10.4636 16.8379L10.6534 16.9999C10.5617 17.0905 10.5108 17.1952 10.5414 17.3276L10.4837 17.5163C10.4575 17.5487 10.4195 17.5768 10.4065 17.6138C10.2754 17.9893 10.1503 18.3668 10.0183 18.7423C10.0015 18.7899 9.95514 18.8273 9.92232 18.8691C9.90529 18.6524 9.88795 18.4362 9.87061 18.2195Z" fill="#C2C1A7"/>
<path fillRule="evenodd" clipRule="evenodd" d="M9.92219 18.8694C9.95484 18.8274 10.0012 18.79 10.0181 18.7425C10.1502 18.3672 10.2753 17.9897 10.4064 17.6141C10.4194 17.5772 10.4572 17.5489 10.4836 17.5166L10.4041 18.383C10.3828 18.4075 10.352 18.4289 10.3419 18.4575C10.252 18.7097 10.1673 18.9638 10.0772 19.216C10.0586 19.268 10.023 19.3139 9.99516 19.3625C9.97047 19.3302 9.92625 19.2989 9.92422 19.2652C9.91625 19.1338 9.92172 19.0014 9.92219 18.8694Z" fill="#CECDB7"/>
<path fillRule="evenodd" clipRule="evenodd" d="M9.99512 19.3623C10.0229 19.3136 10.0586 19.2677 10.0771 19.2158C10.1675 18.9638 10.252 18.7097 10.3418 18.4573C10.352 18.4287 10.3829 18.4075 10.404 18.3828L10.4059 18.9516L10.2156 19.4397L9.99512 19.3623Z" fill="#DBDAC7"/>
<path fillRule="evenodd" clipRule="evenodd" d="M10.2158 19.4403L10.4061 18.9521L10.4454 19.5296L10.2158 19.4403Z" fill="#EBE9DC"/>
<path fillRule="evenodd" clipRule="evenodd" d="M10.5412 17.3277C10.5105 17.1953 10.5613 17.0905 10.6532 17L10.7058 17.0359L10.5412 17.3277Z" fill="#CECDB7"/>
<path fillRule="evenodd" clipRule="evenodd" d="M10.0494 14.8707L10.0391 14.869L10.0288 14.8705L10.053 14.7832L10.0494 14.8707Z" fill="#4FAA41"/>
</svg>
