<svg width="20" height="20" viewBox="0 0 20 20" fill="none" xmlns="http://www.w3.org/2000/svg">
<g clipPath="url(#clip0_316_26)">
<path d="M19.9677 9.96189L19.9536 9.95605L19.9944 9.99689C20.0119 9.99689 19.9677 9.96189 19.9677 9.96189ZM19.3936 10.4319V10.4686L19.4719 10.5019L19.3936 10.4319Z" fill="black"/>
<path d="M12.4443 13.5635V13.5668C12.4552 13.5718 12.4502 13.5676 12.4443 13.5635Z" fill="url(#paint0_linear_316_26)"/>
<path d="M2.28566 12.4836L4.60482 11.4969L4.63066 11.4894L0.444824 10.6152L2.28566 12.4836Z" fill="url(#paint1_linear_316_26)"/>
<path d="M5.73855 10.2605C5.78438 10.2605 5.83021 10.263 5.87521 10.2671L5.87021 10.2663C5.96731 10.2535 6.06569 10.2538 6.16271 10.2671L6.15688 10.2663L8.44105 6.71215C8.26264 6.5274 8.16286 6.28065 8.16271 6.02382C8.15382 5.94711 8.1541 5.86962 8.16355 5.79298L8.16271 5.79798L5.38938 4.51465L3.15771 6.68798L5.60771 10.2663C5.64688 10.2621 5.69271 10.2605 5.73855 10.2605Z" fill="url(#paint2_linear_316_26)"/>
<path d="M13.4657 7.01049L13.9449 4.04216L12.1657 2.17383L10.0732 5.39466V5.43883C10.1641 5.57549 10.2266 5.73799 10.2466 5.91383L10.2474 5.91883L13.1682 7.15799C13.2524 7.09299 13.3516 7.04216 13.4591 7.01133L13.4657 7.01049Z" fill="url(#paint3_linear_316_26)"/>
<path d="M19.4391 10.5038L14.495 8.38965C14.3566 8.57298 14.15 8.69798 13.9141 8.72882L13.91 8.72965L13.3691 12.0388C13.5241 12.1963 13.6216 12.4121 13.6225 12.6496L16.6566 13.2871L19.4383 10.5196L19.4391 10.5038Z" fill="url(#paint4_linear_316_26)"/>
<path d="M16.911 6.89648L14.7827 7.76982L20.0002 9.98982L16.911 6.89648Z" fill="url(#paint5_linear_316_26)"/>
<path d="M4.84833 10.9046H4.85C4.9044 10.8027 4.97222 10.7085 5.05167 10.6246L5.05 10.6255L2.73833 7.16797L0 9.83047L4.84833 10.9046Z" fill="url(#paint6_linear_316_26)"/>
<path d="M12.8717 7.86559C12.8678 7.82094 12.8681 7.77602 12.8725 7.73142V7.73475L12.8734 7.72725C12.8734 7.71759 12.8702 7.7082 12.8642 7.70059L10.1342 6.53809C9.95255 6.81309 9.64505 6.99309 9.29505 6.99309L9.26088 6.99225H9.09671L6.83838 10.4848L12.8717 7.86559Z" fill="url(#paint7_linear_316_26)"/>
<path d="M2.78271 12.9114L3.81188 13.9331L4.98021 12.1173L4.90188 12.0381L2.78271 12.9114Z" fill="url(#paint8_linear_316_26)"/>
<path d="M13.5083 13.2607C13.4091 13.3874 13.2791 13.4857 13.1299 13.5457L13.1241 13.5482L12.4883 17.4949L16.1941 13.8191C16.1941 13.8191 16.1858 13.8357 16.1766 13.8357V13.8107L13.5083 13.2607Z" fill="url(#paint9_linear_316_26)"/>
<path d="M14.145 7.08944C14.2433 7.13944 14.3266 7.20361 14.3975 7.28111L14.3983 7.28194L16.36 6.40777L14.5291 4.59277L14.1191 7.06277L14.145 7.08944Z" fill="url(#paint10_linear_316_26)"/>
<path d="M9.91597 19.9996L10.9101 19.0129L6.40097 12.4746C6.26347 12.5396 6.10097 12.5779 5.93097 12.5788H5.92597C5.79347 12.5788 5.66514 12.5563 5.5468 12.5154L5.55514 12.5179L4.26514 14.3954L9.91597 19.9996Z" fill="url(#paint11_linear_316_26)"/>
<path d="M6.97754 11.1662C7.00587 11.2095 7.03421 11.2612 7.06004 11.3145L7.06421 11.3237L11.9742 12.3362C12.0446 12.2134 12.1437 12.1096 12.263 12.0335C12.3823 11.9575 12.5182 11.9115 12.6592 11.8995H12.6625L13.195 8.64368L13.0825 8.54785L6.97754 11.1662Z" fill="url(#paint12_linear_316_26)"/>
<path d="M9.95897 0L5.86064 4.02417C5.86064 4.02417 5.8523 4.0675 5.86064 4.07667L8.5648 5.22917C8.76074 5.06691 9.00979 4.9829 9.26397 4.99333H9.2623C9.38064 4.99417 9.49564 5.01333 9.6023 5.04833L9.59397 5.04583L11.704 1.74583L9.95897 0Z" fill="url(#paint13_linear_316_26)"/>
<path d="M11.9318 12.9523L11.9301 12.9465L6.96014 11.9248L6.89014 12.0381L11.3993 18.569L11.6693 18.2981L12.4368 13.5573L12.4451 13.5631V13.5398C12.3199 13.4884 12.2083 13.4085 12.1192 13.3066C12.0301 13.2046 11.966 13.0833 11.9318 12.9523Z" fill="url(#paint14_linear_316_26)"/>
</g>
<defs>
<linearGradient id="paint0_linear_316_26" x1="12.4477" y1="1.76885" x2="12.4477" y2="18.9619" gradientUnits="userSpaceOnUse">
<stop stop-color="#39C4B6"/>
<stop offset="1" stopColor="#529AC3"/>
</linearGradient>
<linearGradient id="paint1_linear_316_26" x1="2.53816" y1="1.77107" x2="2.53816" y2="18.9611" gradientUnits="userSpaceOnUse">
<stop stop-color="#39C4B6"/>
<stop offset="1" stopColor="#529AC3"/>
</linearGradient>
<linearGradient id="paint2_linear_316_26" x1="5.79938" y1="1.77048" x2="5.79938" y2="18.9605" gradientUnits="userSpaceOnUse">
<stop stop-color="#39C4B6"/>
<stop offset="1" stopColor="#529AC3"/>
</linearGradient>
<linearGradient id="paint3_linear_316_26" x1="12.0091" y1="1.77049" x2="12.0091" y2="18.9605" gradientUnits="userSpaceOnUse">
<stop stop-color="#39C4B6"/>
<stop offset="1" stopColor="#529AC3"/>
</linearGradient>
<linearGradient id="paint4_linear_316_26" x1="16.4041" y1="1.77048" x2="16.4041" y2="18.9605" gradientUnits="userSpaceOnUse">
<stop stop-color="#39C4B6"/>
<stop offset="1" stopColor="#529AC3"/>
</linearGradient>
<linearGradient id="paint5_linear_316_26" x1="17.391" y1="1.77065" x2="17.391" y2="18.9607" gradientUnits="userSpaceOnUse">
<stop stop-color="#39C4B6"/>
<stop offset="1" stopColor="#529AC3"/>
</linearGradient>
<linearGradient id="paint6_linear_316_26" x1="2.52583" y1="1.7713" x2="2.52583" y2="18.9613" gradientUnits="userSpaceOnUse">
<stop stop-color="#39C4B6"/>
<stop offset="1" stopColor="#529AC3"/>
</linearGradient>
<linearGradient id="paint7_linear_316_26" x1="9.85505" y1="1.77059" x2="9.85505" y2="18.9606" gradientUnits="userSpaceOnUse">
<stop stop-color="#39C4B6"/>
<stop offset="1" stopColor="#529AC3"/>
</linearGradient>
<linearGradient id="paint8_linear_316_26" x1="3.88105" y1="1.77059" x2="3.88105" y2="18.9606" gradientUnits="userSpaceOnUse">
<stop stop-color="#39C4B6"/>
<stop offset="1" stopColor="#529AC3"/>
</linearGradient>
<linearGradient id="paint9_linear_316_26" x1="14.3416" y1="1.77074" x2="14.3416" y2="18.9607" gradientUnits="userSpaceOnUse">
<stop stop-color="#39C4B6"/>
<stop offset="1" stopColor="#529AC3"/>
</linearGradient>
<linearGradient id="paint10_linear_316_26" x1="15.24" y1="1.77111" x2="15.24" y2="18.9611" gradientUnits="userSpaceOnUse">
<stop stop-color="#39C4B6"/>
<stop offset="1" stopColor="#529AC3"/>
</linearGradient>
<linearGradient id="paint11_linear_316_26" x1="7.58764" y1="1.77044" x2="7.58764" y2="18.9604" gradientUnits="userSpaceOnUse">
<stop stop-color="#39C4B6"/>
<stop offset="1" stopColor="#529AC3"/>
</linearGradient>
<linearGradient id="paint12_linear_316_26" x1="10.0859" y1="1.77118" x2="10.0859" y2="18.9612" gradientUnits="userSpaceOnUse">
<stop stop-color="#39C4B6"/>
<stop offset="1" stopColor="#529AC3"/>
</linearGradient>
<linearGradient id="paint13_linear_316_26" x1="8.7798" y1="1.77083" x2="8.7798" y2="18.9608" gradientUnits="userSpaceOnUse">
<stop stop-color="#39C4B6"/>
<stop offset="1" stopColor="#529AC3"/>
</linearGradient>
<linearGradient id="paint14_linear_316_26" x1="9.6668" y1="1.77064" x2="9.6668" y2="18.9606" gradientUnits="userSpaceOnUse">
<stop stop-color="#39C4B6"/>
<stop offset="1" stopColor="#529AC3"/>
</linearGradient>
<clipPath id="clip0_316_26">
<rect width="20" height="20" fill="white"/>
</clipPath>
</defs>
</svg>
