<svg width="35" height="22" viewBox="0 0 35 22" fill="none" xmlns="http://www.w3.org/2000/svg">
<path d="M17.2805 21.0481C17.1815 21.0481 17.0832 21.0198 16.9964 20.9654L16.0919 20.3826C15.9568 20.3003 16.0228 20.2712 16.0673 20.2545C16.2474 20.1858 16.284 20.1703 16.4762 20.0515C16.4965 20.0389 16.5229 20.0434 16.5436 20.0566L17.2384 20.5055C17.2635 20.5202 17.2991 20.5202 17.3224 20.5055L20.0317 18.8032C20.0567 18.7877 20.073 18.7559 20.073 18.7235V15.3203C20.073 15.2864 20.0567 15.2561 20.0311 15.2391L17.3229 13.5383C17.2978 13.5221 17.2646 13.5221 17.2395 13.5383L14.5319 15.2391C14.5056 15.2554 14.489 15.2871 14.489 15.3196V18.7227C14.489 18.7552 14.5052 18.7862 14.531 18.8017L15.2729 19.2682C15.6757 19.4875 15.9219 19.2291 15.9219 18.9693V15.6105C15.9219 15.5625 15.9565 15.5256 16.0006 15.5256H16.3437C16.3865 15.5256 16.4217 15.5625 16.4217 15.6105V18.9708C16.4217 19.5554 16.1288 19.8913 15.6195 19.8913C15.4628 19.8913 15.3394 19.8913 14.9949 19.7067L14.2842 19.2609C14.1085 19.1501 14 18.9434 14 18.7227V15.3196C14 15.0982 14.1085 14.8915 14.2842 14.7822L16.9961 13.0792C17.1677 12.9736 17.3956 12.9736 17.5658 13.0792L20.2744 14.7829C20.4493 14.8929 20.5585 15.0989 20.5585 15.3203V18.7235C20.5585 18.9442 20.4493 19.1501 20.2744 19.2609L17.5658 20.9639C17.479 21.0185 17.3806 21.0466 17.2803 21.0466" fill="#689F63"/>
<path d="M18.1176 18.7025C16.9321 18.7025 16.6836 18.1102 16.6836 17.6134C16.6836 17.5661 16.7186 17.5285 16.7621 17.5285H17.112C17.1506 17.5285 17.1832 17.5591 17.1893 17.6007C17.2422 17.9888 17.3995 18.1846 18.1164 18.1846C18.6874 18.1846 18.9301 18.0442 18.9301 17.7146C18.9301 17.5249 18.861 17.3839 17.9739 17.2894C17.232 17.2096 16.7736 17.0317 16.7736 16.3858C16.7736 15.7908 17.2347 15.4365 18.0072 15.4365C18.8745 15.4365 19.3045 15.7642 19.3587 16.4685C19.3608 16.4928 19.3526 16.5165 19.3377 16.5342C19.3228 16.5512 19.3018 16.5615 19.2801 16.5615H18.9281C18.8915 16.5615 18.8596 16.5335 18.8522 16.4951C18.7674 16.0868 18.5626 15.9562 18.0058 15.9562C17.3826 15.9562 17.31 16.1924 17.31 16.3696C17.31 16.5844 17.3955 16.6471 18.2364 16.7682C19.0692 16.8885 19.4645 17.0583 19.4645 17.6954C19.4645 18.3376 18.9722 18.706 18.1136 18.706M21.4136 15.0969H21.5045C21.5791 15.0969 21.5933 15.0401 21.5933 15.0069C21.5933 14.9197 21.5384 14.9197 21.5078 14.9197H21.4143L21.4136 15.0969ZM21.303 14.8179H21.5045C21.5736 14.8179 21.7093 14.8179 21.7093 14.9862C21.7093 15.1036 21.6401 15.1279 21.5987 15.1427C21.6794 15.1486 21.6848 15.2062 21.6957 15.2874C21.7011 15.3383 21.7099 15.4261 21.7262 15.4557H21.6021C21.5987 15.4261 21.5797 15.2637 21.5797 15.2549C21.5716 15.2187 21.5601 15.201 21.5187 15.201H21.4163V15.4564H21.303V14.8179ZM21.0609 15.1353C21.0609 15.3996 21.2569 15.6137 21.4977 15.6137C21.7405 15.6137 21.9364 15.3951 21.9364 15.1353C21.9364 14.8703 21.7377 14.6599 21.497 14.6599C21.2596 14.6599 21.0603 14.8673 21.0603 15.1346M22.0205 15.1368C22.0205 15.4498 21.7852 15.7052 21.4984 15.7052C21.2135 15.7052 20.9762 15.4527 20.9762 15.1368C20.9762 14.8149 21.2189 14.5684 21.4984 14.5684C21.7798 14.5684 22.0199 14.8157 22.0199 15.1368" fill="#689F63"/>
<path d="M12.5446 5.23457L8.96656 7.2302C8.8324 7.30444 8.75 7.44263 8.75 7.59184V11.5853C8.75 11.7345 8.8324 11.872 8.96656 11.9469L12.5453 13.944C12.6788 14.0183 12.8443 14.0183 12.9777 13.944L16.5557 11.9469C16.6884 11.872 16.7708 11.7345 16.7708 11.5853V7.59184C16.7708 7.44263 16.6884 7.30517 16.5543 7.2302L12.977 5.23457C12.9099 5.19709 12.8348 5.17871 12.7604 5.17871C12.6853 5.17871 12.6109 5.19709 12.5439 5.23457M30.9539 8.82964L30.3574 9.16188C30.3348 9.17437 30.3217 9.19716 30.3217 9.22215V9.8881C30.3217 9.91309 30.3355 9.93587 30.3574 9.94837L30.9539 10.2813C30.9765 10.2938 31.0034 10.2938 31.026 10.2813L31.6225 9.94837C31.6444 9.93587 31.6582 9.91309 31.6582 9.8881V9.22215C31.6582 9.19716 31.6444 9.17437 31.6218 9.16188L31.0253 8.82964C31.0144 8.82303 31.002 8.82009 30.9896 8.82009C30.9772 8.82009 30.9648 8.82303 30.9539 8.82964Z" fill="#388E3C"/>
<path d="M26.0683 1.00242L24.3263 0.0226151C24.2716 -0.00825644 24.2045 -0.00752121 24.1506 0.0248204C24.0966 0.0571621 24.0631 0.11523 24.0631 0.178443L24.0623 6.09697L22.456 5.20095C22.3889 5.16347 22.3138 5.14509 22.2394 5.14509C22.165 5.14509 22.0899 5.16347 22.0229 5.20095L18.4456 7.19658C18.3114 7.27082 18.229 7.40901 18.229 7.55748V11.5509C18.229 11.7002 18.3114 11.8376 18.4456 11.9126L22.0243 13.9097C22.1578 13.9839 22.3233 13.9839 22.4567 13.9097L26.0347 11.9126C26.1674 11.8383 26.2498 11.7002 26.2498 11.5509V1.31408C26.2498 1.18471 26.1798 1.06563 26.0683 1.00242ZM23.9646 10.627L22.3386 11.5348C22.2781 11.5686 22.203 11.5686 22.1424 11.5348L20.5157 10.627C20.4537 10.5932 20.4165 10.53 20.4165 10.4624V8.64681C20.4165 8.57919 20.4537 8.51671 20.5149 8.48216L22.1417 7.57513C22.1723 7.55822 22.2051 7.55013 22.2394 7.55013C22.2737 7.55013 22.3072 7.55895 22.3379 7.57513L23.9639 8.48216C24.0252 8.51671 24.0623 8.57992 24.0623 8.64754V10.4631C24.0623 10.53 24.0252 10.5932 23.9646 10.627Z" fill="white"/>
<path d="M12.5446 5.23457L8.75 11.5853C8.75 11.7345 8.8324 11.872 8.96656 11.9469L12.5453 13.944C12.6787 14.0183 12.8443 14.0183 12.9777 13.944L16.7708 7.59184C16.7708 7.44263 16.6884 7.30517 16.5543 7.2302L12.977 5.23457C12.9099 5.19709 12.8348 5.17871 12.7604 5.17871C12.6853 5.17871 12.6109 5.19709 12.5439 5.23457" fill="#2E7D32"/>
<path d="M12.5446 5.23457L8.96656 7.2302C8.8324 7.30444 8.75 7.44263 8.75 7.59184L12.5446 13.944C12.678 14.0183 12.8435 14.0183 12.977 13.944L16.555 11.9469C16.6884 11.872 16.7708 11.7345 16.7708 11.5853L12.977 5.23457C12.9099 5.19709 12.8348 5.17871 12.7604 5.17871C12.6853 5.17871 12.6109 5.19709 12.5439 5.23457" fill="#4CAF50"/>
<path d="M34.7834 7.197L31.2061 5.20137C31.1391 5.16388 31.064 5.14551 30.9896 5.14551C30.9152 5.14551 30.8401 5.16388 30.773 5.20137L27.1957 7.197C27.0623 7.27124 26.9792 7.41236 26.9792 7.56672V11.544C26.9792 11.6976 27.0623 11.8395 27.1957 11.9137L30.7745 13.9108C30.9086 13.9858 31.0727 13.9858 31.2069 13.9108L32.857 12.9898C33.0079 12.9053 33.0072 12.687 32.8555 12.6032L29.2651 10.6282C29.2046 10.5936 29.1667 10.5297 29.1667 10.4606V8.64796C29.1667 8.58034 29.2031 8.51786 29.2615 8.48552L30.8911 7.57701C30.9218 7.56011 30.9546 7.55202 30.9889 7.55202C31.0231 7.55202 31.0567 7.56084 31.0873 7.57701L32.717 8.48625C32.7753 8.51859 32.8118 8.58107 32.8118 8.6487V10.1276C32.8118 10.1908 32.8453 10.2496 32.9 10.2812C32.9547 10.3121 33.0218 10.3121 33.0765 10.2805L34.825 9.25657C34.9329 9.19336 35 9.07649 35 8.95006V7.56819C35 7.4131 34.9169 7.27124 34.7834 7.197ZM7.80427 7.197L4.22698 5.20137C4.1599 5.16388 4.08479 5.14551 4.01042 5.14551C3.93604 5.14551 3.86094 5.16388 3.79385 5.20137L0.216562 7.197C0.083125 7.27124 0 7.41236 0 7.56672V13.0538C0 13.117 0.0335417 13.1758 0.0882292 13.2074C0.142917 13.2383 0.21 13.2383 0.264688 13.2067L2.01323 12.1828C2.12115 12.1195 2.1875 12.0027 2.1875 11.8762V8.64723C2.1875 8.5796 2.22396 8.51712 2.28229 8.48478L3.91198 7.57628C3.9426 7.55937 3.97615 7.55129 4.01042 7.55129C4.04469 7.55129 4.07823 7.56011 4.10885 7.57628L5.73854 8.48552C5.79687 8.51786 5.83333 8.58034 5.83333 8.64796V11.877C5.83333 12.0034 5.89969 12.1203 6.00833 12.1835L7.75688 13.2074C7.81156 13.239 7.87865 13.239 7.93333 13.2081C7.98729 13.1758 8.02083 13.117 8.02083 13.0538V7.56746C8.02083 7.4131 7.93771 7.27124 7.80427 7.197Z" fill="white"/>
</svg>
