<svg width="20" height="20" viewBox="0 0 20 20" fill="none" xmlns="http://www.w3.org/2000/svg">
<g clipPath="url(#clip0_316_9)">
<path d="M15.7125 5.04117C15.6923 5.05597 15.6772 5.07666 15.6693 5.10039C15.6614 5.12413 15.661 5.14973 15.6683 5.17367V5.17284C15.6983 5.2329 15.71 5.30043 15.702 5.36708C15.694 5.43373 15.6666 5.49657 15.6233 5.54784L15.6241 5.547C15.6078 5.56763 15.599 5.5932 15.5991 5.6195C15.5991 5.65617 15.6166 5.6895 15.6433 5.71117C15.6634 5.72675 15.6879 5.73551 15.7133 5.73617C15.7483 5.73617 15.78 5.7195 15.8016 5.6945C15.8733 5.60839 15.9183 5.50321 15.9311 5.39187C15.9438 5.28054 15.9237 5.16791 15.8733 5.06784C15.8645 5.0555 15.8534 5.04501 15.8405 5.03699C15.8277 5.02896 15.8134 5.02356 15.7984 5.02108C15.7835 5.0186 15.7682 5.0191 15.7534 5.02255C15.7387 5.026 15.7248 5.03233 15.7125 5.04117ZM15.8741 5.06867L15.8725 5.06534L15.8733 5.06784L15.8741 5.06867Z" fill="#F36933"/>
<path d="M11.2724 0.0823438C5.79569 -0.620156 0.784858 3.24984 0.0823585 8.72734C-0.620141 14.204 3.24903 19.214 8.72652 19.9173C14.204 20.6198 19.2165 16.7498 19.9174 11.2723C20.6207 5.79568 16.7515 0.785677 11.2724 0.0823438ZM13.3315 6.31984C13.1459 6.32193 12.9685 6.39673 12.8374 6.52818L9.12652 10.239L8.33486 9.44734C11.9924 5.80068 12.6524 5.76568 13.3315 6.31984ZM9.27902 10.3707L12.979 6.67068C13.0274 6.61971 13.0858 6.57916 13.1504 6.55151C13.215 6.52386 13.2846 6.5097 13.3549 6.50988C13.4253 6.51007 13.4948 6.5246 13.5593 6.55259C13.6238 6.58058 13.6819 6.62143 13.73 6.67265C13.7782 6.72387 13.8154 6.78438 13.8393 6.85048C13.8633 6.91658 13.8735 6.98687 13.8694 7.05705C13.8652 7.12723 13.8468 7.19583 13.8152 7.25864C13.7836 7.32145 13.7395 7.37715 13.6857 7.42234L13.6849 7.42318L9.76902 10.8607L9.27902 10.3707ZM9.55402 10.949L8.63736 11.1473C8.63379 11.148 8.63016 11.1483 8.62652 11.1482C8.61721 11.1482 8.60806 11.1457 8.6001 11.1408C8.59215 11.136 8.58572 11.129 8.58152 11.1207C8.57595 11.1111 8.57374 11.0998 8.57525 11.0888C8.57676 11.0778 8.5819 11.0676 8.58986 11.0598L9.12736 10.5223L9.55402 10.949ZM7.21819 10.5665L8.19486 9.58984L8.92736 10.3215L7.27819 10.6765C7.27297 10.6775 7.26767 10.6781 7.26236 10.6782C7.25092 10.6781 7.23972 10.6749 7.23001 10.6689C7.2203 10.6629 7.21246 10.6542 7.20736 10.644C7.20121 10.6343 7.19802 10.623 7.19819 10.6115C7.19819 10.594 7.20569 10.5773 7.21819 10.5665ZM4.17986 15.614C4.16409 15.6129 4.14933 15.6059 4.13863 15.5942C4.12793 15.5826 4.12211 15.5673 4.12236 15.5515V15.5448C4.12394 15.5304 4.1304 15.5168 4.14069 15.5065H4.14236L4.93069 14.7182L5.94902 15.7365L4.17986 15.614ZM6.20152 14.5682C6.1633 14.5877 6.13284 14.6195 6.11512 14.6586C6.0974 14.6977 6.09349 14.7416 6.10402 14.7832V14.7815L6.27319 15.5023C6.27865 15.5246 6.27666 15.5479 6.2675 15.5689C6.25835 15.5899 6.24256 15.6072 6.22255 15.6183C6.20255 15.6294 6.17945 15.6336 6.15683 15.6303C6.1342 15.6269 6.1133 15.6162 6.09736 15.5998H6.09486L5.07152 14.5757L8.20652 11.444L9.72319 11.1165L10.4515 11.8448C9.40569 12.7632 7.97569 13.679 6.20152 14.5682ZM10.5999 11.7115H10.5982L9.89902 11.0123L13.8149 7.57484C13.8503 7.54302 13.8829 7.50816 13.9124 7.47068L13.914 7.46901C13.7915 8.58984 12.2232 10.1732 10.5999 11.7115ZM14.7182 6.77151C14.5193 6.77187 14.3223 6.73289 14.1385 6.6568C13.9547 6.58071 13.7878 6.46903 13.6474 6.32818L13.6457 6.32651C13.3727 6.04899 13.2167 5.6772 13.21 5.28796C13.2033 4.89872 13.3463 4.52177 13.6095 4.23498C13.8728 3.94819 14.2362 3.77347 14.6246 3.74693C15.0129 3.72038 15.3967 3.84404 15.6965 4.09234L15.694 4.09068L14.3524 5.43484C14.3431 5.44397 14.3357 5.45487 14.3307 5.46689C14.3257 5.47891 14.3231 5.49182 14.3232 5.50484C14.3232 5.53234 14.334 5.55734 14.3524 5.57484L15.3915 6.61401C15.1824 6.71821 14.9518 6.77214 14.7182 6.77151ZM15.7965 6.32818C15.729 6.39484 15.6557 6.45401 15.5757 6.50651L15.5707 6.50984L14.564 5.50401L15.8415 4.22651C16.3924 4.82651 16.3724 5.75318 15.7965 6.32818Z" fill="#F36933"/>
</g>
<defs>
<clipPath id="clip0_316_9">
<rect width="20" height="20" fill="white"/>
</clipPath>
</defs>
</svg>
