<svg width="15" height="23" viewBox="0 0 15 23" fill="none" xmlns="http://www.w3.org/2000/svg">
<mask id="mask0_425_10" style="mask-type:alpha" maskUnits="userSpaceOnUse" x="0" y="0" width="15" height="23">
<path d="M14.1656 0C14.6264 0 15 0.429595 15 0.959531V22.0405C15 22.5703 14.6264 23 14.1656 23H0.833337C0.3731 23 0 22.5709 0 22.0416V12.4583C0 11.9291 0.3731 11.5 0.833337 11.5H4.0625V6.70834C4.0625 6.17906 4.4356 5.75 4.89584 5.75H8.125V0.959531C8.125 0.429597 8.49856 0 8.95938 0H14.1656Z" fill="white"/>
</mask>
<g mask="url(#mask0_425_10)">
<path d="M15 0.959531V22.0405C15 22.5703 14.6264 23 14.1656 23H8.95938C8.49856 23 8.125 22.5703 8.125 22.0405V0.959531C8.125 0.429597 8.49856 0 8.95938 0H14.1656C14.6265 0 15 0.429595 15 0.959531Z" fill="url(#paint0_linear_425_10)"/>
<g filter="url(#filter0_dd_425_10)">
<path d="M10.9375 6.70834V23H4.0625V6.70834C4.0625 6.17906 4.4356 5.75 4.89584 5.75H10.1041C10.5644 5.75 10.9375 6.17906 10.9375 6.70834Z" fill="url(#paint1_linear_425_10)"/>
</g>
<path d="M0 12.4583V22.0416C0 22.5709 0.3731 23 0.833337 23H6.875V12.4583C6.875 11.9291 6.5019 11.5 6.04166 11.5H0.833337C0.3731 11.5 0 11.9291 0 12.4583Z" fill="url(#paint2_linear_425_10)"/>
</g>
<defs>
<filter id="filter0_dd_425_10" x="-129.271" y="-94.2501" width="273.542" height="283.917" filterUnits="userSpaceOnUse" color-interpolation-filters="sRGB">
<feFlood flood-opacity="0" result="BackgroundImageFix"/>
<feColorMatrix in="SourceAlpha" type="matrix" values="0 0 0 0 0 0 0 0 0 0 0 0 0 0 0 0 0 0 127 0" result="hardAlpha"/>
<feOffset dy="6.33333"/>
<feGaussianBlur stdDeviation="6.33333"/>
<feColorMatrix type="matrix" values="0 0 0 0 0 0 0 0 0 0 0 0 0 0 0 0 0 0 0.2 0"/>
<feBlend mode="normal" in2="BackgroundImageFix" result="effect1_dropShadow_425_10"/>
<feColorMatrix in="SourceAlpha" type="matrix" values="0 0 0 0 0 0 0 0 0 0 0 0 0 0 0 0 0 0 127 0" result="hardAlpha"/>
<feOffset dy="33.3333"/>
<feGaussianBlur stdDeviation="66.6667"/>
<feColorMatrix type="matrix" values="0 0 0 0 0 0 0 0 0 0 0 0 0 0 0 0 0 0 0.18 0"/>
<feBlend mode="normal" in2="effect1_dropShadow_425_10" result="effect2_dropShadow_425_10"/>
<feBlend mode="normal" in="SourceGraphic" in2="effect2_dropShadow_425_10" result="shape"/>
</filter>
<linearGradient id="paint0_linear_425_10" x1="6.97916" y1="-2.40868e-07" x2="17.7747" y2="20.52" gradientUnits="userSpaceOnUse">
<stop stop-color="#E6AD10"/>
<stop offset="1" stop-color="#C87E0E"/>
</linearGradient>
<linearGradient id="paint1_linear_425_10" x1="4.06194" y1="5.75" x2="13.0821" y2="21.4372" gradientUnits="userSpaceOnUse">
<stop stop-color="#F6D751"/>
<stop offset="1" stop-color="#E6AD10"/>
</linearGradient>
<linearGradient id="paint2_linear_425_10" x1="-0.000562597" y1="11.5" x2="5.0529" y2="22.24" gradientUnits="userSpaceOnUse">
<stop stop-color="#F9E589"/>
<stop offset="1" stop-color="#F6D751"/>
</linearGradient>
</defs>
</svg>
