<svg width="20" height="20" viewBox="0 0 20 20" fill="none" xmlns="http://www.w3.org/2000/svg">
<g clipPath="url(#clip0_316_52)">
<path d="M0.059082 9.9784C0.059082 11.6493 1.52488 13.209 3.83572 14.0882C3.37426 16.6741 3.75307 18.7583 5.01817 19.5704C6.31851 20.4052 8.25577 19.8274 10.0945 18.0382C11.8869 19.7551 13.6983 20.4307 14.9623 19.6163C16.2615 18.7792 16.6565 16.5536 16.1823 13.887C18.5892 13.0013 19.9356 11.6713 19.9356 9.9784C19.9356 8.34631 18.4671 6.9344 16.1874 6.06083C16.6979 3.28405 16.2654 1.2504 14.9478 0.404745C13.6777 -0.41056 11.8452 0.300049 10.0265 2.06179C8.13437 0.191875 6.31999 -0.378994 5.00388 0.469006C3.73487 1.28666 3.37277 3.40883 3.83572 6.04248C1.60285 6.90901 0.059082 8.35292 0.059082 9.9784Z" fill="white"/>
<path d="M15.7045 6.92776C15.5166 6.85603 15.3272 6.78957 15.1363 6.72846C15.1679 6.58528 15.1972 6.44146 15.2241 6.29707C15.6542 3.97289 15.373 2.10055 14.4126 1.4842C13.4917 0.893069 11.9857 1.50942 10.4647 2.98272C10.3148 3.12823 10.1682 3.27793 10.0252 3.43168C9.92934 3.32944 9.83183 3.22919 9.73267 3.13098C8.1386 1.5555 6.54077 0.891678 5.58136 1.50985C4.6614 2.10263 4.38891 3.8629 4.77616 6.0655C4.81469 6.28363 4.85819 6.50062 4.90662 6.71629C4.68054 6.78776 4.46219 6.86394 4.25329 6.94498C2.38446 7.6702 1.19092 8.80689 1.19092 9.98585C1.19092 11.2036 2.47211 12.425 4.41875 13.1655C4.5766 13.2253 4.73575 13.2806 4.89608 13.3316C4.84399 13.5639 4.79775 13.7978 4.75741 14.0331C4.38821 16.1974 4.67655 17.9159 5.59409 18.5051C6.54179 19.1133 8.13235 18.4881 9.68119 16.9812C9.80361 16.862 9.92649 16.7357 10.0495 16.6032C10.2045 16.7697 10.3636 16.9313 10.5267 17.0878C12.027 18.5248 13.5086 19.1051 14.4254 18.5144C15.3722 17.9043 15.6798 16.0581 15.2803 13.8119C15.2499 13.6404 15.2143 13.4652 15.1745 13.2867C15.2862 13.25 15.3958 13.2121 15.5027 13.1726C17.5264 12.4264 18.843 11.2199 18.843 9.98585C18.843 8.80263 17.611 7.65829 15.7045 6.92776Z" fill="#53C1DE"/>
<path d="M15.2654 12.3764C15.169 12.412 15.0699 12.4463 14.969 12.4796C14.7455 11.6924 14.444 10.8553 14.0751 9.99052C14.4272 9.14617 14.717 8.31982 14.9342 7.53765C15.1147 7.59591 15.29 7.65721 15.4589 7.72199C17.0925 8.34782 18.0888 9.2733 18.0888 9.98634C18.0888 10.7459 17.0126 11.732 15.2654 12.3764ZM14.5405 13.9755C14.7171 14.9687 14.7423 15.8667 14.6253 16.5687C14.5202 17.1995 14.3088 17.62 14.0474 17.7884C13.4911 18.1469 12.3013 17.681 11.0184 16.4521C10.8713 16.3112 10.7231 16.1608 10.5745 16.0016C11.0719 15.3961 11.569 14.6921 12.0542 13.9103C12.9076 13.8261 13.7138 13.6883 14.4449 13.5002C14.4809 13.6619 14.5129 13.8204 14.5405 13.9755ZM7.20875 17.7265C6.66525 17.9402 6.23238 17.9463 5.97075 17.7783C5.4139 17.421 5.1825 16.041 5.49819 14.1901C5.53573 13.9713 5.57872 13.7538 5.62709 13.5377C6.35011 13.7157 7.15047 13.8438 8.0059 13.921C8.49424 14.686 9.0057 15.3891 9.52115 16.0049C9.4116 16.1228 9.29946 16.2378 9.18483 16.3496C8.49994 17.016 7.81364 17.4887 7.20882 17.7265H7.20875ZM4.66252 12.3717C3.80178 12.0443 3.09095 11.6187 2.6037 11.1543C2.16591 10.737 1.94482 10.3226 1.94482 9.98634C1.94482 9.27095 2.90314 8.35834 4.50144 7.73808C4.70205 7.66057 4.90465 7.58961 5.10899 7.5253C5.32992 8.32504 5.61967 9.16121 5.96934 10.0068C5.61514 10.865 5.32125 11.7144 5.09829 12.5236C4.95194 12.4769 4.80664 12.4263 4.66252 12.3717ZM5.51608 5.90478C5.1843 4.01756 5.4046 2.59399 5.95903 2.23678C6.54963 1.85625 7.85544 2.39886 9.23179 3.75912C9.31975 3.84608 9.40811 3.93712 9.49662 4.0313C8.98383 4.64425 8.47705 5.34208 7.99293 6.1026C7.16273 6.18825 6.368 6.32582 5.6374 6.51008C5.5924 6.30945 5.55195 6.10768 5.51608 5.90478ZM13.1304 7.99756C12.9578 7.66577 12.7788 7.33816 12.5936 7.01495C13.1569 7.09408 13.6964 7.1993 14.2031 7.32808C14.051 7.87078 13.8614 8.43825 13.6382 9.01999C13.475 8.67545 13.3057 8.33457 13.1304 7.99756ZM10.0253 4.63112C10.3731 5.05051 10.7214 5.51886 11.0641 6.02695C10.369 5.99039 9.6728 5.99022 8.97773 6.02643C9.32069 5.52304 9.672 5.05538 10.0253 4.63112ZM6.90024 8.0033C6.72708 8.33763 6.56094 8.67642 6.40198 9.01938C6.18238 8.43965 5.9945 7.86965 5.84107 7.31921C6.34472 7.19373 6.88181 7.09121 7.44139 7.01338C7.25407 7.3386 7.07364 7.66866 6.90024 8.0033ZM7.45749 13.0192C6.87938 12.9474 6.33417 12.8501 5.83068 12.7281C5.98653 12.1679 6.17855 11.5856 6.40284 10.9935C6.56247 11.3367 6.72934 11.6757 6.90329 12.0102C7.08079 12.3514 7.26558 12.6878 7.45749 13.0192ZM10.0461 15.4009C9.68872 14.9716 9.33225 14.4968 8.98406 13.9861C9.32202 14.0009 9.66661 14.0083 10.0168 14.0083C10.3767 14.0083 10.7323 13.9994 11.0824 13.982C10.7387 14.502 10.3916 14.9775 10.0461 15.4009ZM13.6454 10.9633C13.8813 11.5619 14.0802 12.141 14.2381 12.6917C13.7263 12.8217 13.1737 12.9264 12.5915 13.0042C12.7781 12.6749 12.9588 12.3416 13.1334 12.0043C13.311 11.6616 13.4817 11.3145 13.6454 10.9633ZM12.4802 11.585C12.2128 12.1021 11.9303 12.6093 11.6333 13.1059C11.1096 13.1476 10.5684 13.169 10.0168 13.169C9.46756 13.169 8.9332 13.15 8.41862 13.1129C8.1139 12.6174 7.82613 12.1093 7.55592 11.5896C7.28697 11.0727 7.03576 10.5446 6.80282 10.0065C7.03517 9.46822 7.28562 8.93985 7.55365 8.42252V8.42269C7.8216 7.90524 8.10711 7.39931 8.40955 6.90599C8.93453 6.86182 9.47279 6.83869 10.0169 6.83869C10.5634 6.83869 11.1024 6.86199 11.6272 6.90652C11.9266 7.39908 12.2103 7.90325 12.4777 8.41808C12.7467 8.93426 13.0005 9.46005 13.2387 9.9946C13.0029 10.5346 12.7499 11.0651 12.4802 11.585ZM14.0358 2.21182C14.6269 2.5913 14.8568 4.12147 14.4854 6.12817C14.4611 6.25889 14.4346 6.38912 14.406 6.51878C13.6737 6.33069 12.8784 6.19069 12.0458 6.10373C11.5608 5.33495 11.0582 4.63591 10.5537 4.03086C10.6859 3.889 10.8212 3.75081 10.9596 3.61643C12.2628 2.35399 13.4808 1.85556 14.0358 2.21182Z" fill="white"/>
<path d="M10.0167 8.23145C10.8873 8.23145 11.593 9.01701 11.593 9.98597C11.593 10.955 10.8873 11.7406 10.0167 11.7406C9.14618 11.7406 8.44043 10.955 8.44043 9.98597C8.44043 9.01701 9.14618 8.23145 10.0167 8.23145Z" fill="#53C1DE"/>
</g>
<defs>
<clipPath id="clip0_316_52">
<rect width="20" height="20" fill="white"/>
</clipPath>
</defs>
</svg>
