<svg width="24" height="24" viewBox="0 0 24 24" fill="none" xmlns="http://www.w3.org/2000/svg">
<path d="M12 15.8268C18.0751 15.8268 23 13.9464 23 11.6268C23 9.30716 18.0751 7.42676 12 7.42676C5.92487 7.42676 1 9.30716 1 11.6268C1 13.9464 5.92487 15.8268 12 15.8268Z" stroke="#61DAFB"/>
<path d="M8.36259 13.7263C11.4002 18.9875 15.4911 22.3124 17.4999 21.1526C19.5087 19.9928 18.6748 14.7875 15.6372 9.52628C12.5996 4.26506 8.50873 0.940202 6.4999 2.1C4.49107 3.2598 5.32503 8.46506 8.36259 13.7263Z" stroke="#61DAFB"/>
<path d="M8.36259 9.52647C5.32503 14.7877 4.49107 19.993 6.4999 21.1528C8.50873 22.3126 12.5996 18.9877 15.6372 13.7265C18.6748 8.46526 19.5087 3.25999 17.4999 2.1002C15.4911 0.940397 11.4002 4.26526 8.36259 9.52647Z" stroke="#61DAFB"/>
<path d="M12.0002 13.6762C13.1324 13.6762 14.0502 12.7584 14.0502 11.6262C14.0502 10.494 13.1324 9.57617 12.0002 9.57617C10.868 9.57617 9.9502 10.494 9.9502 11.6262C9.9502 12.7584 10.868 13.6762 12.0002 13.6762Z" fill="#61DAFB"/>
</svg>
