<svg width="23" height="21" viewBox="0 0 23 21" fill="none" xmlns="http://www.w3.org/2000/svg">
<g clip-path="url(#clip0_620_8)">
<path d="M11.5002 12.2816C12.6324 12.2816 13.5502 11.3638 13.5502 10.2316C13.5502 9.09946 12.6324 8.18164 11.5002 8.18164C10.368 8.18164 9.4502 9.09946 9.4502 10.2316C9.4502 11.3638 10.368 12.2816 11.5002 12.2816Z" fill="#61DAFB"/>
<path d="M11.5 14.4322C17.5751 14.4322 22.5 12.5518 22.5 10.2322C22.5 7.91263 17.5751 6.03223 11.5 6.03223C5.42487 6.03223 0.5 7.91263 0.5 10.2322C0.5 12.5518 5.42487 14.4322 11.5 14.4322Z" stroke="#61DAFB"/>
<path d="M7.86308 12.3317C10.9006 17.593 14.9916 20.9178 17.0004 19.758C19.0092 18.5982 18.1753 13.393 15.1377 8.13175C12.1001 2.87053 8.00922 -0.454329 6.00039 0.705469C3.99156 1.86527 4.82552 7.07053 7.86308 12.3317Z" stroke="#61DAFB"/>
<path d="M7.86308 8.13194C4.82552 13.3932 3.99156 18.5984 6.00039 19.7582C8.00922 20.918 12.1001 17.5932 15.1377 12.3319C18.1753 7.07072 19.0092 1.86546 17.0004 0.705664C14.9916 -0.454134 10.9006 2.87072 7.86308 8.13194Z" stroke="#61DAFB"/>
</g>
<defs>
<clipPath id="clip0_620_8">
<rect width="23" height="20.4635" fill="white"/>
</clipPath>
</defs>
</svg>
