<svg width="20" height="20" viewBox="0 0 20 20" fill="none" xmlns="http://www.w3.org/2000/svg">
<path d="M12.3418 12.3904L11.9582 13.1319C11.8426 13.3552 11.6287 13.4929 11.3971 13.4929H8.45826C8.22669 13.4929 8.01275 13.3552 7.89718 13.1319L7.51351 12.3904H12.3418ZM13.4158 10.3148L12.7394 11.6221H7.11596L6.43956 10.3148H13.4158ZM12.7642 8.28501L13.4169 9.54643H6.43848L7.09114 8.28501H12.7642ZM11.3971 6.36621C11.6287 6.36621 11.8426 6.50387 11.9582 6.72723L12.3667 7.51665H7.48869L7.89718 6.72723C8.01275 6.50387 8.22669 6.36621 8.45826 6.36621H11.3971Z" fill="#00435B"/>
<path d="M4.18147 6.02191C3.85592 4.26487 3.78605 2.91724 3.99649 1.93867C4.12164 1.35667 4.35045 0.881887 4.69838 0.539337C5.0657 0.177695 5.53011 0.000236001 6.05192 0.000236001C6.91276 0.000236001 7.81771 0.437164 8.78481 1.26721C9.17928 1.60577 9.58868 2.01386 10.0139 2.49169C10.0477 2.4432 10.086 2.39746 10.1286 2.35518C11.3306 1.16289 12.3427 0.422105 13.2083 0.13648C13.7229 -0.033352 14.2062 -0.0495322 14.6462 0.115296C15.1107 0.289283 15.4808 0.64894 15.7419 1.1527C16.1729 1.9841 16.2865 3.07655 16.1259 4.42545C16.0604 4.97528 15.9484 5.5742 15.7902 6.22314C15.8499 6.23116 15.9097 6.24589 15.969 6.26773C17.4941 6.83028 18.5741 7.43523 19.2279 8.12658C19.6169 8.53791 19.8709 8.99585 19.9628 9.50276C20.0597 10.0378 19.9652 10.5745 19.7044 11.0779C19.2742 11.908 18.4833 12.5628 17.3566 13.0814C16.9042 13.2897 16.3923 13.4783 15.8203 13.6479C15.8464 13.7135 15.8667 13.7831 15.8802 13.8562C16.2058 15.6132 16.2756 16.9609 16.0652 17.9394C15.9401 18.5214 15.7112 18.9962 15.3633 19.3388C14.996 19.7004 14.5316 19.8779 14.0098 19.8779C13.1489 19.8779 12.244 19.4409 11.2769 18.6109C10.8782 18.2687 10.4643 17.8555 10.0343 17.3711C9.99001 17.4482 9.93568 17.5198 9.87143 17.5835C8.66937 18.7758 7.65734 19.5166 6.79175 19.8022C6.27706 19.972 5.79384 19.9882 5.3538 19.8234C4.8893 19.6494 4.51919 19.2898 4.25807 18.786C3.82713 17.9546 3.71348 16.8621 3.87415 15.5132C3.942 14.9435 4.05975 14.3211 4.22711 13.645C4.1617 13.6376 4.09601 13.6222 4.03105 13.5983C2.5059 13.0357 1.42594 12.4308 0.772103 11.7394C0.383088 11.3281 0.129056 10.8701 0.0372248 10.3632C-0.0597028 9.82818 0.0348091 9.29152 0.295627 8.78813C0.725767 7.95794 1.51667 7.30317 2.64341 6.78455C3.10932 6.57011 3.63829 6.37649 4.23094 6.20298C4.20983 6.14545 4.19315 6.08495 4.18147 6.02191Z" fill="#002B3B"/>
<path d="M14.816 14.029C14.9676 13.999 15.1129 14.1073 15.1468 14.2733L15.1487 14.2831L15.1648 14.3765C15.689 17.4441 15.3198 18.9778 14.057 18.9778C12.8216 18.9778 11.2489 17.6691 9.33887 15.0515C9.29667 14.9937 9.2739 14.9213 9.27446 14.8468C9.27585 14.6732 9.40098 14.5331 9.5558 14.5294L9.56477 14.5293L9.66535 14.5301C10.4691 14.535 11.2504 14.5038 12.0094 14.4365C12.9053 14.3572 13.8408 14.2213 14.816 14.029ZM6.14402 11.7102L6.14886 11.7193L6.19933 11.8173C6.60377 12.6 7.02514 13.3428 7.46345 14.0457C7.97963 14.8736 8.5601 15.7117 9.20487 16.56C9.30461 16.6913 9.29322 16.8861 9.1807 17.0019L9.17338 17.0092L9.1085 17.0714C6.97522 19.1059 5.58867 19.512 4.94886 18.2898C4.32257 17.0935 4.54964 14.9182 5.63005 11.764C5.65379 11.6947 5.69841 11.6367 5.75629 11.5999C5.89156 11.514 6.06306 11.5636 6.14402 11.7102ZM15.8985 7.18379L15.9073 7.18695L15.9875 7.21782C18.6207 8.23734 19.6211 9.35776 18.9888 10.5791C18.3703 11.7735 16.5724 12.6432 13.595 13.1881C13.5286 13.2003 13.4604 13.1861 13.4024 13.1482C13.2654 13.0585 13.2196 12.8622 13.3002 12.7097C13.7266 11.9023 14.1107 11.099 14.4524 10.2996C14.84 9.39304 15.2037 8.41998 15.5435 7.38042C15.595 7.22281 15.7464 7.1372 15.8897 7.18095L15.8985 7.18379ZM6.59719 6.67047C6.7342 6.76012 6.77997 6.95642 6.69943 7.10891C6.27298 7.91632 5.8889 8.7197 5.54719 9.51905C5.15965 10.4256 4.79596 11.3987 4.45612 12.4382C4.40355 12.5991 4.24703 12.6849 4.10111 12.6349L4.09237 12.6317L4.01207 12.6008C1.37889 11.5813 0.378473 10.4609 1.01083 9.23958C1.62929 8.0451 3.42723 7.17542 6.40466 6.63053C6.47106 6.61838 6.53918 6.63251 6.59719 6.67047ZM15.0508 1.64895C15.677 2.84529 15.45 5.02057 14.3696 8.17479C14.3458 8.24411 14.3012 8.3021 14.2433 8.33887C14.1081 8.4248 13.9366 8.37518 13.8556 8.22856L13.8508 8.21947L13.8003 8.12143C13.3959 7.33881 12.9745 6.59601 12.5362 5.89303C12.02 5.06515 11.4395 4.22705 10.7948 3.37873C10.695 3.24749 10.7064 3.0527 10.8189 2.93685L10.8262 2.92956L10.8911 2.86741C13.0244 0.832906 14.4109 0.426751 15.0508 1.64895ZM6.0505 0.920898C7.28596 0.920898 8.85868 2.22966 10.7687 4.8472C10.8109 4.90503 10.8336 4.97743 10.8331 5.05193C10.8317 5.22548 10.7066 5.36559 10.5517 5.36935L10.5428 5.36941L10.4422 5.36862C9.63846 5.36377 8.85711 5.39496 8.09815 5.46219C7.20223 5.54156 6.2667 5.67742 5.29155 5.86977C5.1399 5.89969 4.99459 5.79148 4.96073 5.62546L4.95887 5.61563L4.94271 5.5222C4.4185 2.45467 4.78776 0.920898 6.0505 0.920898Z" fill="#FF4154"/>
<path d="M8.69484 6.40625H11.1617C11.5225 6.40625 11.8557 6.62102 12.0353 6.96929L13.2739 9.37154C13.4521 9.71712 13.4521 10.142 13.2739 10.4876L12.0353 12.8898C11.8557 13.2381 11.5225 13.4529 11.1617 13.4529H8.69484C8.33408 13.4529 8.00086 13.2381 7.82129 12.8898L6.58264 10.4876C6.40446 10.142 6.40446 9.71712 6.58264 9.37154L7.82129 6.96929C8.00086 6.62102 8.33408 6.40625 8.69484 6.40625ZM10.7857 7.1313C11.1467 7.1313 11.4801 7.3463 11.6596 7.69486L12.5233 9.37206C12.7011 9.71737 12.7011 10.1417 12.5233 10.487L11.6596 12.1642C11.4801 12.5128 11.1467 12.7278 10.7857 12.7278H9.07082C8.70986 12.7278 8.3765 12.5128 8.197 12.1642L7.33326 10.487C7.15543 10.1417 7.15543 9.71737 7.33326 9.37206L8.197 7.69486C8.3765 7.3463 8.70986 7.1313 9.07082 7.1313H10.7857ZM10.3805 7.92433H9.47606C9.11547 7.92433 8.78239 8.13889 8.60275 8.48688L8.14633 9.37106C7.96781 9.71688 7.96781 10.1422 8.14633 10.4881L8.60275 11.3722C8.78239 11.7202 9.11547 11.9348 9.47606 11.9348H10.3805C10.7411 11.9348 11.0742 11.7202 11.2538 11.3722L11.7102 10.4881C11.8887 10.1422 11.8887 9.71688 11.7102 9.37106L11.2538 8.48688C11.0742 8.13889 10.7411 7.92433 10.3805 7.92433ZM9.99029 8.68337C10.3506 8.68337 10.6835 8.89761 10.8632 9.24519L10.9279 9.37033C11.107 9.71652 11.107 10.1426 10.9279 10.4888L10.8632 10.6139C10.6835 10.9615 10.3506 11.1757 9.99029 11.1757H9.86626C9.50595 11.1757 9.17308 10.9615 8.99333 10.6139L8.92863 10.4888C8.74961 10.1426 8.74961 9.71652 8.92863 9.37033L8.99333 9.24519C9.17308 8.89761 9.50595 8.68337 9.86626 8.68337H9.99029ZM9.92844 9.43108C9.76807 9.43108 9.62018 9.52608 9.54011 9.68032C9.46005 9.83453 9.46005 10.0246 9.54011 10.1788C9.62018 10.333 9.76807 10.428 9.92812 10.428C10.0885 10.428 10.2364 10.333 10.3165 10.1788C10.3965 10.0246 10.3965 9.83453 10.3165 9.68032C10.2364 9.52608 10.0885 9.43108 9.92844 9.43108ZM6.29492 9.92955H7.10124Z" fill="#FFD94C"/>
</svg>
