<svg width="20" height="20" viewBox="0 0 20 20" fill="none" xmlns="http://www.w3.org/2000/svg">
<path d="M13.8579 13.9114C14.5959 13.8313 15.1559 13.1638 15.1304 12.3627C15.105 11.5617 14.4687 10.9209 13.7052 10.9209H13.6543C12.8652 10.9476 12.2545 11.6418 12.2799 12.4695C12.3054 12.8701 12.458 13.2172 12.6871 13.4575C11.8218 15.2465 10.4984 16.5548 8.5132 17.6496C7.1643 18.3972 5.76453 18.6643 4.36476 18.4774C3.21945 18.3172 2.32867 17.7832 1.76867 16.9019C0.954296 15.5936 0.877968 14.1784 1.56516 12.7633C2.04875 11.7486 2.81219 11.0009 3.29578 10.6271C3.19398 10.28 3.04125 9.6926 2.96492 9.26542C-0.72547 12.0691 -0.343673 15.8606 0.776171 17.6496C1.61601 18.9847 3.32125 19.8125 5.20461 19.8125C5.71359 19.8125 6.22258 19.759 6.73164 19.6256C9.98937 18.958 12.4581 16.9287 13.8579 13.9114ZM18.3373 10.6005C16.403 8.22402 13.5525 6.91569 10.2948 6.91569H9.88758C9.65851 6.43507 9.17492 6.1146 8.64047 6.1146H8.58953C7.80062 6.14132 7.18984 6.83553 7.21523 7.66333C7.2407 8.46433 7.87695 9.10519 8.64047 9.10519H8.69133C9.25125 9.07847 9.73484 8.70464 9.93844 8.19731H10.3966C12.3309 8.19731 14.1633 8.78472 15.8177 9.93291C17.0902 10.8141 18.0064 11.9623 18.5154 13.3507C18.948 14.4721 18.9226 15.5669 18.4645 16.5015C17.7519 17.9166 16.5557 18.691 14.9777 18.691C13.9597 18.691 12.9926 18.3705 12.4835 18.1302C12.2036 18.3972 11.6945 18.8244 11.3382 19.0915C12.4327 19.6255 13.5525 19.9193 14.6214 19.9193C17.0647 19.9193 18.8717 18.504 19.5589 17.0889C20.297 15.5402 20.246 12.8701 18.3373 10.6005ZM5.4082 14.3653C5.43367 15.1663 6.06992 15.8071 6.83344 15.8071H6.88437C7.67336 15.7805 8.28414 15.0862 8.25867 14.2585C8.23328 13.4574 7.59695 12.8166 6.83344 12.8166H6.78258C6.73164 12.8166 6.65523 12.8166 6.60445 12.8433C5.56094 11.0276 5.12828 9.05175 5.28101 6.9156C5.38273 5.31352 5.8918 3.92502 6.78258 2.77683C7.52062 1.78888 8.94586 1.30826 9.91305 1.28162C12.6108 1.22818 13.756 4.75274 13.8324 6.16796C14.1633 6.24803 14.7232 6.43499 15.105 6.5685C14.7995 2.24294 12.2545 0 9.81125 0C7.52062 0 5.4082 1.7356 4.56828 4.29892C3.39758 7.71669 4.16109 11.0009 5.58633 13.591C5.45914 13.7779 5.38273 14.0715 5.4082 14.3653Z" fill="#764ABC"/>
</svg>
