<svg width="63" height="21" viewBox="0 0 63 21" fill="none" xmlns="http://www.w3.org/2000/svg">
<path d="M10.808 16.12C10.6 16.12 10.416 16.048 10.256 15.904C10.104 15.752 9.972 15.52 9.86 15.208L9.14 13.264C9.052 13.016 8.96 12.832 8.864 12.712C8.776 12.592 8.644 12.504 8.468 12.448C8.3 12.384 8.056 12.352 7.736 12.352L7.352 14.68C7.312 14.888 7.236 15.056 7.124 15.184V15.196C7.164 15.212 7.224 15.236 7.304 15.268C7.392 15.292 7.472 15.304 7.544 15.304C7.648 15.304 7.748 15.284 7.844 15.244C7.94 15.196 8.004 15.172 8.036 15.172C8.084 15.172 8.108 15.196 8.108 15.244C8.108 15.316 8.06 15.404 7.964 15.508C7.66 15.836 7.416 16 7.232 16C7.168 16 7.032 15.968 6.824 15.904C6.592 15.832 6.432 15.796 6.344 15.796C6.216 15.796 6.084 15.832 5.948 15.904C5.82 15.968 5.748 16 5.732 16C5.692 16 5.672 15.96 5.672 15.88C5.672 15.792 5.692 15.712 5.732 15.64C5.772 15.568 5.84 15.484 5.936 15.388C6.12 15.22 6.24 15.1 6.296 15.028C6.352 14.948 6.396 14.844 6.428 14.716C6.46 14.588 6.508 14.328 6.572 13.936L7.304 9.664C7.336 9.464 7.472 9.264 7.712 9.064C7.96 8.864 8.18 8.764 8.372 8.764C8.452 8.764 8.492 8.784 8.492 8.824C8.492 8.848 8.452 8.916 8.372 9.028C8.3 9.132 8.244 9.32 8.204 9.592L7.868 11.764C7.972 11.788 8.16 11.8 8.432 11.8C9 11.8 9.444 11.628 9.764 11.284C10.092 10.932 10.256 10.46 10.256 9.868C10.256 8.756 9.644 8.2 8.42 8.2C7.444 8.2 6.64 8.552 6.008 9.256C5.944 9.328 5.888 9.388 5.84 9.436C5.792 9.484 5.744 9.508 5.696 9.508C5.648 9.508 5.624 9.48 5.624 9.424C5.624 9.376 5.628 9.332 5.636 9.292C5.708 9.012 5.888 8.74 6.176 8.476C6.464 8.204 6.836 7.984 7.292 7.816C7.748 7.64 8.252 7.552 8.804 7.552C9.548 7.552 10.128 7.72 10.544 8.056C10.968 8.392 11.18 8.868 11.18 9.484C11.18 10.1 10.98 10.644 10.58 11.116C10.188 11.588 9.684 11.916 9.068 12.1C9.5 12.236 9.812 12.552 10.004 13.048L10.604 14.68C10.684 14.88 10.764 15.028 10.844 15.124C10.932 15.212 11.044 15.256 11.18 15.256C11.372 15.256 11.56 15.152 11.744 14.944C11.776 14.904 11.808 14.86 11.84 14.812C11.88 14.764 11.916 14.74 11.948 14.74C12.012 14.74 12.044 14.792 12.044 14.896C12.044 15.088 11.98 15.28 11.852 15.472C11.732 15.664 11.576 15.82 11.384 15.94C11.192 16.06 11 16.12 10.808 16.12ZM13.625 16.12C13.265 16.12 12.977 15.984 12.761 15.712C12.553 15.432 12.449 15.048 12.449 14.56C12.449 13.968 12.589 13.336 12.869 12.664C13.157 11.984 13.525 11.42 13.973 10.972C14.421 10.516 14.873 10.288 15.329 10.288C15.745 10.288 15.953 10.54 15.953 11.044C15.953 11.452 15.833 11.852 15.593 12.244C15.353 12.636 15.029 12.984 14.621 13.288C14.221 13.584 13.781 13.812 13.301 13.972C13.301 14.404 13.369 14.716 13.505 14.908C13.649 15.1 13.857 15.196 14.129 15.196C14.417 15.196 14.681 15.104 14.921 14.92C15.161 14.736 15.365 14.484 15.533 14.164C15.557 14.116 15.581 14.076 15.605 14.044C15.629 14.012 15.661 13.996 15.701 13.996C15.765 13.996 15.797 14.044 15.797 14.14C15.797 14.356 15.689 14.624 15.473 14.944C15.257 15.264 14.981 15.54 14.645 15.772C14.309 16.004 13.969 16.12 13.625 16.12ZM13.685 13.336C13.893 13.336 14.113 13.264 14.345 13.12C14.585 12.968 14.785 12.764 14.945 12.508C15.105 12.252 15.185 11.964 15.185 11.644C15.185 11.268 15.053 11.08 14.789 11.08C14.573 11.08 14.365 11.196 14.165 11.428C13.973 11.66 13.809 11.948 13.673 12.292C13.545 12.636 13.457 12.968 13.409 13.288C13.457 13.32 13.549 13.336 13.685 13.336ZM17.3414 16.12C17.0934 16.12 16.8814 16.052 16.7054 15.916C16.5294 15.78 16.4134 15.6 16.3574 15.376C16.3414 15.312 16.3654 15.212 16.4294 15.076C16.5014 14.932 16.5934 14.792 16.7054 14.656C16.7694 14.584 16.8214 14.548 16.8614 14.548C16.9014 14.548 16.9334 14.58 16.9574 14.644C17.1974 15.204 17.5294 15.484 17.9534 15.484C18.1694 15.484 18.3374 15.42 18.4574 15.292C18.5854 15.156 18.6494 14.976 18.6494 14.752C18.6494 14.448 18.4774 14.056 18.1334 13.576L17.8814 13.216C17.6894 12.944 17.5534 12.72 17.4734 12.544C17.4014 12.368 17.3654 12.18 17.3654 11.98C17.3654 11.66 17.4494 11.372 17.6174 11.116C17.7934 10.86 18.0214 10.66 18.3014 10.516C18.5814 10.364 18.8734 10.288 19.1774 10.288C19.7534 10.288 20.0414 10.484 20.0414 10.876C20.0414 11.02 19.9894 11.164 19.8854 11.308C19.8294 11.404 19.7814 11.452 19.7414 11.452C19.6934 11.452 19.6494 11.404 19.6094 11.308C19.5214 11.156 19.4134 11.048 19.2854 10.984C19.1654 10.912 19.0094 10.876 18.8174 10.876C18.5934 10.876 18.4134 10.936 18.2774 11.056C18.1414 11.176 18.0734 11.328 18.0734 11.512C18.0734 11.616 18.1054 11.736 18.1694 11.872C18.2414 12 18.3734 12.2 18.5654 12.472L18.8174 12.82C19.0414 13.116 19.1974 13.372 19.2854 13.588C19.3734 13.796 19.4174 14.016 19.4174 14.248C19.4174 14.544 19.3214 14.84 19.1294 15.136C18.9374 15.424 18.6814 15.66 18.3614 15.844C18.0414 16.028 17.7014 16.12 17.3414 16.12ZM22.0084 16.12C21.7684 16.12 21.6004 16.04 21.5044 15.88C21.4084 15.712 21.3604 15.488 21.3604 15.208C21.3604 15 21.3764 14.78 21.4084 14.548C21.4484 14.308 21.4724 14.164 21.4804 14.116L21.9724 11.032H20.7604C20.7204 11.032 20.7004 11.012 20.7004 10.972C20.7004 10.892 20.7884 10.78 20.9644 10.636C21.1404 10.484 21.2684 10.408 21.3484 10.408H22.0684L22.1884 9.664C22.2204 9.4 22.3444 9.164 22.5604 8.956C22.7764 8.748 22.9924 8.644 23.2084 8.644C23.2484 8.644 23.2684 8.664 23.2684 8.704C23.2684 8.736 23.2324 8.832 23.1604 8.992C23.0884 9.144 23.0364 9.308 23.0044 9.484L22.8604 10.408H24.0364C24.0844 10.408 24.1084 10.432 24.1084 10.48C24.1084 10.544 24.0124 10.652 23.8204 10.804C23.6364 10.956 23.5164 11.032 23.4604 11.032H22.7884L22.2964 14.092C22.2884 14.148 22.2644 14.284 22.2244 14.5C22.1924 14.716 22.1764 14.884 22.1764 15.004C22.1764 15.268 22.2644 15.4 22.4404 15.4C22.5684 15.4 22.7044 15.34 22.8484 15.22C22.9924 15.092 23.1204 14.916 23.2324 14.692C23.2404 14.676 23.2484 14.66 23.2564 14.644C23.2724 14.628 23.2884 14.62 23.3044 14.62C23.3444 14.62 23.3644 14.672 23.3644 14.776C23.3644 14.936 23.2924 15.124 23.1484 15.34C23.0124 15.556 22.8364 15.74 22.6204 15.892C22.4124 16.044 22.2084 16.12 22.0084 16.12ZM24.3376 17.092C24.2256 17.092 24.1336 17.076 24.0616 17.044C23.9816 17.012 23.8976 16.952 23.8096 16.864C23.6576 16.712 23.5816 16.592 23.5816 16.504C23.5816 16.456 23.6096 16.432 23.6656 16.432C23.6976 16.432 23.7936 16.448 23.9536 16.48C24.2736 16.536 24.5176 16.564 24.6856 16.564C25.0216 16.564 25.2976 16.468 25.5136 16.276C25.7296 16.092 25.9096 15.784 26.0536 15.352C26.2056 14.92 26.3376 14.324 26.4496 13.564L26.8216 11.116H26.1856C25.9696 11.116 25.8056 11.144 25.6936 11.2C25.5896 11.248 25.5256 11.272 25.5016 11.272C25.4376 11.272 25.4056 11.236 25.4056 11.164C25.4056 11.108 25.4336 11.04 25.4896 10.96C25.5696 10.8 25.6896 10.668 25.8496 10.564C26.0176 10.46 26.2096 10.408 26.4256 10.408H26.9296L26.9536 10.156C27.0976 9.14 27.3696 8.384 27.7696 7.888C28.1776 7.392 28.6776 7.144 29.2696 7.144C29.5336 7.144 29.7296 7.196 29.8576 7.3C29.9856 7.396 30.0496 7.528 30.0496 7.696C30.0496 7.768 30.0256 7.804 29.9776 7.804C29.9376 7.804 29.8336 7.776 29.6656 7.72C29.5056 7.664 29.3256 7.636 29.1256 7.636C28.8456 7.636 28.6256 7.704 28.4656 7.84C28.3056 7.968 28.1736 8.196 28.0696 8.524C27.9656 8.844 27.8696 9.308 27.7816 9.916L27.6976 10.408H28.3816C28.5976 10.408 28.7616 10.384 28.8736 10.336C28.9856 10.28 29.0536 10.252 29.0776 10.252C29.1016 10.252 29.1216 10.264 29.1376 10.288C29.1536 10.304 29.1616 10.328 29.1616 10.36C29.1616 10.4 29.1376 10.468 29.0896 10.564C29.0016 10.732 28.8776 10.868 28.7176 10.972C28.5576 11.068 28.3696 11.116 28.1536 11.116H27.6256L27.3616 12.952C27.1536 14.32 26.8016 15.352 26.3056 16.048C25.8096 16.744 25.1536 17.092 24.3376 17.092ZM31.1325 16.12C30.7965 16.12 30.6285 15.868 30.6285 15.364C30.6285 15.116 30.6685 14.764 30.7485 14.308L31.1565 11.836C31.1885 11.548 31.2045 11.384 31.2045 11.344C31.2045 11.224 31.1725 11.164 31.1085 11.164C30.9245 11.164 30.7085 11.404 30.4605 11.884C30.4445 11.916 30.4165 11.972 30.3765 12.052C30.3445 12.124 30.3165 12.172 30.2925 12.196C30.2685 12.212 30.2445 12.22 30.2205 12.22C30.2045 12.22 30.1885 12.208 30.1725 12.184C30.1565 12.152 30.1485 12.116 30.1485 12.076C30.1485 11.916 30.2285 11.692 30.3885 11.404C30.5565 11.108 30.7605 10.848 31.0005 10.624C31.2405 10.4 31.4685 10.288 31.6845 10.288C31.8125 10.288 31.9125 10.344 31.9845 10.456C32.0645 10.56 32.1045 10.704 32.1045 10.888C32.1045 11.008 32.0965 11.1 32.0805 11.164L31.5165 14.704C31.5005 14.816 31.4925 14.888 31.4925 14.92C31.4925 15.088 31.5565 15.172 31.6845 15.172C31.9485 15.172 32.2325 14.996 32.5365 14.644C32.8485 14.284 33.1205 13.856 33.3525 13.36C33.5925 12.864 33.7485 12.428 33.8205 12.052L33.9885 11.176C34.0525 10.888 34.1805 10.668 34.3725 10.516C34.5725 10.364 34.7565 10.288 34.9245 10.288C34.9885 10.288 35.0205 10.308 35.0205 10.348C35.0205 10.372 35.0045 10.42 34.9725 10.492C34.9405 10.556 34.9165 10.636 34.9005 10.732C34.7885 11.228 34.5685 12.38 34.2405 14.188L34.1685 14.572C34.1125 14.852 34.0845 15.024 34.0845 15.088C34.0845 15.2 34.1205 15.256 34.1925 15.256C34.3205 15.256 34.4605 15.156 34.6125 14.956C34.7725 14.748 34.9005 14.524 34.9965 14.284C35.0445 14.196 35.0845 14.152 35.1165 14.152C35.1645 14.152 35.1885 14.188 35.1885 14.26C35.1885 14.348 35.1805 14.424 35.1645 14.488C35.1085 14.776 34.9965 15.044 34.8285 15.292C34.6605 15.54 34.4725 15.74 34.2645 15.892C34.0565 16.044 33.8645 16.12 33.6885 16.12C33.3765 16.12 33.2285 15.872 33.2445 15.376C33.2605 15.16 33.3085 14.868 33.3885 14.5L33.4965 13.912H33.4845C33.0685 14.576 32.6445 15.112 32.2125 15.52C31.7805 15.92 31.4205 16.12 31.1325 16.12ZM36.5791 16.12C36.4271 16.12 36.3151 16.048 36.2431 15.904C36.1791 15.752 36.1471 15.564 36.1471 15.34C36.1471 15.188 36.1631 15.008 36.1951 14.8L36.9031 10.072C37.0711 8.984 37.2751 8.144 37.5151 7.552C37.7551 6.96 38.0431 6.532 38.3791 6.268C38.5711 6.116 38.7711 6.004 38.9791 5.932C39.1871 5.86 39.5071 5.772 39.9391 5.668C40.1391 5.628 40.2671 5.596 40.3231 5.572C40.3791 5.548 40.4151 5.536 40.4311 5.536C40.4871 5.536 40.5151 5.568 40.5151 5.632C40.5151 5.664 40.4951 5.712 40.4551 5.776C40.4231 5.84 40.3671 5.908 40.2871 5.98C40.1991 6.06 40.1151 6.116 40.0351 6.148C39.9551 6.172 39.8591 6.188 39.7471 6.196C39.2831 6.244 38.9471 6.388 38.7391 6.628C38.3471 7.076 38.0591 7.904 37.8751 9.112L36.9991 14.764C36.9911 14.82 36.9871 14.888 36.9871 14.968C36.9871 15.144 37.0391 15.232 37.1431 15.232C37.3831 15.232 37.6631 14.876 37.9831 14.164C38.0151 14.076 38.0591 14.032 38.1151 14.032C38.1711 14.032 38.1991 14.088 38.1991 14.2C38.1991 14.464 38.1031 14.748 37.9111 15.052C37.7271 15.356 37.5071 15.612 37.2511 15.82C36.9951 16.02 36.7711 16.12 36.5791 16.12ZM43.7794 16.12C43.4034 16.12 43.1714 15.848 43.0834 15.304C43.0114 14.864 42.9754 14.076 42.9754 12.94L42.6754 13.168H41.2114C41.0274 13.64 40.8114 14.064 40.5634 14.44C40.3234 14.816 40.0674 15.096 39.7954 15.28V15.304C39.8994 15.352 39.9994 15.376 40.0954 15.376C40.2154 15.376 40.3274 15.356 40.4314 15.316C40.5434 15.276 40.6114 15.256 40.6354 15.256C40.6914 15.256 40.7194 15.276 40.7194 15.316C40.7194 15.372 40.6634 15.468 40.5514 15.604C40.4234 15.732 40.2874 15.832 40.1434 15.904C39.9994 15.968 39.8634 16 39.7354 16C39.6314 16 39.4834 15.968 39.2914 15.904C39.0994 15.84 38.9554 15.808 38.8594 15.808C38.7394 15.808 38.6194 15.84 38.4994 15.904C38.3714 15.968 38.2874 16 38.2474 16C38.2074 16 38.1874 15.98 38.1874 15.94C38.1874 15.86 38.2194 15.768 38.2834 15.664C38.3474 15.552 38.4234 15.476 38.5114 15.436C38.5594 15.412 38.6074 15.396 38.6554 15.388C38.6954 15.38 38.7474 15.364 38.8114 15.34C39.1234 15.22 39.3954 15.004 39.6274 14.692C39.8674 14.372 40.0714 14.016 40.2394 13.624C40.4074 13.224 40.5994 12.716 40.8154 12.1C41.0634 11.404 41.2754 10.84 41.4514 10.408C41.6354 9.968 41.8514 9.564 42.0994 9.196C42.3474 8.82 42.6314 8.528 42.9514 8.32V8.308C42.8394 8.292 42.7554 8.276 42.6994 8.26C42.6674 8.252 42.5674 8.236 42.3994 8.212C42.2394 8.188 42.0314 8.176 41.7754 8.176C41.3434 8.176 40.9794 8.256 40.6834 8.416C40.3954 8.576 40.1234 8.836 39.8674 9.196C39.7874 9.324 39.7234 9.388 39.6754 9.388C39.6274 9.388 39.6034 9.356 39.6034 9.292L39.6154 9.172C39.7354 8.684 40.0074 8.292 40.4314 7.996C40.8634 7.7 41.3634 7.552 41.9314 7.552C42.1634 7.552 42.5114 7.592 42.9754 7.672C43.4074 7.752 43.7154 7.792 43.8994 7.792C44.1074 7.792 44.3274 7.752 44.5594 7.672V7.684C44.3434 8.044 44.1754 8.608 44.0554 9.376C43.9354 10.136 43.8754 11.08 43.8754 12.208C43.8754 13.368 43.8994 14.152 43.9474 14.56C43.9634 14.792 43.9954 14.968 44.0434 15.088C44.0994 15.2 44.1914 15.256 44.3194 15.256C44.3994 15.256 44.4754 15.236 44.5474 15.196C44.6274 15.156 44.7314 15.096 44.8594 15.016C45.0114 14.912 45.1074 14.86 45.1474 14.86C45.1954 14.86 45.2194 14.876 45.2194 14.908C45.2194 14.972 45.1954 15.048 45.1474 15.136C44.9954 15.408 44.7874 15.64 44.5234 15.832C44.2674 16.024 44.0194 16.12 43.7794 16.12ZM42.9874 12.448C43.0034 11.712 43.0554 10.984 43.1434 10.264C43.2314 9.536 43.3434 8.944 43.4794 8.488H43.4674C43.1554 8.632 42.8514 8.98 42.5554 9.532C42.2674 10.084 41.9354 10.92 41.5594 12.04L41.4274 12.448H42.9874ZM45.9505 16C45.9105 16 45.8905 15.96 45.8905 15.88C45.8905 15.792 45.9105 15.712 45.9505 15.64C45.9905 15.568 46.0585 15.484 46.1545 15.388C46.3385 15.22 46.4585 15.1 46.5145 15.028C46.5705 14.948 46.6105 14.848 46.6345 14.728C46.6665 14.6 46.7185 14.336 46.7905 13.936L47.5225 9.664C47.5545 9.464 47.6905 9.264 47.9305 9.064C48.1785 8.864 48.3985 8.764 48.5905 8.764C48.6785 8.764 48.7225 8.784 48.7225 8.824C48.7225 8.848 48.6825 8.916 48.6025 9.028C48.5305 9.14 48.4745 9.328 48.4345 9.592L48.0745 11.884C48.1865 11.908 48.3625 11.92 48.6025 11.92C48.9865 11.92 49.3265 11.832 49.6225 11.656C49.9265 11.472 50.1625 11.224 50.3305 10.912C50.4985 10.6 50.5825 10.252 50.5825 9.868C50.5825 9.324 50.4145 8.912 50.0785 8.632C49.7425 8.344 49.2625 8.2 48.6385 8.2C48.1585 8.2 47.7145 8.288 47.3065 8.464C46.8985 8.64 46.5385 8.904 46.2265 9.256C46.1545 9.352 46.0985 9.42 46.0585 9.46C46.0185 9.492 45.9745 9.508 45.9265 9.508C45.8785 9.508 45.8545 9.48 45.8545 9.424L45.8665 9.292C45.9385 8.996 46.1185 8.716 46.4065 8.452C46.6945 8.18 47.0665 7.964 47.5225 7.804C47.9785 7.636 48.4785 7.552 49.0225 7.552C49.7825 7.552 50.3905 7.724 50.8465 8.068C51.3025 8.404 51.5305 8.872 51.5305 9.472C51.5305 10 51.3545 10.496 51.0025 10.96C50.6505 11.416 50.1945 11.792 49.6345 12.088C49.0825 12.376 48.5105 12.544 47.9185 12.592L47.5705 14.68C47.5305 14.888 47.4545 15.056 47.3425 15.184V15.196C47.3825 15.212 47.4425 15.236 47.5225 15.268C47.6025 15.292 47.6825 15.304 47.7625 15.304C47.8585 15.304 47.9545 15.284 48.0505 15.244C48.1545 15.196 48.2225 15.172 48.2545 15.172C48.3025 15.172 48.3265 15.2 48.3265 15.256C48.3265 15.328 48.2785 15.412 48.1825 15.508C47.8785 15.836 47.6345 16 47.4505 16C47.3785 16 47.2465 15.968 47.0545 15.904C46.7985 15.832 46.6305 15.796 46.5505 15.796C46.4305 15.796 46.3065 15.832 46.1785 15.904C46.0505 15.968 45.9745 16 45.9505 16ZM52.1683 16C52.1203 16 52.0963 15.972 52.0963 15.916C52.0963 15.82 52.1403 15.7 52.2283 15.556C52.3243 15.412 52.4363 15.316 52.5643 15.268L52.9003 15.124C53.0123 15.068 53.0883 14.968 53.1283 14.824C53.1763 14.672 53.2243 14.416 53.2723 14.056L54.0763 8.368C53.9163 8.368 53.7643 8.372 53.6203 8.38C53.4523 8.396 53.3003 8.42 53.1643 8.452C53.0283 8.484 52.9443 8.5 52.9123 8.5C52.8643 8.5 52.8403 8.476 52.8403 8.428C52.8403 8.364 52.8763 8.28 52.9483 8.176C53.0443 8.024 53.1563 7.912 53.2843 7.84C53.4123 7.76 53.5683 7.716 53.7523 7.708L55.4443 7.672C55.6603 7.664 55.8203 7.644 55.9243 7.612C56.0363 7.58 56.1083 7.564 56.1403 7.564C56.1963 7.564 56.2243 7.588 56.2243 7.636C56.2243 7.7 56.1923 7.78 56.1283 7.876C56.0403 8.028 55.9643 8.132 55.9003 8.188C55.8363 8.244 55.7243 8.28 55.5643 8.296L54.9763 8.332L54.0643 14.716C54.0163 14.932 53.9403 15.092 53.8363 15.196V15.208C53.9163 15.224 54.0203 15.248 54.1483 15.28C54.2843 15.304 54.4043 15.316 54.5083 15.316C54.6363 15.316 54.7443 15.292 54.8323 15.244C54.9283 15.196 54.9843 15.172 55.0003 15.172C55.0403 15.172 55.0603 15.196 55.0603 15.244C55.0603 15.324 55.0123 15.416 54.9163 15.52C54.6283 15.84 54.3483 16 54.0763 16C53.9803 16 53.8323 15.972 53.6323 15.916C53.3283 15.844 53.1203 15.808 53.0083 15.808C52.8563 15.808 52.6843 15.84 52.4923 15.904C52.3083 15.968 52.2003 16 52.1683 16Z" fill="#939598"/>
<path d="M4.08 18.792C3.344 18.792 2.81067 18.6373 2.48 18.328C2.16 18.0187 2 17.512 2 16.808V13.592C2 13.1867 1.88267 12.8453 1.648 12.568C1.424 12.28 1.06133 12.0347 0.56 11.832C1.06133 11.6293 1.424 11.3893 1.648 11.112C1.88267 10.824 2 10.4773 2 10.072V6.856C2 6.152 2.16 5.64533 2.48 5.336C2.81067 5.02667 3.344 4.872 4.08 4.872H4.56V5.672H4.08C3.68533 5.672 3.40267 5.76267 3.232 5.944C3.072 6.12533 2.992 6.42933 2.992 6.856V10.072C2.992 10.4773 2.92267 10.8133 2.784 11.08C2.64533 11.3467 2.40533 11.5973 2.064 11.832C2.40533 12.0667 2.64533 12.3173 2.784 12.584C2.92267 12.8507 2.992 13.1867 2.992 13.592V16.808C2.992 17.2347 3.072 17.5387 3.232 17.72C3.40267 17.9013 3.68533 17.992 4.08 17.992H4.56V18.792H4.08Z" fill="#939598"/>
<path d="M57.8 17.992H58.28C58.6747 17.992 58.952 17.9013 59.112 17.72C59.2827 17.5387 59.368 17.2347 59.368 16.808V13.592C59.368 13.1867 59.4373 12.8507 59.576 12.584C59.7147 12.3173 59.9547 12.0667 60.296 11.832C59.9547 11.5973 59.7147 11.3467 59.576 11.08C59.4373 10.8133 59.368 10.4773 59.368 10.072V6.856C59.368 6.42933 59.2827 6.12533 59.112 5.944C58.952 5.76267 58.6747 5.672 58.28 5.672H57.8V4.872H58.28C59.016 4.872 59.544 5.02667 59.864 5.336C60.1947 5.64533 60.36 6.152 60.36 6.856V10.072C60.36 10.4773 60.472 10.824 60.696 11.112C60.9307 11.3893 61.2987 11.6293 61.8 11.832C61.2987 12.0347 60.9307 12.28 60.696 12.568C60.472 12.8453 60.36 13.1867 60.36 13.592V16.808C60.36 17.512 60.1947 18.0187 59.864 18.328C59.544 18.6373 59.016 18.792 58.28 18.792H57.8V17.992Z" fill="#939598"/>
</svg>
