<svg width="15" height="20" viewBox="0 0 15 20" fill="none" xmlns="http://www.w3.org/2000/svg">
<path d="M3.75018 0.713867H12.9184L9.58452 7.14244H14.1687L2.49996 19.2853L5.0004 9.99958H0.833008L3.75018 0.713867Z" fill="#00A1E0"/>
<path d="M2.49993 20C2.37449 20.0001 2.25065 19.9759 2.13764 19.9292C2.02464 19.8826 1.92537 19.8146 1.84726 19.7305C1.76914 19.6464 1.71419 19.5483 1.68649 19.4434C1.65879 19.3386 1.65906 19.2297 1.68728 19.125L3.95851 10.7143H0.83297C0.705082 10.7142 0.578927 10.6889 0.46427 10.6404C0.349614 10.5918 0.249532 10.5213 0.171771 10.4343C0.0940104 10.3473 0.0406573 10.2461 0.0158417 10.1386C-0.00897397 10.0311 -0.00458655 9.92012 0.0286645 9.81429L2.94584 0.528572C2.99347 0.376957 3.09807 0.243018 3.24346 0.147471C3.38885 0.051925 3.56693 9.57364e-05 3.75014 1.66847e-07H12.9184C13.0572 -8.11421e-05 13.1939 0.0295568 13.3159 0.0862229C13.438 0.142889 13.5416 0.224788 13.6174 0.324484C13.6932 0.424181 13.7387 0.538515 13.7498 0.657107C13.7609 0.775699 13.7373 0.894792 13.681 1.00357L10.868 6.42857H14.1686C14.3264 6.42891 14.4808 6.46761 14.6139 6.54018C14.747 6.61275 14.8533 6.71621 14.9206 6.83852C14.9878 6.96084 15.0131 7.09699 14.9936 7.23116C14.9741 7.36532 14.9106 7.49198 14.8104 7.59643L3.1417 19.7393C3.06374 19.8206 2.96578 19.8861 2.85484 19.9312C2.7439 19.9762 2.6227 19.9997 2.49993 20ZM1.91649 9.28571H5.00036C5.1258 9.28565 5.24963 9.30984 5.36264 9.3565C5.47565 9.40316 5.57491 9.47107 5.65303 9.55518C5.73114 9.63929 5.7861 9.73743 5.8138 9.84227C5.8415 9.94712 5.84122 10.056 5.813 10.1607L4.10437 16.4893L12.4016 7.85714H9.58449C9.44566 7.85722 9.30901 7.82759 9.18694 7.77092C9.06487 7.71425 8.96125 7.63235 8.88549 7.53266C8.80973 7.43296 8.76423 7.31863 8.75311 7.20004C8.742 7.08144 8.76563 6.96235 8.82185 6.85357L11.6348 1.42857H4.38359L1.91649 9.28571Z" fill="#032E61"/>
<path d="M5.00012 7.85702C4.87177 7.8571 4.74513 7.83178 4.63008 7.78303C4.51503 7.73428 4.41467 7.66342 4.33682 7.57596C4.25897 7.48851 4.20575 7.38683 4.18129 7.27885C4.15683 7.17087 4.1618 7.05951 4.19581 6.95345L5.44603 3.02488C5.47476 2.93436 5.52402 2.84958 5.59098 2.77537C5.65795 2.70117 5.74131 2.63899 5.83631 2.5924C5.93132 2.5458 6.0361 2.5157 6.14468 2.50381C6.25325 2.49192 6.3635 2.49847 6.46912 2.52309C6.57475 2.54772 6.67368 2.58993 6.76026 2.64732C6.84685 2.7047 6.9194 2.77615 6.97377 2.85756C7.02814 2.93898 7.06327 3.02878 7.07714 3.12183C7.09102 3.21488 7.08337 3.30936 7.05464 3.39988L5.80443 7.32845C5.75679 7.48007 5.65219 7.614 5.5068 7.70955C5.36141 7.8051 5.18334 7.85693 5.00012 7.85702Z" fill="white"/>
</svg>
