<svg width="28" height="20" viewBox="0 0 28 20" fill="none" xmlns="http://www.w3.org/2000/svg">
<path d="M15.004 0.648987C16.8 0.648987 18.384 1.676 19.23 3.189C19.97 2.865 20.762 2.64899 21.608 2.64899C24.883 2.64899 27.525 5.351 27.525 8.703C27.525 12.054 24.883 14.757 21.608 14.757C21.2182 14.7503 20.8294 14.7142 20.445 14.649C20.0733 15.3339 19.524 15.9062 18.8549 16.3056C18.1857 16.7051 17.4213 16.9169 16.642 16.919C15.955 16.919 15.321 16.757 14.74 16.486C14.3689 17.3849 13.7385 18.1529 12.9292 18.6921C12.12 19.2314 11.1685 19.5175 10.196 19.514C9.17532 19.5119 8.18034 19.1937 7.34785 18.6031C6.51537 18.0126 5.88626 17.1787 5.547 16.216C5.23 16.27 4.913 16.324 4.597 16.324C2.06 16.324 0 14.216 0 11.622C0 9.89201 0.898003 8.37799 2.272 7.56799C1.99474 6.88045 1.85117 6.14634 1.849 5.405C1.849 2.432 4.226 0 7.185 0C9.034 0.054 10.566 0.864987 11.517 2.16199C12.415 1.24299 13.63 0.648987 15.004 0.648987Z" fill="#00A1E0"/>
<path fillRule="evenodd" clipRule="evenodd" d="M4.00633 9.47681C3.98882 9.52483 4.01258 9.53484 4.01821 9.54335C4.07054 9.58318 4.12369 9.61204 4.17694 9.64444C4.46163 9.80271 4.72993 9.84901 5.01053 9.84901C5.58195 9.84901 5.9373 9.52924 5.9373 9.01461V9.00449C5.9373 8.52861 5.53587 8.35527 5.16106 8.23146L5.11201 8.21477C4.82835 8.11809 4.5836 8.0339 4.5836 7.83795V7.82794C4.5836 7.65998 4.72696 7.53617 4.94816 7.53617C5.19394 7.53617 5.48682 7.62219 5.67422 7.73104C5.67422 7.73104 5.72972 7.76872 5.7499 7.71241C5.76086 7.68194 5.8564 7.41311 5.86664 7.38296C5.8775 7.35141 5.85845 7.32762 5.83889 7.31535C5.62384 7.17754 5.32686 7.08387 5.01964 7.08387L4.9626 7.08408C4.43931 7.08408 4.07372 7.41677 4.07372 7.89264V7.90287C4.07372 8.40458 4.4772 8.56823 4.85405 8.68128L4.91467 8.70109C5.18912 8.78981 5.4267 8.86689 5.4267 9.0693V9.07942C5.4267 9.26568 5.27207 9.40457 5.02425 9.40457C4.92789 9.40457 4.62077 9.40285 4.28795 9.1817C4.2477 9.15705 4.22477 9.13928 4.19374 9.11937C4.17735 9.10892 4.13639 9.09008 4.11857 9.1465L4.00592 9.47595M12.3725 9.47595C12.355 9.52397 12.3787 9.53398 12.3846 9.54249C12.4367 9.58232 12.4901 9.61118 12.5433 9.64358C12.828 9.80185 13.0963 9.84815 13.3769 9.84815C13.9483 9.84815 14.3037 9.52838 14.3037 9.01375V9.00363C14.3037 8.52775 13.9033 8.35441 13.5274 8.2306L13.4784 8.21391C13.1947 8.11723 12.95 8.03304 12.95 7.83709V7.82707C12.95 7.65912 13.0933 7.5353 13.3145 7.5353C13.5603 7.5353 13.8522 7.62133 14.0406 7.73018C14.0406 7.73018 14.0961 7.76786 14.1164 7.71155C14.1272 7.68108 14.2229 7.41224 14.2321 7.3821C14.243 7.35055 14.2239 7.32676 14.2044 7.31449C13.9894 7.17668 13.6924 7.08301 13.3852 7.08301L13.328 7.08322C12.8048 7.08322 12.4392 7.41591 12.4392 7.89178V7.90201C12.4392 8.40372 12.8426 8.56737 13.2195 8.68042L13.28 8.70023C13.5555 8.78895 13.792 8.86603 13.792 9.06844V9.07856C13.792 9.26482 13.6374 9.40371 13.3896 9.40371C13.293 9.40371 12.9851 9.40199 12.6533 9.18084C12.613 9.15619 12.5895 9.13918 12.559 9.11851C12.5486 9.11161 12.5004 9.0918 12.4839 9.14564L12.3713 9.47509M18.0855 8.46735C18.0855 8.75805 18.0339 8.98737 17.9329 9.14994C17.8322 9.31036 17.68 9.38896 17.468 9.38896C17.256 9.38896 17.1045 9.31101 17.0051 9.15102C16.9051 8.98952 16.8546 8.75912 16.8546 8.46843C16.8546 8.17774 16.9054 7.94949 17.0051 7.78907C17.1043 7.62973 17.255 7.55328 17.468 7.55328C17.681 7.55328 17.8326 7.63048 17.9329 7.78907C18.0345 7.94949 18.0855 8.17774 18.0855 8.46843M18.5627 7.92903C18.5157 7.76215 18.4429 7.61573 18.3456 7.49299C18.2482 7.37026 18.1255 7.2712 17.979 7.20015C17.8336 7.12855 17.6616 7.09248 17.467 7.09248C17.2724 7.09248 17.1014 7.12876 16.955 7.20015C16.8095 7.27164 16.6856 7.37026 16.5883 7.49299C16.4913 7.61573 16.4184 7.76215 16.3712 7.92903C16.3247 8.09484 16.301 8.27571 16.301 8.46843C16.301 8.66115 16.3247 8.84202 16.3712 9.00783C16.418 9.17471 16.4911 9.32113 16.5883 9.44387C16.6857 9.5666 16.8095 9.66458 16.955 9.73456C17.1014 9.80433 17.2734 9.83985 17.467 9.83985C17.6605 9.83985 17.8326 9.80433 17.978 9.73456C18.1234 9.66479 18.2473 9.5666 18.3446 9.44387C18.4418 9.32113 18.5146 9.17471 18.5617 9.00783C18.6082 8.84202 18.6319 8.66115 18.6319 8.46843C18.6319 8.27679 18.6082 8.09484 18.5617 7.92903M22.4839 9.30713C22.4682 9.25836 22.4229 9.27677 22.4229 9.27677C22.3536 9.30466 22.2796 9.3305 22.2007 9.34342C22.1212 9.35655 22.0328 9.36312 21.9396 9.36312C21.7092 9.36312 21.5248 9.29088 21.3937 9.14779C21.2616 9.0046 21.1879 8.7742 21.1889 8.46197C21.1897 8.17774 21.255 7.96456 21.3722 7.80091C21.488 7.63942 21.6661 7.55544 21.9017 7.55544C22.0983 7.55544 22.2488 7.57945 22.4065 7.63134C22.4065 7.63134 22.4439 7.64846 22.4618 7.59667C22.5037 7.47501 22.5347 7.3878 22.5796 7.2543C22.5923 7.21608 22.5612 7.19993 22.5498 7.1953C22.488 7.16989 22.3419 7.12823 22.2313 7.11068C22.1279 7.0941 22.0081 7.08548 21.8729 7.08548C21.6722 7.08548 21.494 7.12155 21.3414 7.19304C21.1888 7.26442 21.0598 7.36315 20.9574 7.48589C20.855 7.60862 20.7772 7.75505 20.7249 7.92193C20.6732 8.08773 20.6471 8.26968 20.6471 8.4624C20.6471 8.87798 20.7536 9.21497 20.9646 9.46152C21.1755 9.70915 21.493 9.83404 21.9067 9.83404C22.1515 9.83404 22.4023 9.78204 22.5826 9.707C22.5826 9.707 22.617 9.68956 22.602 9.64735L22.4843 9.30713M23.3189 8.18743C23.3417 8.02593 23.3838 7.89135 23.45 7.78692C23.549 7.62757 23.6998 7.54037 23.9118 7.54037C24.1238 7.54037 24.2641 7.628 24.3644 7.78692C24.431 7.89189 24.4601 8.03131 24.4709 8.18743L23.3138 8.18721L23.3189 8.18743ZM24.9267 7.83213C24.886 7.67172 24.7853 7.50914 24.7198 7.43485C24.6153 7.3175 24.514 7.2346 24.4126 7.18938C24.2662 7.12395 24.1088 7.09036 23.9497 7.09065C23.748 7.09065 23.5647 7.1265 23.4162 7.19939C23.2677 7.27282 23.1427 7.37273 23.0444 7.49762C22.9462 7.62251 22.8724 7.77001 22.8253 7.93904C22.7782 8.10592 22.7544 8.28895 22.7544 8.4806C22.7544 8.67654 22.7791 8.8585 22.8276 9.02322C22.8767 9.18903 22.9556 9.33437 23.0621 9.45496C23.1687 9.57662 23.3049 9.67136 23.4687 9.73811C23.6315 9.80433 23.8292 9.83867 24.0555 9.83792C24.5225 9.8363 24.7682 9.72702 24.8686 9.66781C24.8865 9.65726 24.9034 9.63906 24.8823 9.58663L24.7768 9.27548C24.7607 9.22908 24.716 9.24587 24.716 9.24587C24.6003 9.29131 24.4364 9.37292 24.0524 9.37184C23.8015 9.37141 23.6162 9.29357 23.4994 9.17158C23.3806 9.04669 23.3212 8.86474 23.312 8.60635L24.93 8.60764C24.93 8.60764 24.9726 8.60721 24.977 8.5635C24.9788 8.54541 25.0324 8.21467 24.9288 7.83246L24.9267 7.83213ZM10.385 8.18743C10.4078 8.02593 10.45 7.89135 10.5161 7.78692C10.6152 7.62757 10.7659 7.54037 10.9779 7.54037C11.1899 7.54037 11.3302 7.628 11.4306 7.78692C11.497 7.89189 11.5261 8.03131 11.5371 8.18743L10.3799 8.18721L10.385 8.18743ZM11.9928 7.83213C11.9522 7.67172 11.8515 7.50914 11.7859 7.43485C11.6815 7.3175 11.5801 7.2346 11.4787 7.18938C11.3323 7.12395 11.1749 7.09036 11.0158 7.09065C10.8141 7.09065 10.6308 7.1265 10.4823 7.19939C10.3338 7.27282 10.2089 7.37273 10.1106 7.49762C10.0125 7.62251 9.93851 7.77001 9.8914 7.93904C9.8444 8.10592 9.82074 8.28895 9.82074 8.4806C9.82074 8.67654 9.84522 8.8585 9.89406 9.02322C9.94301 9.18903 10.0221 9.33437 10.1276 9.45496C10.2341 9.57662 10.3703 9.67136 10.5341 9.73811C10.6969 9.80433 10.8935 9.83867 11.1209 9.83792C11.5879 9.8363 11.8336 9.72702 11.934 9.66781C11.9518 9.65726 11.9688 9.63906 11.9476 9.58663L11.8421 9.27548C11.8259 9.22908 11.7812 9.24587 11.7812 9.24587C11.6655 9.29131 11.5016 9.37292 11.1176 9.37184C10.8677 9.37141 10.6814 9.29357 10.5646 9.17158C10.4458 9.04669 10.3864 8.86474 10.3772 8.60635L11.9952 8.60764C11.9952 8.60764 12.0378 8.60721 12.0422 8.5635C12.044 8.54541 12.0976 8.21467 11.9939 7.83246L11.9928 7.83213ZM6.89295 9.29637C6.82956 9.24318 6.82076 9.23015 6.79976 9.19559C6.76771 9.14359 6.75133 9.06963 6.75133 8.97488C6.75133 8.82631 6.79843 8.71864 6.89572 8.64651C6.89469 8.64672 7.03499 8.51946 7.36474 8.52377C7.51151 8.52653 7.65794 8.53966 7.80304 8.56307V9.33502H7.80324C7.80324 9.33502 7.59843 9.38142 7.36699 9.39606C7.03827 9.41684 6.89285 9.29658 6.89388 9.2969L6.89295 9.29637ZM7.53606 8.1013C7.47052 8.09623 7.38553 8.09376 7.28414 8.09376C7.1459 8.09376 7.01175 8.11185 6.88681 8.14738C6.76085 8.18312 6.64718 8.23846 6.54989 8.3121C6.45234 8.38527 6.3721 8.48105 6.31538 8.59203C6.25814 8.704 6.22895 8.83535 6.22895 8.98393C6.22895 9.13466 6.25384 9.26493 6.30299 9.37152C6.35116 9.47724 6.42367 9.56865 6.51395 9.63745C6.60376 9.70614 6.71467 9.75695 6.84267 9.7871C6.96966 9.81757 7.11302 9.83296 7.27073 9.83296C7.43663 9.83296 7.6015 9.81832 7.76125 9.79001C7.89732 9.76533 8.03287 9.73762 8.16781 9.70689C8.22167 9.69386 8.28148 9.67674 8.28148 9.67674C8.32142 9.66608 8.31834 9.62119 8.31834 9.62119L8.31742 8.07083C8.31742 7.73061 8.23099 7.4776 8.06038 7.32148C7.89039 7.16537 7.64154 7.08678 7.31896 7.08678C7.19812 7.08678 7.00253 7.104 6.88579 7.12866C6.88579 7.12866 6.53351 7.20058 6.38809 7.3203C6.38809 7.3203 6.35614 7.34097 6.37355 7.38781L6.48825 7.7108C6.50248 7.75268 6.54129 7.73836 6.54129 7.73836C6.54129 7.73836 6.55348 7.7333 6.56782 7.72436C6.87811 7.54672 7.27134 7.5521 7.27134 7.5521C7.44543 7.5521 7.58061 7.58924 7.67073 7.66192C7.7589 7.73308 7.80386 7.84064 7.80386 8.06673V8.13855C7.66561 8.11744 7.5376 8.10528 7.5376 8.10528L7.53606 8.1013ZM20.5416 7.22599C20.544 7.22031 20.5452 7.2142 20.5452 7.20801C20.5452 7.20183 20.5441 7.1957 20.5418 7.19C20.5396 7.18429 20.5362 7.17912 20.532 7.1748C20.5278 7.17048 20.5228 7.16709 20.5174 7.16483C20.4898 7.15385 20.3525 7.12338 20.247 7.11649C20.0442 7.10314 19.9316 7.1391 19.8302 7.1869C19.7301 7.23438 19.6193 7.31072 19.5578 7.399L19.5576 7.19229C19.5576 7.16386 19.5385 7.14093 19.5112 7.14093H19.0975C19.0707 7.14093 19.0512 7.16386 19.0512 7.19229V9.72239C19.0512 9.73606 19.0564 9.74916 19.0656 9.75883C19.0748 9.76849 19.0873 9.77394 19.1003 9.77396H19.5242C19.5372 9.77394 19.5497 9.76849 19.5588 9.75882C19.568 9.74915 19.5732 9.73605 19.5732 9.72239V8.45196C19.5732 8.28185 19.591 8.11281 19.6265 8.00623C19.6616 7.90082 19.7092 7.81674 19.7678 7.75645C19.8238 7.69821 19.8923 7.65501 19.9675 7.63048C20.0381 7.60918 20.1112 7.59838 20.1846 7.5984C20.2691 7.5984 20.3618 7.62122 20.3618 7.62122C20.3929 7.62488 20.4102 7.60486 20.4208 7.57536C20.4485 7.49773 20.5273 7.26528 20.5427 7.21899" fill="#FFFFFE"/>
<path fillRule="evenodd" clipRule="evenodd" d="M16.5818 6.05778C16.5293 6.04113 16.476 6.02783 16.4221 6.01795C16.3496 6.00522 16.2761 5.99924 16.2025 6.00008C15.9104 6.00008 15.6801 6.08686 15.5184 6.25826C15.3578 6.42837 15.2485 6.68751 15.1937 7.02849L15.174 7.14358H14.8073C14.8073 7.14358 14.7625 7.14164 14.7531 7.193L14.6929 7.54613C14.6887 7.57994 14.7025 7.60104 14.7455 7.60083H15.1025L14.7403 9.72644C14.7119 9.89763 14.6795 10.0385 14.6435 10.1451C14.6081 10.2504 14.5735 10.3294 14.5309 10.3866C14.4896 10.4421 14.4505 10.4829 14.383 10.5067C14.3273 10.5264 14.2632 10.5354 14.1929 10.5354C14.1538 10.5354 14.1018 10.5285 14.0634 10.5205C14.025 10.5125 14.005 10.5035 13.9762 10.4907C13.9762 10.4907 13.9344 10.474 13.9179 10.5181C13.9045 10.5542 13.8093 10.8292 13.7981 10.8633C13.7866 10.8969 13.8027 10.9233 13.8229 10.931C13.8705 10.9489 13.9058 10.9603 13.9705 10.9763C14.0604 10.9986 14.1362 11 14.2072 11C14.3559 11 14.4913 10.978 14.6037 10.9354C14.7167 10.8924 14.8151 10.8176 14.9022 10.7163C14.9963 10.607 15.0555 10.4926 15.1121 10.3365C15.1681 10.1818 15.2159 9.98968 15.2541 9.76585L15.618 7.60083H16.1501C16.1501 7.60083 16.195 7.60255 16.2043 7.55141L16.2645 7.19827C16.2687 7.16446 16.255 7.14336 16.2118 7.14358H15.6953C15.6979 7.1313 15.7213 6.94031 15.7806 6.76051C15.8059 6.68374 15.8535 6.62184 15.8939 6.57931C15.9316 6.53881 15.978 6.50845 16.0292 6.49081C16.0853 6.47257 16.1438 6.4637 16.2025 6.46454C16.2512 6.46454 16.2989 6.47068 16.3353 6.47864C16.3853 6.48984 16.4048 6.49576 16.4179 6.49985C16.4705 6.51676 16.4776 6.50039 16.4879 6.47358L16.6115 6.117C16.6241 6.07867 16.5932 6.06252 16.5818 6.05778ZM9.36479 9.73096C9.36479 9.75939 9.34554 9.78253 9.3185 9.78253H8.89014C8.863 9.78253 8.84375 9.75939 8.84375 9.73096V6.10613C8.84375 6.07781 8.863 6.05488 8.89014 6.05488H9.3185C9.34554 6.05488 9.36479 6.07781 9.36479 6.10613V9.73096Z" fill="#FFFFFE"/>
<path d="M9.29297 14H9.08416L9.87784 11.8182H10.0909L10.8846 14H10.6758L9.99183 12.0771H9.97692L9.29297 14ZM9.44318 13.1637H10.5256V13.3427H9.44318V13.1637ZM11.2585 14V11.8182H11.9627C12.1175 11.8182 12.2468 11.848 12.3505 11.9077C12.4549 11.9666 12.5334 12.0469 12.5859 12.1484C12.6392 12.25 12.6658 12.3643 12.6658 12.4915C12.6658 12.6186 12.6396 12.7333 12.587 12.8356C12.5344 12.9371 12.4563 13.0178 12.3526 13.0774C12.2489 13.1364 12.12 13.1658 11.9659 13.1658H11.4119V12.9869H11.9606C12.0749 12.9869 12.1697 12.9656 12.245 12.9229C12.3203 12.8796 12.3764 12.8207 12.4134 12.7461C12.451 12.6715 12.4698 12.5866 12.4698 12.4915C12.4698 12.3963 12.451 12.3114 12.4134 12.2369C12.3764 12.1623 12.32 12.1037 12.244 12.0611C12.1687 12.0185 12.0732 11.9972 11.9574 11.9972H11.4577V14H11.2585ZM13.1335 14V11.8182H14.3991V11.9972H13.3327V12.8185H14.332V12.9975H13.3327V13.821H14.4205V14H13.1335ZM14.9489 11.8182L15.5529 12.7653H15.5668L16.1708 11.8182H16.4062L15.7042 12.9091L16.4062 14H16.1708L15.5668 13.0636H15.5529L14.9489 14H14.7134L15.4261 12.9091L14.7134 11.8182H14.9489Z" fill="white"/>
</svg>
