<svg width="20" height="20" viewBox="0 0 20 20" fill="none" xmlns="http://www.w3.org/2000/svg">
<g clip-path="url(#clip0_610_2)">
<path d="M18.8281 0H1.17188C0.524666 0 0 0.524666 0 1.17188V18.8281C0 19.4753 0.524666 20 1.17188 20H18.8281C19.4753 20 20 19.4753 20 18.8281V1.17188C20 0.524666 19.4753 0 18.8281 0Z" fill="#F03E2F"/>
<path d="M6.30957 5.34082C6.30957 7.02195 7.33344 8.0252 9.39008 8.55848L11.5624 9.07363C13.5033 9.52555 14.6874 10.6554 14.6874 12.4811C14.6874 13.3488 14.4203 14.0989 13.9662 14.6864C13.9662 12.8607 13.0314 11.8665 10.7879 11.279L8.65109 10.7909C6.94168 10.3932 5.62402 9.47133 5.62402 7.48289C5.62402 6.66043 5.87332 5.93734 6.30957 5.34082Z" fill="white"/>
<path opacity="0.5" d="M12.6309 12.0381C13.5568 12.6437 13.9663 13.4842 13.9663 14.6954C13.1918 15.6896 11.8474 16.25 10.2627 16.25C7.60059 16.25 5.72203 14.9123 5.3125 12.6075H7.8766C8.20602 13.674 9.07852 14.1621 10.2448 14.1621C11.6693 14.1531 12.6131 13.3848 12.6309 12.0381Z" fill="white"/>
<path opacity="0.5" d="M7.64504 7.84437C6.75473 7.2659 6.30957 6.45246 6.30957 5.34977C7.05742 4.35559 8.33949 3.75 9.91535 3.75C12.6308 3.75 14.2066 5.20516 14.5984 7.25688H12.1233C11.8473 6.45246 11.1707 5.81977 9.93316 5.81977C8.60656 5.81977 7.70738 6.60609 7.64504 7.84437Z" fill="white"/>
</g>
<defs>
<clipPath id="clip0_610_2">
<rect width="20" height="20" fill="white"/>
</clipPath>
</defs>
</svg>
