<svg width="24" height="20" viewBox="0 0 24 20" fill="none" xmlns="http://www.w3.org/2000/svg">
<path d="M20.6602 11.4971C20.6895 11.4963 20.724 11.4955 20.7592 11.4955C21.385 11.4955 21.9771 11.6572 22.5023 11.9455L22.479 11.9338C22.9578 12.193 23.3509 12.5764 23.6353 13.0464L23.6421 13.058C23.8664 13.4214 24 13.8706 24 14.3539C24 14.3889 23.9993 14.4239 23.9978 14.4581V14.4531C23.9745 14.9356 23.7771 15.3615 23.474 15.6598L23.4725 15.6615C23.3067 15.8423 23.1063 15.984 22.8835 16.074L22.8722 16.0782C22.7472 16.1059 22.6784 16.0851 22.6659 16.0157C22.6534 15.9462 22.7096 15.8698 22.8347 15.7865C23.1739 15.5581 23.4192 15.1898 23.5085 14.7556L23.5108 14.7448C23.513 14.7098 23.5145 14.6689 23.5145 14.6273C23.5145 14.3681 23.459 14.1231 23.3607 13.9064L23.3645 13.9156C23.2016 13.5381 22.9585 13.2281 22.6591 13.0039L22.6516 12.9989C22.2037 12.6789 21.6664 12.4689 21.0886 12.4164L21.0766 12.4155C20.88 12.383 20.6534 12.3647 20.4223 12.3647C19.8213 12.3647 19.2473 12.4905 18.719 12.7197L18.7505 12.7072C18.8593 12.9897 18.9276 13.3172 18.9374 13.6606V13.6647C18.9254 14.3689 18.5847 14.9815 18.0782 15.3231L18.07 15.3281C17.8374 15.5115 17.5717 15.6723 17.2889 15.7973L17.2626 15.8073C17.0908 15.9007 16.8889 15.9548 16.6758 15.9548C16.6511 15.9548 16.627 15.954 16.603 15.9523H16.6068C16.1321 15.8418 16.0195 15.3834 16.2691 14.5773C16.3779 14.2264 16.5302 13.9222 16.7231 13.6547L16.7186 13.6606C16.9655 13.3022 17.2363 12.988 17.5357 12.7097L17.544 12.7022L17.4704 12.5805C17.3331 12.3205 17.2071 12.018 17.1058 11.7022L17.0953 11.6638C17.0202 11.386 16.9577 11.1224 16.9077 10.873L16.8702 10.5813L16.495 11.3721C16.1698 12.0388 15.8572 12.6219 15.557 13.1214L15.4445 13.3297C15.5706 13.6697 15.6636 14.0639 15.7056 14.4756L15.7071 14.4964C15.7101 14.5356 15.7116 14.5823 15.7116 14.6289C15.7116 15.2606 15.431 15.819 15.0003 16.1598L14.995 16.164C14.7894 16.3048 14.5441 16.4507 14.2897 16.5807L14.2447 16.6015C13.9798 16.729 13.6729 16.8124 13.351 16.8307H13.3443C13.3195 16.8324 13.2902 16.834 13.261 16.834C13.0734 16.834 12.8955 16.7865 12.7365 16.7024L12.744 16.7057C12.6487 16.6149 12.5887 16.4815 12.5887 16.3323C12.5887 16.2565 12.6044 16.184 12.6322 16.1198L12.6307 16.1232C12.9308 15.6557 13.2265 15.249 13.5408 14.8606L13.5311 14.8731L14.3565 13.7072L14.2072 13.3322C14.0871 13.0872 13.9723 12.798 13.88 12.498L13.8695 12.458C13.7945 12.1802 13.7319 11.9166 13.6819 11.6672L13.6444 11.3755L13.2692 12.3755C12.9696 13.1528 12.6945 13.8192 12.4438 14.3748C12.0702 15.2081 11.7575 15.847 11.5059 16.2915L11.4309 16.4165C11.1312 16.9438 10.8436 17.2074 10.568 17.2074C10.2923 17.2074 10.1055 17.0129 10.0074 16.624C9.93541 16.3373 9.89339 16.0082 9.89339 15.6682C9.89339 15.6382 9.89339 15.6082 9.89414 15.5781V15.5823L9.96917 14.999V15.0406C9.76908 15.5679 9.56899 16.0537 9.36889 16.4982C9.23608 16.7865 9.09952 17.0324 8.94644 17.2641L8.9562 17.2482C8.80163 17.4282 8.58402 17.5399 8.34316 17.5399C8.34091 17.5399 8.33941 17.5399 8.33716 17.5399C8.3214 17.5416 8.30339 17.5416 8.28539 17.5416C8.09555 17.5416 7.92296 17.4616 7.7924 17.3307L7.79315 17.3316C7.53128 17.0332 7.33694 16.6607 7.23639 16.2448L7.23264 16.2273C7.10958 15.8482 7.03905 15.4098 7.03905 14.9531C7.03905 14.894 7.04055 14.8356 7.0428 14.7781V14.7864C7.10208 14.1231 7.22139 13.5156 7.39622 12.9364L7.38046 12.9955L6.03058 13.8706V13.9122C6.22642 14.3639 6.34122 14.894 6.34122 15.454C6.34122 15.5565 6.33747 15.6582 6.32997 15.7582L6.33072 15.7448C6.29095 16.6032 6.04408 17.3891 5.64565 18.0533L5.6554 18.0366C5.23746 18.7733 4.63492 19.3425 3.91909 19.6717L3.89433 19.6817C3.49139 19.8825 3.02017 20 2.52493 20C2.21129 20 1.90664 19.9533 1.61851 19.865L1.64252 19.8708C1.40391 19.7817 1.20882 19.605 1.08501 19.3766L1.08276 19.3716C0.907926 19.09 0.797624 18.7458 0.780366 18.3749V18.3699C0.772112 18.2858 0.76761 18.1883 0.76761 18.0891C0.76761 17.6616 0.855401 17.2566 1.01222 16.8957L1.00547 16.9124C1.43617 16.0965 2.03195 15.4356 2.74329 14.9706L2.7658 14.9573C3.26928 14.5698 3.8478 14.1939 4.45184 13.8664L4.53137 13.8272L4.71896 13.7022C4.49386 13.5078 4.08116 13.1744 3.48088 12.7022C2.67876 12.1055 1.98168 11.503 1.32437 10.8513L1.34313 10.8696C0.707582 10.2621 0.244615 9.45039 0.0367672 8.52619L0.0307644 8.49452C0.0112553 8.36618 0 8.21868 0 8.06867C0 7.59865 0.108801 7.15696 0.29939 6.77278L0.293388 6.78695C0.713585 5.78357 1.29586 4.93771 2.01019 4.25768L2.0192 4.24934C2.79206 3.43848 3.66697 2.73261 4.61691 2.16092L4.68219 2.12509C5.53084 1.5809 6.52206 1.07504 7.55529 0.669195L7.68285 0.625859C8.64255 0.235843 9.75082 0.00750031 10.9064 0.00333347H10.9079C10.9604 0.00166674 11.0227 0 11.0849 0C12.0161 0 12.897 0.239177 13.6804 0.665028L13.6459 0.647527C14.3212 0.989208 14.827 1.63257 15.0295 2.41927L15.034 2.43927C15.0963 2.70761 15.1316 3.01596 15.1316 3.33347C15.1316 3.86016 15.0333 4.36185 14.857 4.81687L14.8652 4.7927C14.5441 5.6569 14.0871 6.39277 13.5168 6.99862L13.5146 7.00113C12.9368 7.63698 12.2442 8.14534 11.4751 8.48452L11.4339 8.50035C10.628 8.88454 9.69229 9.12621 8.71008 9.16621L8.69583 9.16705C8.55176 9.18538 8.38518 9.19538 8.21635 9.19538C7.77214 9.19538 7.34369 9.12455 6.9385 8.99204L6.97077 9.00121C6.60835 8.87287 6.29545 8.67369 6.02983 8.41535L6.03283 8.41785C5.84674 8.24951 5.69517 8.042 5.58712 7.80616L5.58262 7.79532C5.50758 7.57309 5.50133 7.44114 5.56386 7.39947C5.62639 7.35781 5.67016 7.35086 5.69517 7.37864L5.88276 7.58698C6.09211 7.80283 6.34197 7.97283 6.6181 8.08117L6.63311 8.08617C7.01279 8.23284 7.45099 8.31785 7.90646 8.31785C8.05278 8.31785 8.19684 8.30951 8.33866 8.29201L8.3214 8.29368C9.53547 8.13451 10.6302 7.67449 11.5749 6.98279L11.5472 7.00196C12.3455 6.47444 12.9916 5.74941 13.4463 4.8852L13.4598 4.85687C13.6857 4.48852 13.8207 4.0335 13.8207 3.54348C13.8207 3.24264 13.7697 2.95429 13.6767 2.68928L13.6819 2.70511C13.4013 2.21259 12.9473 1.86591 12.4176 1.77007L12.4071 1.76841C11.9959 1.6559 11.5232 1.5909 11.0377 1.5909C10.6467 1.5909 10.2641 1.63257 9.89414 1.71257L9.93166 1.7059C8.66581 1.95925 7.53428 2.39343 6.49054 2.99012L6.55883 2.95429C3.48338 4.67658 1.89539 6.44027 1.79484 8.24534V8.28618C1.79484 9.01371 2.05221 9.67457 2.47166 10.1629L2.47091 10.1621C2.94888 10.7521 3.47713 11.273 4.05415 11.723L4.08341 11.7447C4.60941 12.1813 5.07463 12.6322 5.50758 13.1189L5.50833 13.1205L5.58337 13.2039L7.98449 11.7463C8.25837 11.3063 8.58778 10.9346 8.96595 10.6346L8.97796 10.6254C9.2781 10.3454 9.65928 10.1629 10.0772 10.1263L10.084 10.1254C10.099 10.1238 10.1162 10.1238 10.1343 10.1238C10.4141 10.1238 10.6542 10.3113 10.7578 10.5796L10.7593 10.5846C10.8381 10.7804 10.8839 11.0096 10.8839 11.2505C10.8839 11.3238 10.8794 11.3963 10.8711 11.468L10.8718 11.4596L10.7991 11.8705L10.9116 11.7872C10.9897 11.7213 11.0879 11.6822 11.1945 11.6822C11.262 11.6822 11.3258 11.698 11.3836 11.7263L11.3806 11.7247C11.5247 11.7663 11.629 11.9097 11.629 12.0797C11.629 12.1088 11.626 12.1372 11.6199 12.1647L11.6207 12.1622L11.5081 12.6205C11.283 13.62 11.1332 14.342 11.0587 14.7864C11.0212 14.9306 11.0002 15.0965 11.0002 15.2681C11.0002 15.304 11.0009 15.339 11.0032 15.374V15.369C11.0157 15.5356 11.0344 15.619 11.0594 15.619C11.0844 15.619 11.1342 15.5356 11.2088 15.369L11.3213 15.0773C11.3463 15.0773 11.3463 15.0912 11.3213 15.119L11.734 14.1606C12.7095 11.7727 13.2345 10.4393 13.309 10.1604L13.5341 9.36956C13.5591 9.314 13.6592 9.25872 13.8342 9.20372C14.0121 9.15038 14.2154 9.11955 14.4255 9.11955C14.4428 9.11955 14.46 9.11955 14.4765 9.12038H14.4743C14.8244 9.12038 14.9995 9.21761 14.9995 9.41206L14.962 9.6204C14.878 9.87708 14.7947 10.1979 14.7302 10.5263L14.7219 10.5788C14.7069 10.6863 14.6979 10.8096 14.6979 10.9363C14.6979 11.1046 14.7129 11.2688 14.7422 11.428L14.7399 11.4121L14.7774 11.578C14.854 11.9255 14.9703 12.2305 15.1226 12.5089L15.1151 12.4947C15.4147 11.9397 15.7024 11.3705 15.978 10.7871C16.1956 10.3846 16.3982 9.91791 16.561 9.42956L16.5783 9.37122C16.6345 9.05704 16.6991 8.79203 16.7779 8.53369L16.7659 8.58036C16.7909 8.49702 16.8977 8.43452 17.0863 8.39285C17.2648 8.35285 17.4697 8.33035 17.679 8.33035H17.7061H17.7045C18.0547 8.33035 18.2416 8.42757 18.2651 8.62203L18.19 8.78787C18.1007 9.06788 18.0227 9.40456 17.9702 9.75041L17.9657 9.78791C17.9589 9.86874 17.9544 9.96208 17.9544 10.0571C17.9544 10.2563 17.9724 10.4513 18.0062 10.6396L18.0032 10.6204V10.7863C18.0895 11.1496 18.2178 11.4688 18.3859 11.758L18.3784 11.7447L18.4909 12.0363C19.1175 11.6947 19.8543 11.4946 20.6332 11.4946H20.6624H20.6609L20.6602 11.4971ZM4.57339 17.5416C5.09489 16.9432 5.41679 16.1265 5.41679 15.2265C5.41679 14.879 5.36877 14.5439 5.28023 14.2289L5.28623 14.2523L4.68595 14.6689C4.07366 15.0565 3.54391 15.489 3.06444 15.9807L3.07044 15.9748C2.70652 16.3465 2.43789 16.8274 2.30583 17.3699L2.30133 17.3907C2.18878 17.9046 2.24505 18.238 2.47016 18.3908C2.60747 18.4608 2.7688 18.5016 2.93763 18.5016C3.12221 18.5016 3.29705 18.4533 3.45087 18.3666L3.44411 18.3699C3.88982 18.1899 4.26725 17.9041 4.56739 17.5382L4.56964 17.5357L4.57339 17.5416ZM9.5985 13.7047C9.72356 13.3436 9.86112 12.913 10.0112 12.413C10.2113 11.7463 10.2801 11.3577 10.2175 11.2471C10.155 11.1366 10.0362 11.1227 9.86112 11.2055C9.65253 11.318 9.47769 11.4721 9.33813 11.6613L9.33588 11.6647C9.1798 11.8838 9.03123 12.1288 8.89917 12.3863L8.88567 12.4147C8.73409 12.6905 8.60578 13.008 8.51649 13.3447L8.50974 13.3731C8.36492 13.8089 8.28088 14.3131 8.28088 14.8381C8.28088 14.909 8.28238 14.979 8.28539 15.049V15.039C8.3104 15.594 8.39043 15.8926 8.5255 15.9348C8.66056 15.9771 8.81688 15.7757 8.99447 15.3306C9.1663 14.9865 9.31937 14.5864 9.43342 14.1673L9.44393 14.1223C9.51846 13.9256 9.56949 13.7864 9.597 13.7047H9.5985ZM13.76 15.9132C14.2799 15.654 14.6461 15.1081 14.6971 14.4623L14.6979 14.4556V14.4139L14.2852 14.9973L13.5356 15.914C13.5243 15.924 13.5168 15.939 13.5168 15.9557C13.5168 15.9723 13.5243 15.9873 13.5348 15.9973C13.5589 16.0246 13.6339 15.9968 13.76 15.914V15.9132ZM16.9857 15.1215C17.553 14.9415 17.9612 14.3706 17.9612 13.6947C17.9612 13.6839 17.9612 13.6731 17.9612 13.6622V13.6639C17.9537 13.4972 17.9267 13.3406 17.8824 13.1922L17.8854 13.2047C17.5935 13.4931 17.3541 13.8381 17.1808 14.2273L17.1726 14.2464C16.9469 14.7459 16.8839 15.037 16.9835 15.1198L16.9857 15.1215Z" fill="#F368E0"/>
</svg>
