<svg width="20" height="20" viewBox="0 0 20 20" fill="none" xmlns="http://www.w3.org/2000/svg">
<g clip-path="url(#clip0_557_26)">
<path d="M7.46727 0.315104C10.0552 -0.348582 12.9149 0.039389 15.1971 1.44829C18.0695 3.16915 19.9475 6.42378 19.9975 9.77411C20.1026 13.1579 18.3406 16.513 15.5095 18.3532C12.3582 20.475 7.99925 20.5562 4.78101 18.5395C1.49902 16.5799 -0.415239 12.6274 0.0785731 8.83235C0.472049 4.82266 3.56674 1.28602 7.46727 0.315104Z" fill="#010101"/>
<path d="M7.0714 1.95522C11.9619 -0.00472439 17.9573 3.61345 18.4633 8.86228C19.2503 13.5845 15.336 18.3827 10.5568 18.5214C6.01137 18.9743 1.619 15.1175 1.48994 10.5485C1.15115 6.84917 3.58598 3.17861 7.0714 1.95522Z" fill="white"/>
<path d="M7.56294 9.49274C9.75421 7.70059 11.8979 5.84621 14.1371 4.10645C12.9626 5.91317 11.7546 7.69587 10.5801 9.50259C9.57281 9.50732 8.56551 9.50732 7.56294 9.49314V9.49274ZM9.41542 10.4916C10.4274 10.4916 11.4347 10.4916 12.4424 10.5058C10.2366 12.2893 8.10239 14.1571 5.8584 15.8921C7.03292 14.0854 8.2409 12.2979 9.41542 10.4912V10.4916Z" fill="#010101"/>
</g>
<defs>
<clipPath id="clip0_557_26">
<rect width="20" height="20" fill="white"/>
</clipPath>
</defs>
</svg>
