<svg width="28" height="20" viewBox="0 0 28 20" fill="none" xmlns="http://www.w3.org/2000/svg">
<path d="M15.004 0.648987C16.8 0.648987 18.384 1.676 19.23 3.189C19.97 2.865 20.762 2.64899 21.608 2.64899C24.883 2.64899 27.525 5.351 27.525 8.703C27.525 12.054 24.883 14.757 21.608 14.757C21.2182 14.7503 20.8294 14.7142 20.445 14.649C20.0733 15.3339 19.524 15.9062 18.8549 16.3056C18.1857 16.7051 17.4213 16.9169 16.642 16.919C15.955 16.919 15.321 16.757 14.74 16.486C14.3689 17.3849 13.7385 18.1529 12.9292 18.6921C12.12 19.2314 11.1685 19.5175 10.196 19.514C9.17532 19.5119 8.18034 19.1937 7.34785 18.6031C6.51537 18.0126 5.88626 17.1787 5.547 16.216C5.23 16.27 4.913 16.324 4.597 16.324C2.06 16.324 0 14.216 0 11.622C0 9.89201 0.898003 8.37799 2.272 7.56799C1.99474 6.88045 1.85117 6.14634 1.849 5.405C1.849 2.432 4.226 0 7.185 0C9.034 0.054 10.566 0.864987 11.517 2.16199C12.415 1.24299 13.63 0.648987 15.004 0.648987Z" fill="#00A1E0"/>
<path d="M9.8679 8.89062C9.85464 8.76657 9.79877 8.66998 9.70028 8.60085C9.60275 8.53172 9.47585 8.49716 9.3196 8.49716C9.20975 8.49716 9.11553 8.51373 9.03693 8.54688C8.95833 8.58002 8.8982 8.625 8.85653 8.68182C8.81487 8.73864 8.79356 8.8035 8.79261 8.87642C8.79261 8.93703 8.80634 8.98958 8.83381 9.03409C8.86222 9.0786 8.90057 9.11648 8.94886 9.14773C8.99716 9.17803 9.05066 9.2036 9.10938 9.22443C9.16809 9.24527 9.22727 9.26278 9.28693 9.27699L9.55966 9.34517C9.66951 9.37074 9.77509 9.4053 9.87642 9.44886C9.97869 9.49242 10.0701 9.54735 10.1506 9.61364C10.232 9.67992 10.2964 9.75994 10.3438 9.85369C10.3911 9.94744 10.4148 10.0573 10.4148 10.1832C10.4148 10.3537 10.3712 10.5038 10.2841 10.6335C10.197 10.7623 10.071 10.8632 9.90625 10.9361C9.74242 11.008 9.54403 11.044 9.31108 11.044C9.08475 11.044 8.88826 11.009 8.72159 10.9389C8.55587 10.8688 8.42614 10.7666 8.33239 10.6321C8.23958 10.4976 8.18939 10.3338 8.18182 10.1406H8.70028C8.70786 10.242 8.73911 10.3262 8.79403 10.3935C8.84896 10.4607 8.92045 10.5109 9.00852 10.544C9.09754 10.5772 9.19697 10.5938 9.30682 10.5938C9.4214 10.5938 9.52178 10.5767 9.60795 10.5426C9.69508 10.5076 9.76326 10.4593 9.8125 10.3977C9.86174 10.3352 9.88684 10.2623 9.88778 10.179C9.88684 10.1032 9.86458 10.0407 9.82102 9.99148C9.77746 9.94129 9.71638 9.89962 9.63778 9.86648C9.56013 9.83239 9.46922 9.80208 9.36506 9.77557L9.03409 9.69034C8.79451 9.62879 8.60511 9.53551 8.46591 9.41051C8.32765 9.28456 8.25852 9.11742 8.25852 8.90909C8.25852 8.73769 8.30492 8.58759 8.39773 8.45881C8.49148 8.33002 8.61884 8.23011 8.77983 8.15909C8.94081 8.08712 9.12311 8.05114 9.3267 8.05114C9.53314 8.05114 9.71402 8.08712 9.86932 8.15909C10.0256 8.23011 10.1482 8.32907 10.2372 8.45597C10.3262 8.58191 10.3722 8.7268 10.375 8.89062H9.8679ZM13.484 9.54545C13.484 9.8589 13.4253 10.1274 13.3079 10.3509C13.1914 10.5734 13.0323 10.7438 12.8306 10.8622C12.6299 10.9806 12.4021 11.0398 12.1474 11.0398C11.8926 11.0398 11.6644 10.9806 11.4627 10.8622C11.262 10.7429 11.1029 10.572 10.9854 10.3494C10.869 10.1259 10.8107 9.85795 10.8107 9.54545C10.8107 9.23201 10.869 8.96402 10.9854 8.74148C11.1029 8.51799 11.262 8.34706 11.4627 8.22869C11.6644 8.11032 11.8926 8.05114 12.1474 8.05114C12.4021 8.05114 12.6299 8.11032 12.8306 8.22869C13.0323 8.34706 13.1914 8.51799 13.3079 8.74148C13.4253 8.96402 13.484 9.23201 13.484 9.54545ZM12.9542 9.54545C12.9542 9.32481 12.9196 9.13873 12.8505 8.98722C12.7823 8.83475 12.6876 8.7197 12.5664 8.64205C12.4452 8.56345 12.3055 8.52415 12.1474 8.52415C11.9892 8.52415 11.8496 8.56345 11.7283 8.64205C11.6071 8.7197 11.512 8.83475 11.4428 8.98722C11.3746 9.13873 11.3406 9.32481 11.3406 9.54545C11.3406 9.7661 11.3746 9.95265 11.4428 10.1051C11.512 10.2566 11.6071 10.3717 11.7283 10.4503C11.8496 10.5279 11.9892 10.5668 12.1474 10.5668C12.3055 10.5668 12.4452 10.5279 12.5664 10.4503C12.6876 10.3717 12.7823 10.2566 12.8505 10.1051C12.9196 9.95265 12.9542 9.7661 12.9542 9.54545ZM15.0661 10.0227H15.5433L15.826 10.3892L16.0277 10.6278L16.5121 11.25H16.0007L15.6712 10.8324L15.5305 10.6335L15.0661 10.0227ZM16.5817 9.54545C16.5817 9.8589 16.523 10.1274 16.4055 10.3509C16.2891 10.5734 16.13 10.7438 15.9283 10.8622C15.7275 10.9806 15.4998 11.0398 15.245 11.0398C14.9903 11.0398 14.7621 10.9806 14.5604 10.8622C14.3596 10.7429 14.2005 10.572 14.0831 10.3494C13.9666 10.1259 13.9084 9.85795 13.9084 9.54545C13.9084 9.23201 13.9666 8.96402 14.0831 8.74148C14.2005 8.51799 14.3596 8.34706 14.5604 8.22869C14.7621 8.11032 14.9903 8.05114 15.245 8.05114C15.4998 8.05114 15.7275 8.11032 15.9283 8.22869C16.13 8.34706 16.2891 8.51799 16.4055 8.74148C16.523 8.96402 16.5817 9.23201 16.5817 9.54545ZM16.0518 9.54545C16.0518 9.32481 16.0173 9.13873 15.9482 8.98722C15.88 8.83475 15.7853 8.7197 15.6641 8.64205C15.5429 8.56345 15.4032 8.52415 15.245 8.52415C15.0869 8.52415 14.9472 8.56345 14.826 8.64205C14.7048 8.7197 14.6096 8.83475 14.5405 8.98722C14.4723 9.13873 14.4382 9.32481 14.4382 9.54545C14.4382 9.7661 14.4723 9.95265 14.5405 10.1051C14.6096 10.2566 14.7048 10.3717 14.826 10.4503C14.9472 10.5279 15.0869 10.5668 15.245 10.5668C15.4032 10.5668 15.5429 10.5279 15.6641 10.4503C15.7853 10.3717 15.88 10.2566 15.9482 10.1051C16.0173 9.95265 16.0518 9.7661 16.0518 9.54545ZM17.0838 11V8.09091H17.6108V10.5582H18.892V11H17.0838Z" fill="white"/>
</svg>
