<svg width="19" height="19" viewBox="0 0 19 19" fill="none" xmlns="http://www.w3.org/2000/svg">
<path d="M0 6.25C0 3.3 0 1.8275 0.915 0.9125C1.83 0 3.3025 0 6.2475 0H11.7775C14.7225 0 16.195 0 17.11 0.915C18.025 1.83 18.025 3.3025 18.025 6.2475V11.7775C18.025 14.7225 18.025 16.195 17.11 17.11C16.195 18.025 14.7225 18.025 11.7775 18.025H6.2475C3.3025 18.025 1.83 18.025 0.915 17.11C0 16.195 0 14.7225 0 11.7775V6.2475V6.25Z" fill="#4945FF"/>
<path fill-rule="evenodd" clip-rule="evenodd" d="M12.4352 5.46777H6.36768V8.56277H9.46268V11.6553H12.5577V5.58777C12.5577 5.52277 12.5027 5.46777 12.4352 5.46777Z" fill="white"/>
<path d="M9.34277 8.5625H9.46277V8.6825H9.34277V8.5625Z" fill="white"/>
<path d="M6.37063 8.56305H9.34563C9.41063 8.56305 9.46563 8.61555 9.46563 8.68305V11.658H6.49063C6.47466 11.6581 6.45885 11.6549 6.44412 11.6487C6.4294 11.6425 6.41606 11.6334 6.40488 11.622C6.39371 11.6106 6.38492 11.5971 6.37904 11.5822C6.37316 11.5674 6.3703 11.5515 6.37063 11.5355V8.56055V8.56305Z" fill="#9593FF"/>
<path d="M9.463 11.6553H12.558L9.5655 14.6503C9.55701 14.6579 9.54653 14.6629 9.53528 14.6648C9.52403 14.6666 9.51248 14.6653 9.50199 14.6608C9.4915 14.6563 9.48249 14.649 9.47603 14.6396C9.46957 14.6302 9.46591 14.6192 9.4655 14.6078V11.6578L9.463 11.6553ZM6.3705 8.56277H3.4205C3.40861 8.5628 3.39698 8.5593 3.38709 8.55271C3.37719 8.54612 3.36948 8.53674 3.36493 8.52575C3.36037 8.51477 3.35919 8.50269 3.36151 8.49103C3.36384 8.47937 3.36958 8.46867 3.378 8.46027L6.3705 5.46777V8.56277Z" fill="#9593FF"/>
</svg>
