<svg width="40" height="20" viewBox="0 0 40 20" fill="none" xmlns="http://www.w3.org/2000/svg">
<path fillRule="evenodd" clipRule="evenodd" d="M40 10.3325C40 6.91448 38.6225 4.21664 35.9884 4.21664C33.3445 4.21664 31.7437 6.9139 31.7437 10.3052C31.7437 14.3244 33.6326 16.3537 36.3436 16.3537C37.666 16.3537 38.666 15.9936 39.4215 15.486V12.8155C38.666 13.2696 37.7994 13.5496 36.6993 13.5496C35.6215 13.5496 34.666 13.0954 34.5437 11.5203H39.9763C39.9763 11.346 39.9986 10.6525 39.9986 10.3319L40 10.3325ZM34.5156 9.06462C34.5156 7.55569 35.2822 6.92842 35.9826 6.92842C36.6602 6.92842 37.3828 7.55569 37.3828 9.06462H34.5156ZM27.4605 4.2178C26.3715 4.2178 25.6721 4.83171 25.2826 5.25918L25.1376 4.43154H22.6885V20L25.4662 19.2926L25.4774 15.5139C25.8775 15.8612 26.4662 16.3549 27.4445 16.3549C29.4334 16.3549 31.2445 14.4382 31.2445 10.1995C31.2333 6.32728 29.4001 4.21722 27.4551 4.21722L27.4605 4.2178ZM26.7935 13.4177C26.1381 13.4177 25.7495 13.1372 25.4822 12.7905L25.4711 7.83621C25.7601 7.44882 26.1598 7.18223 26.7935 7.18223C27.8046 7.18223 28.5045 8.54421 28.5045 10.293C28.5045 12.0819 27.8157 13.4177 26.7935 13.4177ZM18.8668 3.43023L21.6557 2.71003V0L18.8668 0.70742V3.43023ZM18.8668 4.4449H21.6557V16.1278H18.8668V4.4449ZM15.8774 5.43226L15.6996 4.4449H13.2993V16.1289H16.077V8.21025C16.7324 7.18223 17.8436 7.36925 18.1882 7.51619V4.44548C17.8325 4.28518 16.5328 3.99129 15.8769 5.43285L15.8774 5.43226ZM10.322 1.54087L7.61102 2.2361L7.5999 12.931C7.5999 14.9069 8.83336 16.3624 10.4777 16.3624C11.3887 16.3624 12.0552 16.162 12.4221 15.921V13.2104C12.0664 13.3846 10.3109 13.998 10.3109 12.0221V7.2891H12.4221V4.4449H10.3099L10.322 1.54087ZM2.81105 7.82983C2.81105 7.30884 3.16679 7.10963 3.75548 7.10963C4.71642 7.13422 5.65949 7.42649 6.51047 7.96341V4.83229C5.58827 4.39088 4.6772 4.21838 3.75548 4.21838C1.49978 4.21838 0 5.6338 0 7.9971C0 11.6823 4.22238 11.0945 4.22238 12.6842C4.22238 13.2981 3.77772 13.4985 3.15567 13.4985C2.23347 13.4985 1.0556 13.0443 0.122283 12.4298V15.6068C1.15564 16.1411 2.20061 16.3618 3.15567 16.3618C5.46696 16.3618 7.05615 14.9865 7.05615 12.5965C7.04504 8.61798 2.81105 9.3254 2.81105 7.82983Z" fill="#6772E5"/>
</svg>
