<svg width="20" height="20" viewBox="0 0 20 20" fill="none" xmlns="http://www.w3.org/2000/svg">
<circle cx="9.85" cy="9.85" r="9.85" fill="white"/>
<path d="M15.1296 1.47457C17.9592 3.22248 19.8448 6.35225 19.8448 9.92248C19.8448 15.4025 15.4023 19.845 9.92233 19.845C8.76214 19.8464 7.61074 19.6437 6.52078 19.2462L6.4076 19.204L6.59209 19.1447L6.8293 19.067L6.94636 19.0278L7.06233 18.9885L7.29116 18.9098L7.51581 18.8304L7.73628 18.7505L7.9524 18.6702L8.05907 18.6298L8.26899 18.5485C8.4907 18.4617 8.70543 18.3738 8.91287 18.285L9.06713 18.2183L9.25628 18.1344C9.33923 18.0969 9.42109 18.0594 9.50171 18.0216L9.62171 17.9648L9.79829 17.8791L9.88496 17.8361L9.97054 17.7929L10.1388 17.706C11.5505 16.9656 12.5096 16.1611 13.0189 15.2791C14.098 13.4102 13.1555 11.4132 10.4505 9.37721L10.2304 9.21225L10.0966 9.10961L9.96682 9.00791L9.84078 8.90682L9.71876 8.80667L9.65923 8.7569L9.60047 8.70729L9.48605 8.60853L9.40279 8.53504L9.32171 8.46186L9.2169 8.36512L9.11581 8.26899L9.01845 8.1738L8.97132 8.12651L8.92496 8.07922L8.83519 7.98543C7.76589 6.84868 7.52713 5.87566 8.01256 5.03473C8.25969 4.60682 8.68806 4.18605 9.2969 3.77628L9.37085 3.72713L9.48729 3.65225C9.54 3.61907 9.5938 3.58589 9.64884 3.55271L9.73225 3.5031L9.86093 3.42899L9.99349 3.35519L10.0957 3.3L10.2 3.24496L10.3428 3.17178C10.454 3.11572 10.566 3.06119 10.6788 3.00822L10.7953 2.95395L10.9543 2.88202L11.0352 2.84605L11.2002 2.77473L11.2842 2.73907L11.4553 2.66791L11.5422 2.63256L11.7194 2.56202L11.8095 2.52682L11.9927 2.45674L12.1798 2.38698L12.2749 2.3524L12.4682 2.2831L12.6654 2.21426L12.8668 2.14589L12.969 2.11178L13.1763 2.04388L13.3878 1.97628L13.6031 1.90915L13.8225 1.84233L14.046 1.77581L14.331 1.69349L14.6223 1.61163L14.9802 1.51426L15.1296 1.47457ZM9.92233 0C11.129 0 12.2854 0.215504 13.355 0.609767L13.4693 0.652713L13.3969 0.674729L13.0434 0.783721L12.9278 0.82031L12.6994 0.893798L12.4752 0.968062L12.2552 1.04279L12.0394 1.11814L11.8278 1.19411L11.7234 1.23225L11.4673 1.32837L11.2177 1.42558L11.0225 1.50388L10.9265 1.54326L10.7377 1.62264C8.80791 2.44496 7.54326 3.36713 6.9386 4.41457C5.88295 6.24295 6.84047 8.21395 9.54574 10.2493L9.76589 10.4144L9.89954 10.5171L10.0293 10.6189L10.0929 10.6696L10.2167 10.7704L10.307 10.8454L10.3953 10.9202L10.5095 11.0191L10.5653 11.0684L10.6736 11.1662C10.7327 11.2205 10.7902 11.2744 10.8457 11.3279L10.9279 11.4079L11.0462 11.5273L11.1586 11.6453C12.2233 12.7899 12.4509 13.7825 11.945 14.6589C11.6175 15.2259 10.9924 15.7842 10.0712 16.326L9.98651 16.3753L9.84946 16.4529L9.70837 16.5304C9.62738 16.5741 9.54593 16.6169 9.46403 16.6589L9.33767 16.7228L9.18217 16.7994L9.02264 16.8757L8.85907 16.9516L8.77581 16.9898L8.6062 17.0653L8.4324 17.1408L8.25457 17.2158L8.16403 17.2532L7.98016 17.3279L7.88667 17.3651L7.79209 17.4023L7.60015 17.4764L7.40388 17.5502L7.20388 17.6237L6.99954 17.6969L6.79116 17.7698L6.68543 17.806L6.47101 17.8784L6.36233 17.9144L6.14171 17.9864L5.91721 18.0578L5.6307 18.1468L5.33783 18.2352L5.09907 18.3056L4.76574 18.4014C1.90806 16.6597 0 13.514 0 9.92248C0 4.44248 4.44233 0 9.92233 0Z" fill="#0080FF"/>
</svg>
