<svg width="45" height="20" viewBox="0 0 45 20" fill="none" xmlns="http://www.w3.org/2000/svg">
<rect width="45" height="20" rx="3" fill="black"/>
<path d="M5 9.9946C5.00844 13.8464 6.73691 17 8.86101 17C9.88442 16.9977 10.8656 16.2592 11.5893 14.9464C12.3131 13.6336 12.7204 11.8536 12.722 9.99679V9.00321C12.7237 8.40907 12.8263 7.83032 13.0159 7.34585C13.2055 6.86137 13.4728 6.49474 13.7813 6.2959C14.0899 6.09707 14.4248 6.07571 14.7403 6.23474C15.0558 6.39376 15.3367 6.72544 15.5445 7.18456H18.0413C17.8195 5.6975 17.3341 4.3842 16.6601 3.44724C15.9861 2.51028 15.1609 2.00172 14.3118 2C13.2884 2.0029 12.3074 2.74196 11.5838 4.05516C10.8603 5.36837 10.4533 7.14854 10.452 9.0054V9.9946C10.4513 10.76 10.2833 11.4937 9.98479 12.0345C9.68627 12.5753 9.28166 12.879 8.85981 12.879C8.43837 12.8779 8.03438 12.5736 7.73638 12.0329C7.43838 11.4922 7.27069 10.7592 7.27005 9.9946C7.27005 9.88625 7.25829 9.77896 7.23543 9.67886C7.21258 9.57876 7.17909 9.48781 7.13686 9.41119C7.09463 9.33458 7.0445 9.2738 6.98933 9.23234C6.93416 9.19088 6.87503 9.16954 6.81532 9.16954H5.45353C5.33313 9.17011 5.21778 9.2573 5.13276 9.41196C5.04774 9.56663 5 9.77616 5 9.9946ZM19.7746 17C18.9263 16.9942 18.1025 16.4836 17.4295 15.5468C16.7565 14.6099 16.2714 13.2983 16.0487 11.8132H18.5419C18.7483 12.2773 19.0291 12.6136 19.3454 12.7758C19.6617 12.9379 19.9979 12.918 20.3077 12.7186C20.6174 12.5192 20.8855 12.1503 21.0747 11.6628C21.264 11.1753 21.3652 10.5931 21.3644 9.99679V9.00321C21.366 7.14635 21.7733 5.36641 22.4971 4.05362C23.2208 2.74083 24.202 2.00232 25.2254 2C27.3278 2 29.0418 5.0639 29.0852 8.85658L29.0973 9.9946C29.0989 10.5887 29.2016 11.1675 29.3911 11.652C29.5807 12.1364 29.848 12.5031 30.1566 12.7019C30.4652 12.9007 30.8 12.9221 31.1155 12.7631C31.4311 12.604 31.7119 12.2724 31.9197 11.8132H34.4165C34.195 13.3004 33.7099 14.6139 33.0361 15.5512C32.3623 16.4886 31.5373 16.9977 30.6882 17C28.5641 17 26.8356 13.8442 26.8272 9.99679L26.8151 8.96819V8.92442C26.8029 8.17391 26.6301 7.46151 26.3334 6.9382C26.0366 6.41488 25.6392 6.12176 25.2254 6.12095C24.8039 6.12211 24.4 6.42638 24.102 6.96706C23.804 7.50775 23.6363 8.24075 23.6356 9.0054V9.9946C23.6343 11.8518 23.2272 13.6323 22.5034 14.9456C21.7795 16.2589 20.7982 16.9977 19.7746 17ZM34.9063 7.18675C35.1128 6.72257 35.3936 6.3862 35.71 6.22408C36.0264 6.06197 36.3628 6.08212 36.6726 6.28175C36.9824 6.48139 37.2505 6.85065 37.4396 7.33854C37.6288 7.82643 37.7298 8.40886 37.7287 9.0054C37.7287 9.11375 37.7405 9.22104 37.7634 9.32114C37.7862 9.42124 37.8197 9.51219 37.8619 9.58881C37.9042 9.66542 37.9543 9.7262 38.0095 9.76766C38.0646 9.80912 38.1238 9.83046 38.1835 9.83046H39.5465C39.6669 9.82988 39.7822 9.7427 39.8672 9.58804C39.9523 9.43337 40 9.22384 40 9.0054C39.9987 7.14816 39.5915 5.36766 38.8677 4.05439C38.1439 2.74113 37.1626 2.00232 36.139 2C35.2897 2.00185 34.4644 2.51073 33.7904 3.44811C33.1164 4.38549 32.6311 5.69928 32.4094 7.18675H34.9063Z" fill="white"/>
</svg>
