<svg width="20" height="20" viewBox="0 0 20 20" fill="none" xmlns="http://www.w3.org/2000/svg">
<path d="M20 0H0V20H20V0Z" fill="#1976D2"/>
<path d="M11.9391 8.88867H4.5708V10.702H7.21358V18.8887H9.30747V10.702H11.9391V8.88867Z" fill="white"/>
<path d="M18.441 11.1577C18.441 11.1577 17.4483 10.4955 16.326 10.4955C15.2038 10.4955 14.7999 11.0288 14.7999 11.5988C14.7999 13.0699 18.9005 12.9227 18.9005 15.8832C18.9005 20.4438 12.6483 18.421 12.6483 18.421V16.2332C12.6483 16.2332 13.8438 17.1344 15.2777 17.1344C16.7116 17.1344 16.6572 16.1966 16.6572 16.0677C16.6572 14.7071 12.5933 14.7071 12.5933 11.691C12.5933 7.59047 18.5144 9.20825 18.5144 9.20825L18.441 11.1577Z" fill="white"/>
</svg>
