<svg width="1491" height="423" viewBox="0 0 1491 423" fill="none" xmlns="http://www.w3.org/2000/svg">
<path d="M239.054 341.749C226.886 341.749 216.045 339.639 206.525 335.421C197.007 331.121 189.475 324.793 183.93 316.438C178.467 308.002 175.735 297.498 175.735 284.925C175.735 274.338 177.681 265.446 181.571 258.25C185.461 251.054 190.759 245.264 197.463 240.879C204.166 236.496 211.782 233.188 220.306 230.954C228.914 228.721 237.937 227.15 247.371 226.239C258.463 225.081 267.402 224.007 274.189 223.014C280.975 221.939 285.9 220.367 288.963 218.299C292.026 216.232 293.556 213.171 293.556 209.118V208.373C293.556 200.516 291.073 194.437 286.107 190.136C281.224 185.834 274.272 183.683 265.25 183.683C255.732 183.683 248.158 185.793 242.53 190.011C236.902 194.147 233.177 199.358 231.356 205.644L182.44 201.674C184.923 190.094 189.806 180.086 197.091 171.648C204.374 163.13 213.768 156.595 225.273 152.046C236.86 147.414 250.269 145.098 265.499 145.098C276.092 145.098 286.232 146.338 295.915 148.82C305.682 151.302 314.331 155.148 321.864 160.358C329.478 165.569 335.479 172.27 339.865 180.458C344.252 188.563 346.446 198.282 346.446 209.615V338.151H296.288V311.724H294.798C291.736 317.679 287.639 322.931 282.507 327.481C277.376 331.947 271.209 335.463 264.008 338.027C256.807 340.508 248.489 341.749 239.054 341.749ZM254.2 305.273C261.98 305.273 268.85 303.742 274.81 300.682C280.769 297.539 285.445 293.32 288.839 288.027C292.233 282.733 293.929 276.736 293.929 270.036V249.814C292.274 250.888 289.998 251.881 287.101 252.791C284.287 253.618 281.1 254.404 277.54 255.148C273.982 255.809 270.423 256.431 266.863 257.01C263.305 257.505 260.077 257.96 257.18 258.373C250.972 259.284 245.551 260.732 240.916 262.716C236.281 264.701 232.68 267.39 230.114 270.781C227.549 274.089 226.266 278.224 226.266 283.188C226.266 290.384 228.873 295.884 234.087 299.689C239.385 303.411 246.089 305.273 254.2 305.273ZM466.648 341.873C447.114 341.873 430.313 337.738 416.242 329.466C402.254 321.112 391.495 309.531 383.962 294.726C376.512 279.92 372.789 262.882 372.789 243.61C372.789 224.089 376.555 206.967 384.087 192.244C391.701 177.439 402.502 165.9 416.491 157.629C430.478 149.276 447.114 145.098 466.399 145.098C483.036 145.098 497.604 148.118 510.101 154.156C522.6 160.194 532.49 168.671 539.773 179.589C547.058 190.507 551.072 203.328 551.816 218.051H501.908C500.5 208.539 496.776 200.888 490.734 195.098C484.774 189.226 476.953 186.289 467.268 186.289C459.075 186.289 451.915 188.522 445.79 192.989C439.748 197.373 435.03 203.783 431.636 212.22C428.243 220.656 426.546 230.872 426.546 242.865C426.546 255.024 428.202 265.363 431.513 273.882C434.907 282.402 439.665 288.895 445.79 293.361C451.915 297.828 459.075 300.061 467.268 300.061C473.31 300.061 478.732 298.82 483.533 296.339C488.416 293.858 492.431 290.259 495.576 285.545C498.803 280.747 500.914 274.999 501.908 268.299H551.816C550.988 282.857 547.015 295.677 539.898 306.761C532.862 317.762 523.137 326.364 510.722 332.568C498.307 338.771 483.615 341.873 466.648 341.873ZM631.576 227.977V338.151H578.687V147.58H629.093V181.203H631.327C635.549 170.119 642.626 161.352 652.557 154.899C662.49 148.365 674.533 145.098 688.686 145.098C701.929 145.098 713.475 147.993 723.324 153.783C733.175 159.572 740.83 167.844 746.293 178.597C751.755 189.267 754.487 202.005 754.487 216.811V338.151H701.598V226.239C701.681 214.577 698.701 205.478 692.659 198.945C686.617 192.327 678.299 189.019 667.705 189.019C660.586 189.019 654.296 190.549 648.833 193.609C643.453 196.67 639.232 201.136 636.169 207.009C633.19 212.799 631.658 219.788 631.576 227.977ZM789.179 338.151V147.58H842.068V338.151H789.179ZM815.747 123.014C807.885 123.014 801.14 120.408 795.511 115.197C789.966 109.904 787.193 103.576 787.193 96.2145C787.193 88.9358 789.966 82.691 795.511 77.4801C801.14 72.1864 807.885 69.5396 815.747 69.5396C823.611 69.5396 830.315 72.1864 835.86 77.4801C841.489 82.691 844.303 88.9358 844.303 96.2145C844.303 103.576 841.489 109.904 835.86 115.197C830.315 120.408 823.611 123.014 815.747 123.014ZM1003.46 409.615V307.63H1001.84C999.361 312.923 995.843 318.175 991.291 323.387C986.821 328.514 980.986 332.774 973.785 336.165C966.667 339.557 957.976 341.253 947.713 341.253C933.229 341.253 920.109 337.53 908.356 330.086C896.687 322.56 887.417 311.517 880.547 296.96C873.759 282.32 870.366 264.37 870.366 243.113C870.366 221.277 873.884 203.121 880.919 188.647C887.955 174.089 897.307 163.212 908.978 156.016C920.731 148.738 933.601 145.098 947.589 145.098C958.266 145.098 967.164 146.917 974.282 150.557C981.483 154.113 987.276 158.58 991.663 163.957C996.133 169.25 999.527 174.461 1001.84 179.589H1004.08V147.58H1056.22V409.615H1003.46ZM964.474 299.192C972.999 299.192 980.199 296.876 986.077 292.245C992.036 287.53 996.587 280.955 999.733 272.518C1002.96 264.081 1004.57 254.197 1004.57 242.865C1004.57 231.533 1003 221.691 999.858 213.337C996.712 204.983 992.16 198.531 986.2 193.981C980.241 189.432 972.999 187.157 964.474 187.157C955.783 187.157 948.458 189.515 942.498 194.23C936.539 198.944 932.029 205.478 928.966 213.832C925.904 222.186 924.372 231.864 924.372 242.865C924.372 253.949 925.904 263.75 928.966 272.27C932.111 280.706 936.622 287.323 942.498 292.121C948.458 296.835 955.783 299.192 964.474 299.192ZM1213.98 257.01V147.58H1266.88V338.151H1216.09V303.536H1214.1C1209.8 314.701 1202.64 323.676 1192.63 330.458C1182.69 337.241 1170.57 340.633 1156.25 340.633C1143.5 340.633 1132.29 337.738 1122.6 331.947C1112.92 326.157 1105.35 317.928 1099.88 307.257C1094.5 296.587 1091.77 283.808 1091.69 268.92V147.58H1144.58V259.49C1144.66 270.739 1147.68 279.631 1153.64 286.165C1159.6 292.7 1167.59 295.967 1177.6 295.967C1183.98 295.967 1189.94 294.519 1195.48 291.624C1201.03 288.647 1205.5 284.262 1208.89 278.473C1212.37 272.683 1214.06 265.528 1213.98 257.01ZM1389.09 341.873C1369.47 341.873 1352.59 337.902 1338.43 329.963C1324.36 321.939 1313.52 310.607 1305.91 295.967C1298.29 281.244 1294.48 263.832 1294.48 243.733C1294.48 224.13 1298.29 206.926 1305.91 192.121C1313.52 177.315 1324.24 165.776 1338.06 157.505C1351.97 149.233 1368.28 145.098 1386.98 145.098C1399.55 145.098 1411.27 147.124 1422.12 151.177C1433.04 155.148 1442.56 161.145 1450.67 169.168C1458.86 177.191 1465.23 187.282 1469.79 199.44C1474.35 211.516 1476.62 225.66 1476.62 241.873V256.388H1315.6V223.634H1426.84C1426.84 216.025 1425.18 209.283 1421.87 203.411C1418.56 197.539 1413.96 192.948 1408.08 189.639C1402.29 186.247 1395.55 184.552 1387.85 184.552C1379.83 184.552 1372.7 186.413 1366.49 190.136C1360.37 193.775 1355.56 198.697 1352.09 204.899C1348.61 211.021 1346.84 217.844 1346.75 225.371V256.513C1346.75 265.942 1348.5 274.089 1351.97 280.955C1355.53 287.82 1360.53 293.113 1366.99 296.835C1373.45 300.557 1381.1 302.419 1389.96 302.419C1395.83 302.419 1401.21 301.592 1406.1 299.937C1410.98 298.283 1415.16 295.802 1418.63 292.493C1422.12 289.185 1424.76 285.131 1426.59 280.334L1475.49 283.56C1473.02 295.305 1467.93 305.562 1460.22 314.329C1452.62 323.014 1442.77 329.797 1430.68 334.677C1418.68 339.475 1404.81 341.873 1389.09 341.873Z" fill="#15808D"/>
<path d="M66.0706 104.558H2.2207V224.404H66.0706V104.558Z" fill="url(#paint0_linear_1071_4)"/>
<path d="M151.15 146.437V199.682H2.2207L70.5469 146.437H151.15Z" fill="url(#paint1_linear_1071_4)"/>
<path d="M2.4974 199.437H67.7018C67.7018 199.437 58.3246 247.595 82.9701 263.799C110.498 281.897 151.082 274.513 151.082 274.513V338.151C151.082 338.151 64.3843 346.748 28.559 303.47C-7.26644 260.193 2.4974 199.437 2.4974 199.437Z" fill="url(#paint2_linear_1071_4)"/>
<path d="M67.7364 96.2348C67.7364 77.5424 52.5731 62.3892 33.8682 62.3892C15.1633 62.3892 0 77.5424 0 96.2348C0 114.927 15.1633 130.08 33.8682 130.08C52.5731 130.08 67.7364 114.927 67.7364 96.2348Z" fill="url(#paint3_linear_1071_4)"/>
<defs>
<linearGradient id="paint0_linear_1071_4" x1="34.1457" y1="104.558" x2="34.1457" y2="224.405" gradientUnits="userSpaceOnUse">
<stop stop-color="#178F9D"/>
<stop offset="1" stop-color="#44BFD1"/>
</linearGradient>
<linearGradient id="paint1_linear_1071_4" x1="150.803" y1="173.059" x2="70.3042" y2="172.01" gradientUnits="userSpaceOnUse">
<stop stop-color="#0E7783"/>
<stop offset="1" stop-color="#44BFD1"/>
</linearGradient>
<linearGradient id="paint2_linear_1071_4" x1="76.369" y1="259.36" x2="38.0926" y2="312.095" gradientUnits="userSpaceOnUse">
<stop stop-color="#0E7783"/>
<stop offset="1" stop-color="#44BFD1"/>
</linearGradient>
<linearGradient id="paint3_linear_1071_4" x1="33.8682" y1="62.3892" x2="33.8682" y2="130.08" gradientUnits="userSpaceOnUse">
<stop stop-color="#178F9D"/>
<stop offset="1" stop-color="#44BFD1"/>
</linearGradient>
</defs>
</svg>
